{
.appVersion = "3125";
DisplayStrings = (
"/strokeshortcomb",
"/strokeshortcomb/strokelongcomb"
);
classes = (
{
automatic = 1;

glyphs = (
{
color = 6;
glyphname = A;
lastChange = "2021-04-22 10:35:34 +0000";
layers = (
{
anchors = (
{
name = bottom;
position = "{783, 0}";
},
{
name = ogonek;
position = "{1253, 0}";
},
{
name = top;
position = "{1034, 1205}";
}
);
layerId = "307B7D8E-54CC-4996-A0B0-7E3456408354";
paths = (
{
closed = 1;
nodes = (
"1521 -40 OFFCURVE",
"1614 111 OFFCURVE",
"1614 410 CURVE SMOOTH",
"1614 615 OFFCURVE",
"1560 843 OFFCURVE",
"1458 977 CURVE SMOOTH",
"1349 1121 OFFCURVE",
"1200 1195 OFFCURVE",
"1014 1195 CURVE SMOOTH",
"783 1195 OFFCURVE",
"538 1021 OFFCURVE",
"420 910 CURVE SMOOTH",
"229 730 OFFCURVE",
"14 481 OFFCURVE",
"14 195 CURVE SMOOTH",
"14 49 OFFCURVE",
"86 -25 OFFCURVE",
"247 -25 CURVE SMOOTH",
"390 -25 OFFCURVE",
"458 23 OFFCURVE",
"516 78 CURVE SMOOTH",
"555 115 OFFCURVE",
"584 154 OFFCURVE",
"619 184 CURVE SMOOTH",
"643 204 OFFCURVE",
"668 219 OFFCURVE",
"700 227 CURVE SMOOTH",
"728 234 OFFCURVE",
"762 237 OFFCURVE",
"793 237 CURVE SMOOTH",
"823 237 OFFCURVE",
"849 233 OFFCURVE",
"868 227 CURVE SMOOTH",
"899 217 OFFCURVE",
"925 195 OFFCURVE",
"947 158 CURVE SMOOTH",
"983 97 OFFCURVE",
"983 87 OFFCURVE",
"1002 55 CURVE SMOOTH",
"1046 -19 OFFCURVE",
"1123 -40 OFFCURVE",
"1229 -40 CURVE SMOOTH"
);
},
{
closed = 1;
nodes = (
"956 558 OFFCURVE",
"918 550 OFFCURVE",
"881 550 CURVE SMOOTH",
"836 550 OFFCURVE",
"793 566 OFFCURVE",
"793 604 CURVE SMOOTH",
"793 629 OFFCURVE",
"821 690 OFFCURVE",
"844 719 CURVE SMOOTH",
"875 758 OFFCURVE",
"921 807 OFFCURVE",
"967 807 CURVE SMOOTH",
"992 807 OFFCURVE",
"1012 787 OFFCURVE",
"1023 757 CURVE SMOOTH",
"1030 739 OFFCURVE",
"1033 713 OFFCURVE",
"1033 687 CURVE SMOOTH",
"1033 634 OFFCURVE",
"1020 589 OFFCURVE",
"981 570 CURVE SMOOTH"
);
}
);
width = 1692;
},
{
anchors = (
{
name = bottom;
position = "{669, 0}";
},
{
name = ogonek;
position = "{1153, 0}";
},
{
name = top;
position = "{877, 1197}";
}
);
layerId = "AE979D1C-FDDA-49FD-8CD9-3E2A42843A18";
paths = (
{
closed = 1;
nodes = (
"1167 -40 OFFCURVE",
"1184 -29 OFFCURVE",
"1184 23 CURVE SMOOTH",
"1184 294 OFFCURVE",
"1162 784 OFFCURVE",
"1133 912 CURVE SMOOTH",
"1092 1093 OFFCURVE",
"1031 1218 OFFCURVE",
"884 1218 CURVE SMOOTH",
"728 1218 OFFCURVE",
"588 1096 OFFCURVE",
"460 925 CURVE SMOOTH",
"337 761 OFFCURVE",
"-23 120 OFFCURVE",
"-23 4 CURVE SMOOTH",
"-23 -11 OFFCURVE",
"-17 -17 OFFCURVE",
"-7 -17 CURVE SMOOTH",
"24 -17 OFFCURVE",
"44 6 OFFCURVE",
"78 77 CURVE SMOOTH",
"130 187 OFFCURVE",
"198 329 OFFCURVE",
"239 403 CURVE SMOOTH",
"268 456 OFFCURVE",
"294 470 OFFCURVE",
"365 474 CURVE SMOOTH",
"452 479 OFFCURVE",
"579 482 OFFCURVE",
"698 482 CURVE SMOOTH",
"805 482 OFFCURVE",
"971 475 OFFCURVE",
"1020 472 CURVE SMOOTH",
"1075 469 OFFCURVE",
"1095 446 OFFCURVE",
"1099 401 CURVE SMOOTH",
"1104 337 OFFCURVE",
"1117 131 OFFCURVE",
"1123 34 CURVE SMOOTH",
"1126 -10 OFFCURVE",
"1134 -40 OFFCURVE",
"1152 -40 CURVE SMOOTH"
);
},
{
closed = 1;
nodes = (
"928 539 OFFCURVE",
"768 547 OFFCURVE",
"432 547 CURVE SMOOTH",
"361 547 OFFCURVE",
"339 553 OFFCURVE",
"339 576 CURVE SMOOTH",
"339 648 OFFCURVE",
"500 869 OFFCURVE",
"571 956 CURVE SMOOTH",
"672 1081 OFFCURVE",
"787 1160 OFFCURVE",
"883 1160 CURVE SMOOTH",
"982 1160 OFFCURVE",
"1022 1068 OFFCURVE",
"1057 948 CURVE SMOOTH",
"1083 858 OFFCURVE",
"1091 753 OFFCURVE",
"1091 671 CURVE SMOOTH",
"1091 592 OFFCURVE",
"1089 539 OFFCURVE",
"1034 539 CURVE SMOOTH"
);
}
);
width = 1349;
},
{
anchors = (
{
name = bottom;
position = "{855, 0}";
},
{
name = ogonek;
position = "{1334, 0}";
},
{
name = top;
position = "{527, 1197}";
}
);
layerId = "A5079BDB-9783-4F5E-864F-267B8C6F09C1";
paths = (
{
closed = 1;
nodes = (
"1359 -40 OFFCURVE",
"1367 -36 OFFCURVE",
"1367 -13 CURVE SMOOTH",
"1367 93 OFFCURVE",
"1029 760 OFFCURVE",
"934 904 CURVE SMOOTH",
"814 1085 OFFCURVE",
"681 1218 OFFCURVE",
"528 1218 CURVE SMOOTH",
"359 1218 OFFCURVE",
"268 1075 OFFCURVE",
"217 881 CURVE SMOOTH",
"165 684 OFFCURVE",
"151 423 OFFCURVE",
"151 171 CURVE SMOOTH",
"151 90 OFFCURVE",
"151 -17 OFFCURVE",
"192 -17 CURVE SMOOTH",
"213 -17 OFFCURVE",
"223 6 OFFCURVE",
"223 77 CURVE SMOOTH",
"223 188 OFFCURVE",
"227 329 OFFCURVE",
"234 403 CURVE SMOOTH",
"239 456 OFFCURVE",
"262 470 OFFCURVE",
"333 474 CURVE SMOOTH",
"416 479 OFFCURVE",
"546 485 OFFCURVE",
"665 485 CURVE SMOOTH",
"782 485 OFFCURVE",
"949 472 OFFCURVE",
"1000 468 CURVE SMOOTH",
"1068 463 OFFCURVE",
"1089 446 OFFCURVE",
"1110 401 CURVE SMOOTH",
"1140 337 OFFCURVE",
"1239 131 OFFCURVE",
"1284 34 CURVE SMOOTH",
"1305 -10 OFFCURVE",
"1321 -40 OFFCURVE",
"1344 -40 CURVE SMOOTH"
);
},
{
closed = 1;
nodes = (
"884 539 OFFCURVE",
"697 547 OFFCURVE",
"361 547 CURVE SMOOTH",
"269 547 OFFCURVE",
"247 551 OFFCURVE",
"247 629 CURVE SMOOTH",
"247 720 OFFCURVE",
"281 865 OFFCURVE",
"312 956 CURVE SMOOTH",
"354 1081 OFFCURVE",
"432 1160 OFFCURVE",
"528 1160 CURVE SMOOTH",
"627 1160 OFFCURVE",
"732 1068 OFFCURVE",
"823 948 CURVE SMOOTH",
"929 808 OFFCURVE",
"1021 629 OFFCURVE",
"1021 564 CURVE SMOOTH",
"1021 546 OFFCURVE",
"1012 539 OFFCURVE",
"990 539 CURVE SMOOTH"
);
}
);
width = 1340;
},
{
anchors = (
{
name = bottom;
position = "{985, 0}";
},
{
name = ogonek;
position = "{1457, 0}";
},
{
name = top;
position = "{652, 1205}";
}
);
layerId = "AE80B40C-E5A8-4B5C-A94B-22B98FE5A19F";
paths = (
{
closed = 1;
nodes = (
"1606 -40 OFFCURVE",
"1693 11 OFFCURVE",
"1693 153 CURVE SMOOTH",
"1693 407 OFFCURVE",
"1440 796 OFFCURVE",
"1219 977 CURVE SMOOTH",
"1043 1121 OFFCURVE",
"839 1195 OFFCURVE",
"653 1195 CURVE SMOOTH",
"414 1195 OFFCURVE",
"276 1034 OFFCURVE",
"199 907 CURVE SMOOTH",
"142 813 OFFCURVE",
"68 594 OFFCURVE",
"68 431 CURVE SMOOTH",
"68 180 OFFCURVE",
"163 -25 OFFCURVE",
"440 -25 CURVE SMOOTH",
"583 -25 OFFCURVE",
"641 21 OFFCURVE",
"671 78 CURVE SMOOTH",
"691 116 OFFCURVE",
"703 156 OFFCURVE",
"726 184 CURVE SMOOTH",
"742 204 OFFCURVE",
"761 219 OFFCURVE",
"789 227 CURVE SMOOTH",
"813 234 OFFCURVE",
"845 237 OFFCURVE",
"876 237 CURVE SMOOTH",
"906 237 OFFCURVE",
"934 233 OFFCURVE",
"955 227 CURVE SMOOTH",
"990 217 OFFCURVE",
"1026 195 OFFCURVE",
"1066 158 CURVE SMOOTH",
"1130 99 OFFCURVE",
"1134 87 OFFCURVE",
"1169 55 CURVE SMOOTH",
"1248 -17 OFFCURVE",
"1334 -40 OFFCURVE",
"1440 -40 CURVE SMOOTH"
);
},
{
closed = 1;
nodes = (
"873 558 OFFCURVE",
"837 550 OFFCURVE",
"800 550 CURVE SMOOTH",
"727 550 OFFCURVE",
"678 580 OFFCURVE",
"678 660 CURVE SMOOTH",
"678 682 OFFCURVE",
"681 705 OFFCURVE",
"685 719 CURVE SMOOTH",
"697 759 OFFCURVE",
"722 807 OFFCURVE",
"768 807 CURVE SMOOTH",
"793 807 OFFCURVE",
"823 787 OFFCURVE",
"848 757 CURVE SMOOTH",
"879 720 OFFCURVE",
"910 650 OFFCURVE",
"910 605 CURVE SMOOTH",
"910 588 OFFCURVE",
"905 578 OFFCURVE",
"892 570 CURVE SMOOTH"
);
}
);
width = 1694;
},
{
anchors = (
{
name = bottom;
position = "{872, 0}";
},
{
name = ogonek;
position = "{1347, 0}";
},
{
name = top;
position = "{827, 1205}";
}
);
layerId = "6282282A-FA3F-4DEE-9DB6-5D5B2A6C152F";
paths = (
{
closed = 1;
nodes = (
"1513 -40 OFFCURVE",
"1635 23 OFFCURVE",
"1635 205 CURVE SMOOTH",
"1635 440 OFFCURVE",
"1514 797 OFFCURVE",
"1332 977 CURVE SMOOTH",
"1188 1120 OFFCURVE",
"1013 1195 OFFCURVE",
"827 1195 CURVE SMOOTH",
"566 1195 OFFCURVE",
"402 1024 OFFCURVE",
"313 907 CURVE SMOOTH",
"233 801 OFFCURVE",
"50 507 OFFCURVE",
"50 257 CURVE SMOOTH",
"50 47 OFFCURVE",
"143 -25 OFFCURVE",
"332 -25 CURVE SMOOTH",
"475 -25 OFFCURVE",
"542 23 OFFCURVE",
"587 78 CURVE SMOOTH",
"618 115 OFFCURVE",
"638 154 OFFCURVE",
"666 184 CURVE SMOOTH",
"685 204 OFFCURVE",
"707 219 OFFCURVE",
"737 227 CURVE SMOOTH",
"763 234 OFFCURVE",
"797 237 OFFCURVE",
"828 237 CURVE SMOOTH",
"858 237 OFFCURVE",
"885 234 OFFCURVE",
"905 227 CURVE SMOOTH",
"938 216 OFFCURVE",
"969 195 OFFCURVE",
"1000 158 CURVE SMOOTH",
"1050 98 OFFCURVE",
"1052 87 OFFCURVE",
"1079 55 CURVE SMOOTH",
"1141 -18 OFFCURVE",
"1222 -40 OFFCURVE",
"1328 -40 CURVE SMOOTH"
);
},
{
closed = 1;
nodes = (
"909 558 OFFCURVE",
"872 550 OFFCURVE",
"835 550 CURVE SMOOTH",
"785 550 OFFCURVE",
"733 570 OFFCURVE",
"733 619 CURVE SMOOTH",
"733 648 OFFCURVE",
"747 695 OFFCURVE",
"759 719 CURVE SMOOTH",
"779 759 OFFCURVE",
"816 807 OFFCURVE",
"862 807 CURVE SMOOTH",
"887 807 OFFCURVE",
"912 787 OFFCURVE",
"930 757 CURVE SMOOTH",
"947 729 OFFCURVE",
"961 678 OFFCURVE",
"961 645 CURVE SMOOTH",
"961 603 OFFCURVE",
"956 584 OFFCURVE",
"931 570 CURVE SMOOTH"
);
}
);
width = 1685;
},
{
anchors = (
{
name = bottom;
position = "{759, 0}";
},
{
name = ogonek;
position = "{1237, 0}";
},
{
name = top;
position = "{706, 1197}";
}
);
layerId = "4C364951-5780-4BC6-AB35-57CC8C56127C";
paths = (
{
closed = 1;
nodes = (
"1264 -40 OFFCURVE",
"1269 -30 OFFCURVE",
"1269 -7 CURVE SMOOTH",
"1269 159 OFFCURVE",
"1113 748 OFFCURVE",
"1041 910 CURVE SMOOTH",
"962 1088 OFFCURVE",
"856 1218 OFFCURVE",
"704 1218 CURVE SMOOTH",
"533 1218 OFFCURVE",
"412 1071 OFFCURVE",
"319 873 CURVE SMOOTH",
"245 715 OFFCURVE",
"70 171 OFFCURVE",
"70 30 CURVE SMOOTH",
"70 -3 OFFCURVE",
"78 -17 OFFCURVE",
"93 -17 CURVE SMOOTH",
"119 -17 OFFCURVE",
"134 6 OFFCURVE",
"151 77 CURVE SMOOTH",
"177 188 OFFCURVE",
"213 329 OFFCURVE",
"237 403 CURVE SMOOTH",
"254 456 OFFCURVE",
"276 470 OFFCURVE",
"347 474 CURVE SMOOTH",
"432 479 OFFCURVE",
"563 485 OFFCURVE",
"682 485 CURVE SMOOTH",
"799 485 OFFCURVE",
"968 472 OFFCURVE",
"1018 468 CURVE SMOOTH",
"1085 463 OFFCURVE",
"1102 446 OFFCURVE",
"1113 401 CURVE SMOOTH",
"1129 337 OFFCURVE",
"1177 131 OFFCURVE",
"1202 34 CURVE SMOOTH",
"1213 -10 OFFCURVE",
"1226 -40 OFFCURVE",
"1249 -40 CURVE SMOOTH"
);
},
{
closed = 1;
nodes = (
"918 539 OFFCURVE",
"733 547 OFFCURVE",
"397 547 CURVE SMOOTH",
"313 547 OFFCURVE",
"296 556 OFFCURVE",
"296 590 CURVE SMOOTH",
"296 672 OFFCURVE",
"380 851 OFFCURVE",
"443 956 CURVE SMOOTH",
"518 1081 OFFCURVE",
"610 1160 OFFCURVE",
"706 1160 CURVE SMOOTH",
"805 1160 OFFCURVE",
"889 1068 OFFCURVE",
"952 948 CURVE SMOOTH",
"1017 823 OFFCURVE",
"1064 666 OFFCURVE",
"1064 588 CURVE SMOOTH",
"1064 552 OFFCURVE",
"1054 539 OFFCURVE",
"1024 539 CURVE SMOOTH"
);
}
);
width = 1339;
}
);
leftKerningGroup = A;
rightKerningGroup = A;
unicode = 0041;
},
{
color = 3;
glyphname = Aogonek;
lastChange = "2021-04-22 10:35:34 +0000";
layers = (
{
anchors = (
{
name = bottom;
position = "{783, 0}";
},
{
name = ogonek;
position = "{1253, 0}";
},
{
name = top;
position = "{1034, 1205}";
}
);
components = (
{
name = ogonekcomb;
transform = "{1, 0, 0, 1, 1313, 154}";
}
);
layerId = "307B7D8E-54CC-4996-A0B0-7E3456408354";
paths = (
{
closed = 1;
nodes = (
"1521 -40 OFFCURVE",
"1614 111 OFFCURVE",
"1614 410 CURVE SMOOTH",
"1614 615 OFFCURVE",
"1560 843 OFFCURVE",
"1458 977 CURVE SMOOTH",
"1349 1121 OFFCURVE",
"1200 1195 OFFCURVE",
"1014 1195 CURVE SMOOTH",
"783 1195 OFFCURVE",
"538 1021 OFFCURVE",
"420 910 CURVE SMOOTH",
"229 730 OFFCURVE",
"14 481 OFFCURVE",
"14 195 CURVE SMOOTH",
"14 49 OFFCURVE",
"86 -25 OFFCURVE",
"247 -25 CURVE SMOOTH",
"390 -25 OFFCURVE",
"458 23 OFFCURVE",
"516 78 CURVE SMOOTH",
"555 115 OFFCURVE",
"584 154 OFFCURVE",
"619 184 CURVE SMOOTH",
"643 204 OFFCURVE",
"668 219 OFFCURVE",
"700 227 CURVE SMOOTH",
"728 234 OFFCURVE",
"762 237 OFFCURVE",
"793 237 CURVE SMOOTH",
"823 237 OFFCURVE",
"849 233 OFFCURVE",
"868 227 CURVE SMOOTH",
"899 217 OFFCURVE",
"925 195 OFFCURVE",
"947 158 CURVE SMOOTH",
"983 97 OFFCURVE",
"983 87 OFFCURVE",
"1002 55 CURVE SMOOTH",
"1046 -19 OFFCURVE",
"1123 -40 OFFCURVE",
"1229 -40 CURVE SMOOTH"
);
},
{
closed = 1;
nodes = (
"956 558 OFFCURVE",
"918 550 OFFCURVE",
"881 550 CURVE SMOOTH",
"836 550 OFFCURVE",
"793 566 OFFCURVE",
"793 604 CURVE SMOOTH",
"793 629 OFFCURVE",
"821 690 OFFCURVE",
"844 719 CURVE SMOOTH",
"875 758 OFFCURVE",
"921 807 OFFCURVE",
"967 807 CURVE SMOOTH",
"992 807 OFFCURVE",
"1012 787 OFFCURVE",
"1023 757 CURVE SMOOTH",
"1030 739 OFFCURVE",
"1033 713 OFFCURVE",
"1033 687 CURVE SMOOTH",
"1033 634 OFFCURVE",
"1020 589 OFFCURVE",
"981 570 CURVE SMOOTH"
);
}
);
width = 1692;
},
{
anchors = (
{
name = bottom;
position = "{669, 0}";
},
{
name = ogonek;
position = "{1153, 0}";
},
{
name = top;
position = "{863, 1160}";
}
);
components = (
{
name = ogonekcomb;
transform = "{1, 0, 0, 1, 1045, 0}";
}
);
layerId = "AE979D1C-FDDA-49FD-8CD9-3E2A42843A18";
paths = (
{
closed = 1;
nodes = (
"1167 -40 OFFCURVE",
"1184 -29 OFFCURVE",
"1184 23 CURVE SMOOTH",
"1184 294 OFFCURVE",
"1162 784 OFFCURVE",
"1133 912 CURVE SMOOTH",
"1092 1093 OFFCURVE",
"1031 1218 OFFCURVE",
"884 1218 CURVE SMOOTH",
"728 1218 OFFCURVE",
"588 1096 OFFCURVE",
"460 925 CURVE SMOOTH",
"337 761 OFFCURVE",
"-23 120 OFFCURVE",
"-23 4 CURVE SMOOTH",
"-23 -11 OFFCURVE",
"-17 -17 OFFCURVE",
"-7 -17 CURVE SMOOTH",
"24 -17 OFFCURVE",
"44 6 OFFCURVE",
"78 77 CURVE SMOOTH",
"130 187 OFFCURVE",
"198 329 OFFCURVE",
"239 403 CURVE SMOOTH",
"268 456 OFFCURVE",
"294 470 OFFCURVE",
"365 474 CURVE SMOOTH",
"452 479 OFFCURVE",
"579 482 OFFCURVE",
"698 482 CURVE SMOOTH",
"805 482 OFFCURVE",
"971 475 OFFCURVE",
"1020 472 CURVE SMOOTH",
"1075 469 OFFCURVE",
"1095 446 OFFCURVE",
"1099 401 CURVE SMOOTH",
"1104 337 OFFCURVE",
"1117 131 OFFCURVE",
"1123 34 CURVE SMOOTH",
"1126 -10 OFFCURVE",
"1134 -40 OFFCURVE",
"1152 -40 CURVE SMOOTH"
);
},
{
closed = 1;
nodes = (
"928 539 OFFCURVE",
"768 547 OFFCURVE",
"432 547 CURVE SMOOTH",
"361 547 OFFCURVE",
"339 553 OFFCURVE",
"339 576 CURVE SMOOTH",
"339 648 OFFCURVE",
"500 869 OFFCURVE",
"571 956 CURVE SMOOTH",
"672 1081 OFFCURVE",
"787 1160 OFFCURVE",
"883 1160 CURVE SMOOTH",
"982 1160 OFFCURVE",
"1022 1068 OFFCURVE",
"1057 948 CURVE SMOOTH",
"1083 858 OFFCURVE",
"1091 753 OFFCURVE",
"1091 671 CURVE SMOOTH",
"1091 592 OFFCURVE",
"1089 539 OFFCURVE",
"1034 539 CURVE SMOOTH"
);
}
);
width = 1349;
},
{
anchors = (
{
name = bottom;
position = "{855, 0}";
},
{
name = ogonek;
position = "{1334, 0}";
},
{
name = top;
position = "{535, 1180}";
}
);
components = (
{
name = ogonekcomb;
transform = "{1, 0, 0, 1, 992, -26}";
}
);
layerId = "A5079BDB-9783-4F5E-864F-267B8C6F09C1";
paths = (
{
closed = 1;
nodes = (
"1359 -40 OFFCURVE",
"1367 -36 OFFCURVE",
"1367 -13 CURVE SMOOTH",
"1367 93 OFFCURVE",
"1029 760 OFFCURVE",
"934 904 CURVE SMOOTH",
"814 1085 OFFCURVE",
"681 1218 OFFCURVE",
"528 1218 CURVE SMOOTH",
"359 1218 OFFCURVE",
"268 1075 OFFCURVE",
"217 881 CURVE SMOOTH",
"165 684 OFFCURVE",
"151 423 OFFCURVE",
"151 171 CURVE SMOOTH",
"151 90 OFFCURVE",
"151 -17 OFFCURVE",
"192 -17 CURVE SMOOTH",
"213 -17 OFFCURVE",
"223 6 OFFCURVE",
"223 77 CURVE SMOOTH",
"223 188 OFFCURVE",
"227 329 OFFCURVE",
"234 403 CURVE SMOOTH",
"239 456 OFFCURVE",
"262 470 OFFCURVE",
"333 474 CURVE SMOOTH",
"416 479 OFFCURVE",
"546 485 OFFCURVE",
"665 485 CURVE SMOOTH",
"782 485 OFFCURVE",
"949 472 OFFCURVE",
"1000 468 CURVE SMOOTH",
"1068 463 OFFCURVE",
"1089 446 OFFCURVE",
"1110 401 CURVE SMOOTH",
"1140 337 OFFCURVE",
"1239 131 OFFCURVE",
"1284 34 CURVE SMOOTH",
"1305 -10 OFFCURVE",
"1321 -40 OFFCURVE",
"1344 -40 CURVE SMOOTH"
);
},
{
closed = 1;
nodes = (
"884 539 OFFCURVE",
"697 547 OFFCURVE",
"361 547 CURVE SMOOTH",
"269 547 OFFCURVE",
"247 551 OFFCURVE",
"247 629 CURVE SMOOTH",
"247 720 OFFCURVE",
"281 865 OFFCURVE",
"312 956 CURVE SMOOTH",
"354 1081 OFFCURVE",
"432 1160 OFFCURVE",
"528 1160 CURVE SMOOTH",
"627 1160 OFFCURVE",
"732 1068 OFFCURVE",
"823 948 CURVE SMOOTH",
"929 808 OFFCURVE",
"1021 629 OFFCURVE",
"1021 564 CURVE SMOOTH",
"1021 546 OFFCURVE",
"1012 539 OFFCURVE",
"990 539 CURVE SMOOTH"
);
}
);
width = 1340;
},
{
anchors = (
{
name = bottom;
position = "{985, 0}";
},
{
name = ogonek;
position = "{1457, 0}";
},
{
name = top;
position = "{652, 1205}";
}
);
components = (
{
name = ogonekcomb;
transform = "{1, 0, 0, 1, 1193, 131}";
}
);
layerId = "AE80B40C-E5A8-4B5C-A94B-22B98FE5A19F";
paths = (
{
closed = 1;
nodes = (
"1606 -40 OFFCURVE",
"1693 11 OFFCURVE",
"1693 153 CURVE SMOOTH",
"1693 407 OFFCURVE",
"1440 796 OFFCURVE",
"1219 977 CURVE SMOOTH",
"1043 1121 OFFCURVE",
"839 1195 OFFCURVE",
"653 1195 CURVE SMOOTH",
"414 1195 OFFCURVE",
"276 1034 OFFCURVE",
"199 907 CURVE SMOOTH",
"142 813 OFFCURVE",
"68 594 OFFCURVE",
"68 431 CURVE SMOOTH",
"68 180 OFFCURVE",
"163 -25 OFFCURVE",
"440 -25 CURVE SMOOTH",
"583 -25 OFFCURVE",
"641 21 OFFCURVE",
"671 78 CURVE SMOOTH",
"691 116 OFFCURVE",
"703 156 OFFCURVE",
"726 184 CURVE SMOOTH",
"742 204 OFFCURVE",
"761 219 OFFCURVE",
"789 227 CURVE SMOOTH",
"813 234 OFFCURVE",
"845 237 OFFCURVE",
"876 237 CURVE SMOOTH",
"906 237 OFFCURVE",
"934 233 OFFCURVE",
"955 227 CURVE SMOOTH",
"990 217 OFFCURVE",
"1026 195 OFFCURVE",
"1066 158 CURVE SMOOTH",
"1130 99 OFFCURVE",
"1134 87 OFFCURVE",
"1169 55 CURVE SMOOTH",
"1248 -17 OFFCURVE",
"1334 -40 OFFCURVE",
"1440 -40 CURVE SMOOTH"
);
},
{
closed = 1;
nodes = (
"873 558 OFFCURVE",
"837 550 OFFCURVE",
"800 550 CURVE SMOOTH",
"727 550 OFFCURVE",
"678 580 OFFCURVE",
"678 660 CURVE SMOOTH",
"678 682 OFFCURVE",
"681 705 OFFCURVE",
"685 719 CURVE SMOOTH",
"697 759 OFFCURVE",
"722 807 OFFCURVE",
"768 807 CURVE SMOOTH",
"793 807 OFFCURVE",
"823 787 OFFCURVE",
"848 757 CURVE SMOOTH",
"879 720 OFFCURVE",
"910 650 OFFCURVE",
"910 605 CURVE SMOOTH",
"910 588 OFFCURVE",
"905 578 OFFCURVE",
"892 570 CURVE SMOOTH"
);
}
);
width = 1694;
},
{
anchors = (
{
name = bottom;
position = "{872, 0}";
},
{
name = ogonek;
position = "{1347, 0}";
},
{
name = top;
position = "{827, 1205}";
}
);
components = (
{
name = ogonekcomb;
transform = "{1, 0, 0, 1, 1276, 138}";
}
);
layerId = "6282282A-FA3F-4DEE-9DB6-5D5B2A6C152F";
paths = (
{
closed = 1;
nodes = (
"1513 -40 OFFCURVE",
"1635 23 OFFCURVE",
"1635 205 CURVE SMOOTH",
"1635 440 OFFCURVE",
"1514 797 OFFCURVE",
"1332 977 CURVE SMOOTH",
"1188 1120 OFFCURVE",
"1013 1195 OFFCURVE",
"827 1195 CURVE SMOOTH",
"566 1195 OFFCURVE",
"402 1024 OFFCURVE",
"313 907 CURVE SMOOTH",
"233 801 OFFCURVE",
"50 507 OFFCURVE",
"50 257 CURVE SMOOTH",
"50 47 OFFCURVE",
"143 -25 OFFCURVE",
"332 -25 CURVE SMOOTH",
"475 -25 OFFCURVE",
"542 23 OFFCURVE",
"587 78 CURVE SMOOTH",
"618 115 OFFCURVE",
"638 154 OFFCURVE",
"666 184 CURVE SMOOTH",
"685 204 OFFCURVE",
"707 219 OFFCURVE",
"737 227 CURVE SMOOTH",
"763 234 OFFCURVE",
"797 237 OFFCURVE",
"828 237 CURVE SMOOTH",
"858 237 OFFCURVE",
"885 234 OFFCURVE",
"905 227 CURVE SMOOTH",
"938 216 OFFCURVE",
"969 195 OFFCURVE",
"1000 158 CURVE SMOOTH",
"1050 98 OFFCURVE",
"1052 87 OFFCURVE",
"1079 55 CURVE SMOOTH",
"1141 -18 OFFCURVE",
"1222 -40 OFFCURVE",
"1328 -40 CURVE SMOOTH"
);
},
{
closed = 1;
nodes = (
"909 558 OFFCURVE",
"872 550 OFFCURVE",
"835 550 CURVE SMOOTH",
"785 550 OFFCURVE",
"733 570 OFFCURVE",
"733 619 CURVE SMOOTH",
"733 648 OFFCURVE",
"747 695 OFFCURVE",
"759 719 CURVE SMOOTH",
"779 759 OFFCURVE",
"816 807 OFFCURVE",
"862 807 CURVE SMOOTH",
"887 807 OFFCURVE",
"912 787 OFFCURVE",
"930 757 CURVE SMOOTH",
"947 729 OFFCURVE",
"961 678 OFFCURVE",
"961 645 CURVE SMOOTH",
"961 603 OFFCURVE",
"956 584 OFFCURVE",
"931 570 CURVE SMOOTH"
);
}
);
width = 1685;
},
{
anchors = (
{
name = bottom;
position = "{759, 0}";
},
{
name = ogonek;
position = "{1237, 0}";
},
{
name = top;
position = "{706, 1180}";
}
);
components = (
{
name = ogonekcomb;
transform = "{1, 0, 0, 1, 1008, -17}";
}
);
layerId = "4C364951-5780-4BC6-AB35-57CC8C56127C";
paths = (
{
closed = 1;
nodes = (
"1264 -40 OFFCURVE",
"1269 -30 OFFCURVE",
"1269 -7 CURVE SMOOTH",
"1269 159 OFFCURVE",
"1113 748 OFFCURVE",
"1041 910 CURVE SMOOTH",
"962 1088 OFFCURVE",
"856 1218 OFFCURVE",
"704 1218 CURVE SMOOTH",
"533 1218 OFFCURVE",
"412 1071 OFFCURVE",
"319 873 CURVE SMOOTH",
"245 715 OFFCURVE",
"70 171 OFFCURVE",
"70 30 CURVE SMOOTH",
"70 -3 OFFCURVE",
"78 -17 OFFCURVE",
"93 -17 CURVE SMOOTH",
"119 -17 OFFCURVE",
"134 6 OFFCURVE",
"151 77 CURVE SMOOTH",
"177 188 OFFCURVE",
"213 329 OFFCURVE",
"237 403 CURVE SMOOTH",
"254 456 OFFCURVE",
"276 470 OFFCURVE",
"347 474 CURVE SMOOTH",
"432 479 OFFCURVE",
"563 485 OFFCURVE",
"682 485 CURVE SMOOTH",
"799 485 OFFCURVE",
"968 472 OFFCURVE",
"1018 468 CURVE SMOOTH",
"1085 463 OFFCURVE",
"1102 446 OFFCURVE",
"1113 401 CURVE SMOOTH",
"1129 337 OFFCURVE",
"1177 131 OFFCURVE",
"1202 34 CURVE SMOOTH",
"1213 -10 OFFCURVE",
"1226 -40 OFFCURVE",
"1249 -40 CURVE SMOOTH"
);
},
{
closed = 1;
nodes = (
"918 539 OFFCURVE",
"733 547 OFFCURVE",
"397 547 CURVE SMOOTH",
"313 547 OFFCURVE",
"296 556 OFFCURVE",
"296 590 CURVE SMOOTH",
"296 672 OFFCURVE",
"380 851 OFFCURVE",
"443 956 CURVE SMOOTH",
"518 1081 OFFCURVE",
"610 1160 OFFCURVE",
"706 1160 CURVE SMOOTH",
"805 1160 OFFCURVE",
"889 1068 OFFCURVE",
"952 948 CURVE SMOOTH",
"1017 823 OFFCURVE",
"1064 666 OFFCURVE",
"1064 588 CURVE SMOOTH",
"1064 552 OFFCURVE",
"1054 539 OFFCURVE",
"1024 539 CURVE SMOOTH"
);
}
);
width = 1339;
}
);
leftKerningGroup = A;
rightKerningGroup = A;
unicode = 0104;
},
{
color = 3;
glyphname = AE;
lastChange = "2021-04-22 10:35:34 +0000";
layers = (
{
anchors = (
{
name = bottom;
position = "{1034, 0}";
},
{
name = ogonek;
position = "{1401, 17}";
},
{
name = top;
position = "{1322, 1250}";
}
);
components = (
{
alignment = -1;
name = E;
transform = "{1, 0, 0, 1, 917, 33}";
}
);
layerId = "307B7D8E-54CC-4996-A0B0-7E3456408354";
paths = (
{
closed = 1;
nodes = (
"203 -25 OFFCURVE",
"306 13 OFFCURVE",
"404 70 CURVE SMOOTH",
"498 125 OFFCURVE",
"623 267 OFFCURVE",
"700 267 CURVE SMOOTH",
"764 267 OFFCURVE",
"908 250 OFFCURVE",
"1026 250 CURVE SMOOTH",
"1289 250 OFFCURVE",
"1410 356 OFFCURVE",
"1410 428 CURVE SMOOTH",
"1410 863 OFFCURVE",
"1386 1195 OFFCURVE",
"1052 1195 CURVE SMOOTH",
"828 1195 OFFCURVE",
"541 1006 OFFCURVE",
"314 765 CURVE SMOOTH",
"158 600 OFFCURVE",
"-16 271 OFFCURVE",
"-16 87 CURVE SMOOTH",
"-16 6 OFFCURVE",
"35 -25 OFFCURVE",
"120 -25 CURVE SMOOTH"
);
},
{
closed = 1;
nodes = (
"839 570 OFFCURVE",
"812 573 OFFCURVE",
"812 622 CURVE SMOOTH",
"812 683 OFFCURVE",
"854 777 OFFCURVE",
"939 777 CURVE SMOOTH",
"1019 777 OFFCURVE",
"1024 705 OFFCURVE",
"1024 627 CURVE SMOOTH",
"1024 586 OFFCURVE",
"954 570 OFFCURVE",
"892 570 CURVE SMOOTH"
);
}
);
width = 2071;
},
{
anchors = (
{
name = bottom;
position = "{1041, 0}";
},
{
name = ogonek;
position = "{1341, 17}";
},
{
name = top;
position = "{1329, 1250}";
}
);
components = (
{
alignment = -1;
name = E;
transform = "{1, 0, 0, 1, 1043, 33}";
}
);
layerId = "AE979D1C-FDDA-49FD-8CD9-3E2A42843A18";
paths = (
{
closed = 1;
nodes = (
"21 -17 OFFCURVE",
"33 0 OFFCURVE",
"189 232 CURVE SMOOTH",
"274 360 OFFCURVE",
"352 470 OFFCURVE",
"420 470 CURVE SMOOTH",
"650 470 OFFCURVE",
"959 459 OFFCURVE",
"1152 459 CURVE SMOOTH",
"1197 459 OFFCURVE",
"1233 523 OFFCURVE",
"1233 625 CURVE SMOOTH",
"1233 1022 OFFCURVE",
"1230 1218 OFFCURVE",
"1080 1218 CURVE SMOOTH",
"833 1218 OFFCURVE",
"607 957 OFFCURVE",
"383 644 CURVE SMOOTH",
"274 492 OFFCURVE",
"-26 57 OFFCURVE",
"-26 0 CURVE SMOOTH",
"-26 -14 OFFCURVE",
"-18 -17 OFFCURVE",
"-8 -17 CURVE SMOOTH"
);
},
{
closed = 1;
nodes = (
"444 527 OFFCURVE",
"436 529 OFFCURVE",
"436 560 CURVE SMOOTH",
"436 677 OFFCURVE",
"860 1160 OFFCURVE",
"1069 1160 CURVE SMOOTH",
"1141 1160 OFFCURVE",
"1160 1049 OFFCURVE",
"1160 587 CURVE SMOOTH",
"1160 531 OFFCURVE",
"1135 527 OFFCURVE",
"778 527 CURVE SMOOTH"
);
}
);
width = 2134;
},
{
anchors = (
{
name = bottom;
position = "{1208, 0}";
},
{
name = ogonek;
position = "{1499, 17}";
},
{
name = top;
position = "{991, 1250}";
}
);
components = (
{
alignment = -1;
name = E;
transform = "{1, 0, 0, 1, 1011, 33}";
}
);
layerId = "A5079BDB-9783-4F5E-864F-267B8C6F09C1";
paths = (
{
closed = 1;
nodes = (
"214 -17 OFFCURVE",
"221 0 OFFCURVE",
"269 232 CURVE SMOOTH",
"296 360 OFFCURVE",
"322 470 OFFCURVE",
"390 470 CURVE SMOOTH",
"620 470 OFFCURVE",
"947 459 OFFCURVE",
"1140 459 CURVE SMOOTH",
"1152 459 OFFCURVE",
"1156 469 OFFCURVE",
"1156 487 CURVE SMOOTH",
"1156 776 OFFCURVE",
"953 1218 OFFCURVE",
"732 1218 CURVE SMOOTH",
"485 1218 OFFCURVE",
"353 957 OFFCURVE",
"273 644 CURVE SMOOTH",
"237 503 OFFCURVE",
"164 121 OFFCURVE",
"164 21 CURVE SMOOTH",
"164 0 OFFCURVE",
"168 -17 OFFCURVE",
"185 -17 CURVE SMOOTH"
);
},
{
closed = 1;
nodes = (
"477 527 OFFCURVE",
"341 529 OFFCURVE",
"341 594 CURVE SMOOTH",
"341 761 OFFCURVE",
"532 1160 OFFCURVE",
"726 1160 CURVE SMOOTH",
"902 1160 OFFCURVE",
"1057 803 OFFCURVE",
"1057 557 CURVE SMOOTH",
"1057 529 OFFCURVE",
"1037 527 OFFCURVE",
"722 527 CURVE SMOOTH"
);
}
);
width = 2154;
},
{
anchors = (
{
name = bottom;
position = "{1222, 0}";
},
{
name = ogonek;
position = "{1580, 17}";
},
{
name = top;
position = "{947, 1250}";
}
);
components = (
{
alignment = -1;
name = E;
transform = "{1, 0, 0, 1, 907, 33}";
}
);
layerId = "AE80B40C-E5A8-4B5C-A94B-22B98FE5A19F";
paths = (
{
closed = 1;
nodes = (
"406 -25 OFFCURVE",
"492 12 OFFCURVE",
"563 70 CURVE SMOOTH",
"631 126 OFFCURVE",
"690 267 OFFCURVE",
"767 267 CURVE SMOOTH",
"831 267 OFFCURVE",
"983 250 OFFCURVE",
"1101 250 CURVE SMOOTH",
"1338 250 OFFCURVE",
"1419 313 OFFCURVE",
"1419 377 CURVE SMOOTH",
"1419 754 OFFCURVE",
"1096 1195 OFFCURVE",
"741 1195 CURVE SMOOTH",
"517 1195 OFFCURVE",
"320 1006 OFFCURVE",
"202 765 CURVE SMOOTH",
"133 624 OFFCURVE",
"94 466 OFFCURVE",
"94 317 CURVE SMOOTH",
"94 119 OFFCURVE",
"148 -25 OFFCURVE",
"323 -25 CURVE SMOOTH"
);
},
{
closed = 1;
nodes = (
"752 570 OFFCURVE",
"715 573 OFFCURVE",
"715 622 CURVE SMOOTH",
"715 683 OFFCURVE",
"721 777 OFFCURVE",
"806 777 CURVE SMOOTH",
"886 777 OFFCURVE",
"933 667 OFFCURVE",
"933 613 CURVE SMOOTH",
"933 572 OFFCURVE",
"857 570 OFFCURVE",
"805 570 CURVE SMOOTH"
);
}
);
width = 2086;
},
{
anchors = (
{
name = bottom;
position = "{1114, 0}";
},
{
name = ogonek;
position = "{1477, 17}";
},
{
name = top;
position = "{1114, 1250}";
}
);
components = (
{
alignment = -1;
name = E;
transform = "{1, 0, 0, 1, 914, 33}";
}
);
layerId = "6282282A-FA3F-4DEE-9DB6-5D5B2A6C152F";
paths = (
{
closed = 1;
nodes = (
"302 -25 OFFCURVE",
"396 13 OFFCURVE",
"481 70 CURVE SMOOTH",
"562 125 OFFCURVE",
"654 267 OFFCURVE",
"731 267 CURVE SMOOTH",
"795 267 OFFCURVE",
"943 250 OFFCURVE",
"1061 250 CURVE SMOOTH",
"1324 250 OFFCURVE",
"1411 328 OFFCURVE",
"1411 398 CURVE SMOOTH",
"1411 821 OFFCURVE",
"1340 1195 OFFCURVE",
"919 1195 CURVE SMOOTH",
"695 1195 OFFCURVE",
"452 1006 OFFCURVE",
"280 765 CURVE SMOOTH",
"142 572 OFFCURVE",
"50 346 OFFCURVE",
"50 156 CURVE SMOOTH",
"50 23 OFFCURVE",
"113 -25 OFFCURVE",
"219 -25 CURVE SMOOTH"
);
},
{
closed = 1;
nodes = (
"786 570 OFFCURVE",
"761 574 OFFCURVE",
"761 622 CURVE SMOOTH",
"761 683 OFFCURVE",
"802 777 OFFCURVE",
"887 777 CURVE SMOOTH",
"967 777 OFFCURVE",
"976 667 OFFCURVE",
"976 613 CURVE SMOOTH",
"976 573 OFFCURVE",
"891 570 OFFCURVE",
"839 570 CURVE SMOOTH"
);
}
);
width = 2088;
},
{
anchors = (
{
name = bottom;
position = "{1115, 0}";
},
{
name = ogonek;
position = "{1411, 17}";
},
{
name = top;
position = "{1115, 1250}";
}
);
components = (
{
alignment = -1;
name = E;
transform = "{1, 0, 0, 1, 1033, 33}";
}
);
layerId = "4C364951-5780-4BC6-AB35-57CC8C56127C";
paths = (
{
closed = 1;
nodes = (
"114 -17 OFFCURVE",
"125 0 OFFCURVE",
"227 232 CURVE SMOOTH",
"283 360 OFFCURVE",
"335 470 OFFCURVE",
"403 470 CURVE SMOOTH",
"633 470 OFFCURVE",
"957 459 OFFCURVE",
"1150 459 CURVE SMOOTH",
"1179 459 OFFCURVE",
"1180 522 OFFCURVE",
"1180 625 CURVE SMOOTH",
"1180 876 OFFCURVE",
"1145 1218 OFFCURVE",
"908 1218 CURVE SMOOTH",
"661 1218 OFFCURVE",
"478 957 OFFCURVE",
"326 644 CURVE SMOOTH",
"252 492 OFFCURVE",
"70 60 OFFCURVE",
"70 3 CURVE SMOOTH",
"70 -11 OFFCURVE",
"75 -17 OFFCURVE",
"85 -17 CURVE SMOOTH"
);
},
{
closed = 1;
nodes = (
"414 527 OFFCURVE",
"378 530 OFFCURVE",
"378 560 CURVE SMOOTH",
"378 699 OFFCURVE",
"689 1160 OFFCURVE",
"898 1160 CURVE SMOOTH",
"1092 1160 OFFCURVE",
"1123 818 OFFCURVE",
"1123 556 CURVE SMOOTH",
"1123 527 OFFCURVE",
"1105 527 OFFCURVE",
"748 527 CURVE SMOOTH"
);
}
);
width = 2148;
}
);
leftKerningGroup = A;
leftMetricsKey = A;
rightKerningGroup = E;
rightMetricsKey = E;
unicode = 00C6;
},
{
color = 6;
glyphname = B;
lastChange = "2021-04-22 10:35:34 +0000";
layers = (
{
anchors = (
{
name = bottom;
position = "{661, 0}";
},
{
name = top;
position = "{929, 1167}";
}
);
layerId = "307B7D8E-54CC-4996-A0B0-7E3456408354";
paths = (
{
closed = 1;
nodes = (
"714 -70 OFFCURVE",
"1046 -18 OFFCURVE",
"1183 80 CURVE SMOOTH",
"1278 148 OFFCURVE",
"1339 233 OFFCURVE",
"1339 380 CURVE SMOOTH",
"1339 488 OFFCURVE",
"1274 571 OFFCURVE",
"1169 602 CURVE SMOOTH",
"1125 615 OFFCURVE",
"1093 626 OFFCURVE",
"1093 637 CURVE SMOOTH",
"1093 647 OFFCURVE",
"1140 673 OFFCURVE",
"1179 693 CURVE SMOOTH",
"1263 736 OFFCURVE",
"1336 818 OFFCURVE",
"1336 938 CURVE SMOOTH",
"1336 1137 OFFCURVE",
"1076 1190 OFFCURVE",
"838 1190 CURVE SMOOTH",
"423 1190 OFFCURVE",
"221 1065 OFFCURVE",
"128 667 CURVE SMOOTH",
"98 540 OFFCURVE",
"54 263 OFFCURVE",
"54 150 CURVE SMOOTH",
"54 -53 OFFCURVE",
"186 -70 OFFCURVE",
"499 -70 CURVE SMOOTH"
);
},
{
closed = 1;
nodes = (
"606 283 OFFCURVE",
"596 310 OFFCURVE",
"596 333 CURVE SMOOTH",
"596 403 OFFCURVE",
"658 420 OFFCURVE",
"721 420 CURVE SMOOTH",
"771 420 OFFCURVE",
"836 407 OFFCURVE",
"836 363 CURVE SMOOTH",
"836 303 OFFCURVE",
"709 283 OFFCURVE",
"641 283 CURVE SMOOTH"
);
},
{
closed = 1;
nodes = (
"686 752 OFFCURVE",
"673 768 OFFCURVE",
"673 800 CURVE SMOOTH",
"673 820 OFFCURVE",
"678 863 OFFCURVE",
"694 887 CURVE SMOOTH",
"706 906 OFFCURVE",
"734 913 OFFCURVE",
"764 913 CURVE SMOOTH",
"826 913 OFFCURVE",
"899 887 OFFCURVE",
"899 845 CURVE SMOOTH",
"899 820 OFFCURVE",
"871 797 OFFCURVE",
"834 782 CURVE SMOOTH",
"793 765 OFFCURVE",
"751 752 OFFCURVE",
"719 752 CURVE SMOOTH"
);
}
);
width = 1384;
},
{
anchors = (
{
name = bottom;
position = "{570, 0}";
},
{
name = top;
position = "{838, 1167}";
}
);
layerId = "AE979D1C-FDDA-49FD-8CD9-3E2A42843A18";
paths = (
{
closed = 1;
nodes = (
"530 -40 OFFCURVE",
"753 3 OFFCURVE",
"878 77 CURVE SMOOTH",
"988 142 OFFCURVE",
"1088 250 OFFCURVE",
"1088 382 CURVE SMOOTH",
"1088 483 OFFCURVE",
"1015 538 OFFCURVE",
"895 572 CURVE SMOOTH",
"813 595 OFFCURVE",
"755 603 OFFCURVE",
"755 608 CURVE SMOOTH",
"755 615 OFFCURVE",
"788 618 OFFCURVE",
"841 637 CURVE SMOOTH",
"977 686 OFFCURVE",
"1108 803 OFFCURVE",
"1108 960 CURVE SMOOTH",
"1108 1128 OFFCURVE",
"935 1207 OFFCURVE",
"733 1207 CURVE SMOOTH",
"480 1207 OFFCURVE",
"326 1140 OFFCURVE",
"256 948 CURVE SMOOTH",
"196 782 OFFCURVE",
"31 247 OFFCURVE",
"31 115 CURVE SMOOTH",
"31 -8 OFFCURVE",
"108 -40 OFFCURVE",
"315 -40 CURVE SMOOTH"
);
},
{
closed = 1;
nodes = (
"158 23 OFFCURVE",
"106 45 OFFCURVE",
"106 135 CURVE SMOOTH",
"106 310 OFFCURVE",
"196 578 OFFCURVE",
"265 578 CURVE SMOOTH",
"540 578 OFFCURVE",
"1023 578 OFFCURVE",
"1023 375 CURVE SMOOTH",
"1023 123 OFFCURVE",
"643 23 OFFCURVE",
"306 23 CURVE SMOOTH"
);
},
{
closed = 1;
nodes = (
"248 630 OFFCURVE",
"235 640 OFFCURVE",
"235 670 CURVE SMOOTH",
"235 730 OFFCURVE",
"318 962 OFFCURVE",
"361 1023 CURVE SMOOTH",
"418 1105 OFFCURVE",
"565 1152 OFFCURVE",
"708 1152 CURVE SMOOTH",
"881 1152 OFFCURVE",
"1045 1088 OFFCURVE",
"1045 955 CURVE SMOOTH",
"1045 805 OFFCURVE",
"931 702 OFFCURVE",
"761 663 CURVE SMOOTH",
"630 633 OFFCURVE",
"503 630 OFFCURVE",
"273 630 CURVE SMOOTH"
);
}
);
width = 1160;
},
{
anchors = (
{
name = bottom;
position = "{778, 0}";
},
{
name = top;
position = "{465, 1167}";
}
);
layerId = "A5079BDB-9783-4F5E-864F-267B8C6F09C1";
paths = (
{
closed = 1;
nodes = (
"740 -40 OFFCURVE",
"945 2 OFFCURVE",
"1030 78 CURVE SMOOTH",
"1080 123 OFFCURVE",
"1128 195 OFFCURVE",
"1128 275 CURVE SMOOTH",
"1128 432 OFFCURVE",
"1000 525 OFFCURVE",
"825 572 CURVE SMOOTH",
"730 597 OFFCURVE",
"668 603 OFFCURVE",
"668 608 CURVE SMOOTH",
"668 615 OFFCURVE",
"695 618 OFFCURVE",
"742 637 CURVE SMOOTH",
"805 662 OFFCURVE",
"887 728 OFFCURVE",
"887 837 CURVE SMOOTH",
"887 1068 OFFCURVE",
"632 1207 OFFCURVE",
"370 1207 CURVE SMOOTH",
"130 1207 OFFCURVE",
"8 1147 OFFCURVE",
"8 978 CURVE SMOOTH",
"8 873 OFFCURVE",
"87 430 OFFCURVE",
"128 252 CURVE SMOOTH",
"183 15 OFFCURVE",
"257 -40 OFFCURVE",
"525 -40 CURVE SMOOTH"
);
},
{
closed = 1;
nodes = (
"212 23 OFFCURVE",
"154 327 OFFCURVE",
"154 518 CURVE SMOOTH",
"154 558 OFFCURVE",
"168 578 OFFCURVE",
"203 578 CURVE SMOOTH",
"503 578 OFFCURVE",
"1065 575 OFFCURVE",
"1065 278 CURVE SMOOTH",
"1065 105 OFFCURVE",
"910 23 OFFCURVE",
"452 23 CURVE SMOOTH"
);
},
{
closed = 1;
nodes = (
"132 630 OFFCURVE",
"119 655 OFFCURVE",
"110 695 CURVE SMOOTH",
"94 770 OFFCURVE",
"73 895 OFFCURVE",
"73 973 CURVE SMOOTH",
"73 1107 OFFCURVE",
"198 1152 OFFCURVE",
"348 1152 CURVE SMOOTH",
"567 1152 OFFCURVE",
"822 1063 OFFCURVE",
"822 842 CURVE SMOOTH",
"822 740 OFFCURVE",
"755 693 OFFCURVE",
"648 663 CURVE SMOOTH",
"531 630 OFFCURVE",
"388 630 OFFCURVE",
"158 630 CURVE SMOOTH"
);
}
);
width = 1187;
},
{
anchors = (
{
name = bottom;
position = "{861, 0}";
},
{
name = top;
position = "{547, 1167}";
}
);
layerId = "AE80B40C-E5A8-4B5C-A94B-22B98FE5A19F";
paths = (
{
closed = 1;
nodes = (
"939 -70 OFFCURVE",
"1254 -22 OFFCURVE",
"1337 80 CURVE SMOOTH",
"1372 122 OFFCURVE",
"1391 178 OFFCURVE",
"1391 238 CURVE SMOOTH",
"1391 403 OFFCURVE",
"1263 558 OFFCURVE",
"1084 602 CURVE SMOOTH",
"1035 614 OFFCURVE",
"995 630 OFFCURVE",
"995 640 CURVE SMOOTH",
"995 652 OFFCURVE",
"1019 669 OFFCURVE",
"1054 686 CURVE SMOOTH",
"1106 712 OFFCURVE",
"1139 765 OFFCURVE",
"1139 873 CURVE SMOOTH",
"1139 1131 OFFCURVE",
"746 1190 OFFCURVE",
"482 1190 CURVE SMOOTH",
"147 1190 OFFCURVE",
"-14 1108 OFFCURVE",
"-14 867 CURVE SMOOTH",
"-14 698 OFFCURVE",
"81 402 OFFCURVE",
"157 200 CURVE SMOOTH",
"251 -50 OFFCURVE",
"386 -70 OFFCURVE",
"724 -70 CURVE SMOOTH"
);
},
{
closed = 1;
nodes = (
"661 283 OFFCURVE",
"626 332 OFFCURVE",
"626 373 CURVE SMOOTH",
"626 418 OFFCURVE",
"687 420 OFFCURVE",
"719 420 CURVE SMOOTH",
"769 420 OFFCURVE",
"861 407 OFFCURVE",
"861 363 CURVE SMOOTH",
"861 303 OFFCURVE",
"771 283 OFFCURVE",
"702 283 CURVE SMOOTH"
);
},
{
closed = 1;
nodes = (
"517 752 OFFCURVE",
"496 783 OFFCURVE",
"482 843 CURVE SMOOTH",
"479 855 OFFCURVE",
"477 867 OFFCURVE",
"477 877 CURVE SMOOTH",
"477 903 OFFCURVE",
"506 913 OFFCURVE",
"536 913 CURVE SMOOTH",
"604 913 OFFCURVE",
"706 880 OFFCURVE",
"706 830 CURVE SMOOTH",
"706 810 OFFCURVE",
"689 793 OFFCURVE",
"666 782 CURVE SMOOTH",
"632 765 OFFCURVE",
"596 752 OFFCURVE",
"564 752 CURVE SMOOTH"
);
}
);
width = 1402;
},
{
anchors = (
{
name = bottom;
position = "{753, 0}";
},
{
name = top;
position = "{753, 1167}";
}
);
layerId = "6282282A-FA3F-4DEE-9DB6-5D5B2A6C152F";
paths = (
{
closed = 1;
nodes = (
"866 -80 OFFCURVE",
"1151 -22 OFFCURVE",
"1260 80 CURVE SMOOTH",
"1321 138 OFFCURVE",
"1356 223 OFFCURVE",
"1356 308 CURVE SMOOTH",
"1356 455 OFFCURVE",
"1261 560 OFFCURVE",
"1126 602 CURVE SMOOTH",
"1083 615 OFFCURVE",
"1056 624 OFFCURVE",
"1056 633 CURVE SMOOTH",
"1056 643 OFFCURVE",
"1090 660 OFFCURVE",
"1136 683 CURVE SMOOTH",
"1191 711 OFFCURVE",
"1243 755 OFFCURVE",
"1243 873 CURVE SMOOTH",
"1243 1125 OFFCURVE",
"923 1190 OFFCURVE",
"660 1190 CURVE SMOOTH",
"245 1190 OFFCURVE",
"70 1065 OFFCURVE",
"70 667 CURVE SMOOTH",
"70 517 OFFCURVE",
"86 337 OFFCURVE",
"106 200 CURVE SMOOTH",
"143 -50 OFFCURVE",
"313 -80 OFFCURVE",
"651 -80 CURVE SMOOTH"
);
},
{
closed = 1;
nodes = (
"625 283 OFFCURVE",
"613 332 OFFCURVE",
"613 357 CURVE SMOOTH",
"613 418 OFFCURVE",
"685 420 OFFCURVE",
"720 420 CURVE SMOOTH",
"770 420 OFFCURVE",
"848 405 OFFCURVE",
"848 363 CURVE SMOOTH",
"848 303 OFFCURVE",
"740 283 OFFCURVE",
"671 283 CURVE SMOOTH"
);
},
{
closed = 1;
nodes = (
"595 752 OFFCURVE",
"580 783 OFFCURVE",
"580 843 CURVE SMOOTH",
"580 860 OFFCURVE",
"581 877 OFFCURVE",
"586 887 CURVE SMOOTH",
"595 905 OFFCURVE",
"620 913 OFFCURVE",
"650 913 CURVE SMOOTH",
"715 913 OFFCURVE",
"801 883 OFFCURVE",
"801 837 CURVE SMOOTH",
"801 815 OFFCURVE",
"780 795 OFFCURVE",
"750 782 CURVE SMOOTH",
"711 765 OFFCURVE",
"673 752 OFFCURVE",
"641 752 CURVE SMOOTH"
);
}
);
width = 1401;
},
{
anchors = (
{
name = bottom;
position = "{662, 0}";
},
{
name = top;
position = "{662, 1167}";
}
);
layerId = "4C364951-5780-4BC6-AB35-57CC8C56127C";
paths = (
{
closed = 1;
nodes = (
"635 -40 OFFCURVE",
"853 2 OFFCURVE",
"957 78 CURVE SMOOTH",
"1029 130 OFFCURVE",
"1102 223 OFFCURVE",
"1102 322 CURVE SMOOTH",
"1102 462 OFFCURVE",
"1010 530 OFFCURVE",
"860 572 CURVE SMOOTH",
"772 597 OFFCURVE",
"702 600 OFFCURVE",
"702 608 CURVE SMOOTH",
"702 615 OFFCURVE",
"742 620 OFFCURVE",
"792 637 CURVE SMOOTH",
"872 664 OFFCURVE",
"990 750 OFFCURVE",
"990 893 CURVE SMOOTH",
"990 1108 OFFCURVE",
"778 1207 OFFCURVE",
"552 1207 CURVE SMOOTH",
"298 1207 OFFCURVE",
"160 1140 OFFCURVE",
"133 948 CURVE SMOOTH",
"113 807 OFFCURVE",
"90 417 OFFCURVE",
"90 252 CURVE SMOOTH",
"90 15 OFFCURVE",
"152 -40 OFFCURVE",
"420 -40 CURVE SMOOTH"
);
},
{
closed = 1;
nodes = (
"177 23 OFFCURVE",
"160 72 OFFCURVE",
"160 322 CURVE SMOOTH",
"160 523 OFFCURVE",
"168 578 OFFCURVE",
"222 578 CURVE SMOOTH",
"510 578 OFFCURVE",
"1043 570 OFFCURVE",
"1043 333 CURVE SMOOTH",
"1043 127 OFFCURVE",
"798 23 OFFCURVE",
"398 23 CURVE SMOOTH"
);
},
{
closed = 1;
nodes = (
"180 630 OFFCURVE",
"173 655 OFFCURVE",
"173 695 CURVE SMOOTH",
"173 790 OFFCURVE",
"190 963 OFFCURVE",
"218 1023 CURVE SMOOTH",
"257 1105 OFFCURVE",
"387 1152 OFFCURVE",
"530 1152 CURVE SMOOTH",
"722 1152 OFFCURVE",
"927 1075 OFFCURVE",
"927 912 CURVE SMOOTH",
"927 760 OFFCURVE",
"842 697 OFFCURVE",
"705 663 CURVE SMOOTH",
"581 632 OFFCURVE",
"437 630 OFFCURVE",
"207 630 CURVE SMOOTH"
);
}
);
width = 1177;
}
);
leftKerningGroup = H;
leftMetricsKey = H;
rightKerningGroup = B;
unicode = 0042;
},
{
color = 6;
glyphname = C;
lastChange = "2021-04-22 10:35:34 +0000";
layers = (
{
anchors = (
{
name = bottom;
position = "{751, 33}";
},
{
name = top;
position = "{863, 1167}";
}
);
layerId = "307B7D8E-54CC-4996-A0B0-7E3456408354";
paths = (
{
closed = 1;
nodes = (
"888 -75 OFFCURVE",
"1218 27 OFFCURVE",
"1218 312 CURVE SMOOTH",
"1218 389 OFFCURVE",
"1173 437 OFFCURVE",
"1049 437 CURVE SMOOTH",
"956 437 OFFCURVE",
"870 396 OFFCURVE",
"821 396 CURVE SMOOTH",
"747 396 OFFCURVE",
"723 431 OFFCURVE",
"723 486 CURVE SMOOTH",
"723 600 OFFCURVE",
"796 784 OFFCURVE",
"898 784 CURVE SMOOTH",
"954 784 OFFCURVE",
"995 771 OFFCURVE",
"1093 771 CURVE SMOOTH",
"1212 771 OFFCURVE",
"1298 868 OFFCURVE",
"1298 984 CURVE SMOOTH",
"1298 1123 OFFCURVE",
"1128 1185 OFFCURVE",
"953 1185 CURVE SMOOTH",
"463 1185 OFFCURVE",
"57 829 OFFCURVE",
"57 351 CURVE SMOOTH",
"57 77 OFFCURVE",
"251 -75 OFFCURVE",
"574 -75 CURVE SMOOTH"
);
}
);
width = 1300;
},
{
anchors = (
{
name = bottom;
position = "{592, -50}";
},
{
name = top;
position = "{788, 1167}";
}
);
layerId = "AE979D1C-FDDA-49FD-8CD9-3E2A42843A18";
paths = (
{
closed = 1;
nodes = (
"812 -58 OFFCURVE",
"995 93 OFFCURVE",
"995 158 CURVE SMOOTH",
"995 172 OFFCURVE",
"988 175 OFFCURVE",
"975 175 CURVE SMOOTH",
"915 175 OFFCURVE",
"812 0 OFFCURVE",
"543 0 CURVE SMOOTH",
"273 0 OFFCURVE",
"165 178 OFFCURVE",
"165 400 CURVE SMOOTH",
"165 782 OFFCURVE",
"447 1123 OFFCURVE",
"818 1123 CURVE SMOOTH",
"1120 1123 OFFCURVE",
"1112 1005 OFFCURVE",
"1160 1005 CURVE SMOOTH",
"1172 1005 OFFCURVE",
"1193 1010 OFFCURVE",
"1193 1030 CURVE SMOOTH",
"1193 1080 OFFCURVE",
"1070 1185 OFFCURVE",
"848 1185 CURVE SMOOTH",
"398 1185 OFFCURVE",
"88 838 OFFCURVE",
"88 388 CURVE SMOOTH",
"88 125 OFFCURVE",
"235 -58 OFFCURVE",
"545 -58 CURVE SMOOTH"
);
}
);
width = 1133;
},
{
anchors = (
{
name = bottom;
position = "{818, -50}";
},
{
name = top;
position = "{408, 1167}";
}
);
layerId = "A5079BDB-9783-4F5E-864F-267B8C6F09C1";
paths = (
{
closed = 1;
nodes = (
"997 -58 OFFCURVE",
"1117 93 OFFCURVE",
"1117 145 CURVE SMOOTH",
"1117 168 OFFCURVE",
"1103 175 OFFCURVE",
"1085 175 CURVE SMOOTH",
"1025 175 OFFCURVE",
"1002 0 OFFCURVE",
"733 0 CURVE SMOOTH",
"372 0 OFFCURVE",
"102 325 OFFCURVE",
"102 700 CURVE SMOOTH",
"102 982 OFFCURVE",
"278 1123 OFFCURVE",
"483 1123 CURVE SMOOTH",
"782 1123 OFFCURVE",
"838 1005 OFFCURVE",
"887 1005 CURVE SMOOTH",
"892 1005 OFFCURVE",
"910 1008 OFFCURVE",
"910 1022 CURVE SMOOTH",
"910 1097 OFFCURVE",
"675 1185 OFFCURVE",
"520 1185 CURVE SMOOTH",
"188 1185 OFFCURVE",
"27 995 OFFCURVE",
"27 717 CURVE SMOOTH",
"27 282 OFFCURVE",
"297 -58 OFFCURVE",
"732 -58 CURVE SMOOTH"
);
}
);
width = 1153;
},
{
anchors = (
{
name = bottom;
position = "{928, 33}";
},
{
name = top;
position = "{473, 1167}";
}
);
layerId = "AE80B40C-E5A8-4B5C-A94B-22B98FE5A19F";
paths = (
{
closed = 1;
nodes = (
"1072 -75 OFFCURVE",
"1303 -10 OFFCURVE",
"1303 173 CURVE SMOOTH",
"1303 330 OFFCURVE",
"1203 437 OFFCURVE",
"1037 437 CURVE SMOOTH",
"944 437 OFFCURVE",
"880 396 OFFCURVE",
"831 396 CURVE SMOOTH",
"705 396 OFFCURVE",
"640 533 OFFCURVE",
"640 680 CURVE SMOOTH",
"640 745 OFFCURVE",
"664 784 OFFCURVE",
"714 784 CURVE SMOOTH",
"770 784 OFFCURVE",
"817 771 OFFCURVE",
"915 771 CURVE SMOOTH",
"993 771 OFFCURVE",
"1036 812 OFFCURVE",
"1036 888 CURVE SMOOTH",
"1036 1091 OFFCURVE",
"813 1185 OFFCURVE",
"599 1185 CURVE SMOOTH",
"228 1185 OFFCURVE",
"13 991 OFFCURVE",
"13 674 CURVE SMOOTH",
"13 223 OFFCURVE",
"342 -75 OFFCURVE",
"808 -75 CURVE SMOOTH"
);
}
);
width = 1310;
},
{
anchors = (
{
name = bottom;
position = "{829, 33}";
},
{
name = top;
position = "{679, 1167}";
}
);
layerId = "6282282A-FA3F-4DEE-9DB6-5D5B2A6C152F";
paths = (
{
closed = 1;
nodes = (
"974 -75 OFFCURVE",
"1247 5 OFFCURVE",
"1247 237 CURVE SMOOTH",
"1247 357 OFFCURVE",
"1199 437 OFFCURVE",
"1039 437 CURVE SMOOTH",
"946 437 OFFCURVE",
"871 396 OFFCURVE",
"822 396 CURVE SMOOTH",
"711 396 OFFCURVE",
"692 475 OFFCURVE",
"692 578 CURVE SMOOTH",
"692 702 OFFCURVE",
"730 784 OFFCURVE",
"802 784 CURVE SMOOTH",
"858 784 OFFCURVE",
"902 771 OFFCURVE",
"1000 771 CURVE SMOOTH",
"1098 771 OFFCURVE",
"1157 836 OFFCURVE",
"1157 954 CURVE SMOOTH",
"1157 1111 OFFCURVE",
"974 1185 OFFCURVE",
"787 1185 CURVE SMOOTH",
"340 1185 OFFCURVE",
"50 903 OFFCURVE",
"50 465 CURVE SMOOTH",
"50 110 OFFCURVE",
"317 -75 OFFCURVE",
"682 -75 CURVE SMOOTH"
);
}
);
width = 1309;
},
{
anchors = (
{
name = bottom;
position = "{688, -50}";
},
{
name = top;
position = "{605, 1167}";
}
);
layerId = "4C364951-5780-4BC6-AB35-57CC8C56127C";
paths = (
{
closed = 1;
nodes = (
"907 -58 OFFCURVE",
"1052 93 OFFCURVE",
"1052 145 CURVE SMOOTH",
"1052 168 OFFCURVE",
"1045 175 OFFCURVE",
"1027 175 CURVE SMOOTH",
"967 175 OFFCURVE",
"903 0 OFFCURVE",
"635 0 CURVE SMOOTH",
"308 0 OFFCURVE",
"145 263 OFFCURVE",
"145 548 CURVE SMOOTH",
"145 930 OFFCURVE",
"410 1123 OFFCURVE",
"650 1123 CURVE SMOOTH",
"952 1123 OFFCURVE",
"973 1005 OFFCURVE",
"1020 1005 CURVE SMOOTH",
"1031 1005 OFFCURVE",
"1048 1008 OFFCURVE",
"1048 1025 CURVE SMOOTH",
"1048 1072 OFFCURVE",
"910 1185 OFFCURVE",
"680 1185 CURVE SMOOTH",
"280 1185 OFFCURVE",
"70 908 OFFCURVE",
"70 535 CURVE SMOOTH",
"70 180 OFFCURVE",
"277 -58 OFFCURVE",
"642 -58 CURVE SMOOTH"
);
}
);
width = 1143;
}
);
leftKerningGroup = O;
leftMetricsKey = O;
rightKerningGroup = C;
unicode = 0043;
},
{
color = 3;
glyphname = Ccedilla;
lastChange = "2021-04-22 10:35:34 +0000";
layers = (
{
components = (
{
name = cedillacomb;
transform = "{1, 0, 0, 1, 343, 15}";
}
);
layerId = "307B7D8E-54CC-4996-A0B0-7E3456408354";
paths = (
{
closed = 1;
nodes = (
"888 -45 OFFCURVE",
"1218 27 OFFCURVE",
"1218 312 CURVE SMOOTH",
"1218 389 OFFCURVE",
"1173 437 OFFCURVE",
"1049 437 CURVE SMOOTH",
"956 437 OFFCURVE",
"870 396 OFFCURVE",
"821 396 CURVE SMOOTH",
"747 396 OFFCURVE",
"723 431 OFFCURVE",
"723 486 CURVE SMOOTH",
"723 600 OFFCURVE",
"796 784 OFFCURVE",
"898 784 CURVE SMOOTH",
"954 784 OFFCURVE",
"995 771 OFFCURVE",
"1093 771 CURVE SMOOTH",
"1212 771 OFFCURVE",
"1298 868 OFFCURVE",
"1298 984 CURVE SMOOTH",
"1298 1123 OFFCURVE",
"1128 1185 OFFCURVE",
"953 1185 CURVE SMOOTH",
"463 1185 OFFCURVE",
"57 829 OFFCURVE",
"57 351 CURVE SMOOTH",
"57 77 OFFCURVE",
"251 -45 OFFCURVE",
"574 -45 CURVE SMOOTH"
);
}
);
width = 1300;
},
{
components = (
{
name = cedillacomb;
transform = "{1, 0, 0, 1, 332, -50}";
}
);
layerId = "AE979D1C-FDDA-49FD-8CD9-3E2A42843A18";
paths = (
{
closed = 1;
nodes = (
"812 -58 OFFCURVE",
"995 93 OFFCURVE",
"995 158 CURVE SMOOTH",
"995 172 OFFCURVE",
"988 175 OFFCURVE",
"975 175 CURVE SMOOTH",
"915 175 OFFCURVE",
"812 0 OFFCURVE",
"543 0 CURVE SMOOTH",
"273 0 OFFCURVE",
"165 178 OFFCURVE",
"165 400 CURVE SMOOTH",
"165 782 OFFCURVE",
"447 1123 OFFCURVE",
"818 1123 CURVE SMOOTH",
"1120 1123 OFFCURVE",
"1112 1005 OFFCURVE",
"1160 1005 CURVE SMOOTH",
"1172 1005 OFFCURVE",
"1193 1010 OFFCURVE",
"1193 1030 CURVE SMOOTH",
"1193 1080 OFFCURVE",
"1070 1185 OFFCURVE",
"848 1185 CURVE SMOOTH",
"398 1185 OFFCURVE",
"88 838 OFFCURVE",
"88 388 CURVE SMOOTH",
"88 125 OFFCURVE",
"235 -58 OFFCURVE",
"545 -58 CURVE SMOOTH"
);
}
);
width = 1133;
},
{
components = (
{
name = cedillacomb;
transform = "{1, 0, 0, 1, 296, -50}";
}
);
layerId = "A5079BDB-9783-4F5E-864F-267B8C6F09C1";
paths = (
{
closed = 1;
nodes = (
"997 -58 OFFCURVE",
"1117 93 OFFCURVE",
"1117 145 CURVE SMOOTH",
"1117 168 OFFCURVE",
"1103 175 OFFCURVE",
"1085 175 CURVE SMOOTH",
"1025 175 OFFCURVE",
"1002 0 OFFCURVE",
"733 0 CURVE SMOOTH",
"372 0 OFFCURVE",
"102 325 OFFCURVE",
"102 700 CURVE SMOOTH",
"102 982 OFFCURVE",
"278 1123 OFFCURVE",
"483 1123 CURVE SMOOTH",
"782 1123 OFFCURVE",
"838 1005 OFFCURVE",
"887 1005 CURVE SMOOTH",
"892 1005 OFFCURVE",
"910 1008 OFFCURVE",
"910 1022 CURVE SMOOTH",
"910 1097 OFFCURVE",
"675 1185 OFFCURVE",
"520 1185 CURVE SMOOTH",
"188 1185 OFFCURVE",
"27 995 OFFCURVE",
"27 717 CURVE SMOOTH",
"27 282 OFFCURVE",
"297 -58 OFFCURVE",
"732 -58 CURVE SMOOTH"
);
}
);
width = 1153;
},
{
components = (
{
name = cedillacomb;
transform = "{1, 0, 0, 1, 398, 5}";
}
);
layerId = "AE80B40C-E5A8-4B5C-A94B-22B98FE5A19F";
paths = (
{
closed = 1;
nodes = (
"1072 -55 OFFCURVE",
"1303 -10 OFFCURVE",
"1303 173 CURVE SMOOTH",
"1303 330 OFFCURVE",
"1203 437 OFFCURVE",
"1037 437 CURVE SMOOTH",
"944 437 OFFCURVE",
"880 396 OFFCURVE",
"831 396 CURVE SMOOTH",
"705 396 OFFCURVE",
"640 533 OFFCURVE",
"640 680 CURVE SMOOTH",
"640 745 OFFCURVE",
"664 784 OFFCURVE",
"714 784 CURVE SMOOTH",
"770 784 OFFCURVE",
"817 771 OFFCURVE",
"915 771 CURVE SMOOTH",
"993 771 OFFCURVE",
"1036 812 OFFCURVE",
"1036 888 CURVE SMOOTH",
"1036 1091 OFFCURVE",
"813 1185 OFFCURVE",
"599 1185 CURVE SMOOTH",
"228 1185 OFFCURVE",
"13 991 OFFCURVE",
"13 674 CURVE SMOOTH",
"13 223 OFFCURVE",
"342 -55 OFFCURVE",
"808 -55 CURVE SMOOTH"
);
}
);
width = 1310;
},
{
components = (
{
name = cedillacomb;
transform = "{1, 0, 0, 1, 391, 2}";
}
);
layerId = "6282282A-FA3F-4DEE-9DB6-5D5B2A6C152F";
paths = (
{
closed = 1;
nodes = (
"974 -55 OFFCURVE",
"1247 5 OFFCURVE",
"1247 237 CURVE SMOOTH",
"1247 357 OFFCURVE",
"1199 437 OFFCURVE",
"1039 437 CURVE SMOOTH",
"946 437 OFFCURVE",
"871 396 OFFCURVE",
"822 396 CURVE SMOOTH",
"711 396 OFFCURVE",
"692 475 OFFCURVE",
"692 578 CURVE SMOOTH",
"692 702 OFFCURVE",
"730 784 OFFCURVE",
"802 784 CURVE SMOOTH",
"858 784 OFFCURVE",
"902 771 OFFCURVE",
"1000 771 CURVE SMOOTH",
"1098 771 OFFCURVE",
"1157 836 OFFCURVE",
"1157 954 CURVE SMOOTH",
"1157 1111 OFFCURVE",
"974 1185 OFFCURVE",
"787 1185 CURVE SMOOTH",
"340 1185 OFFCURVE",
"50 903 OFFCURVE",
"50 465 CURVE SMOOTH",
"50 110 OFFCURVE",
"317 -55 OFFCURVE",
"682 -55 CURVE SMOOTH"
);
}
);
width = 1309;
},
{
components = (
{
name = cedillacomb;
transform = "{1, 0, 0, 1, 371, -50}";
}
);
layerId = "4C364951-5780-4BC6-AB35-57CC8C56127C";
paths = (
{
closed = 1;
nodes = (
"907 -58 OFFCURVE",
"1052 93 OFFCURVE",
"1052 145 CURVE SMOOTH",
"1052 168 OFFCURVE",
"1045 175 OFFCURVE",
"1027 175 CURVE SMOOTH",
"967 175 OFFCURVE",
"903 0 OFFCURVE",
"635 0 CURVE SMOOTH",
"308 0 OFFCURVE",
"145 263 OFFCURVE",
"145 548 CURVE SMOOTH",
"145 930 OFFCURVE",
"410 1123 OFFCURVE",
"650 1123 CURVE SMOOTH",
"952 1123 OFFCURVE",
"973 1005 OFFCURVE",
"1020 1005 CURVE SMOOTH",
"1031 1005 OFFCURVE",
"1048 1008 OFFCURVE",
"1048 1025 CURVE SMOOTH",
"1048 1072 OFFCURVE",
"910 1185 OFFCURVE",
"680 1185 CURVE SMOOTH",
"280 1185 OFFCURVE",
"70 908 OFFCURVE",
"70 535 CURVE SMOOTH",
"70 180 OFFCURVE",
"277 -58 OFFCURVE",
"642 -58 CURVE SMOOTH"
);
}
);
width = 1143;
}
);
leftKerningGroup = O;
rightKerningGroup = C;
unicode = 00C7;
},
{
color = 6;
glyphname = D;
lastChange = "2021-04-22 10:35:34 +0000";
layers = (
{
anchors = (
{
name = bottom;
position = "{689, 0}";
},
{
name = center;
position = "{823, 583}";
},
{
name = top;
position = "{1079, 1207}";
}
);
layerId = "307B7D8E-54CC-4996-A0B0-7E3456408354";
paths = (
{
closed = 1;
nodes = (
"830 -37 OFFCURVE",
"1483 187 OFFCURVE",
"1483 607 CURVE SMOOTH",
"1483 891 OFFCURVE",
"1176 1232 OFFCURVE",
"699 1232 CURVE SMOOTH",
"462 1232 OFFCURVE",
"324 1119 OFFCURVE",
"228 928 CURVE SMOOTH",
"165 803 OFFCURVE",
"122 642 OFFCURVE",
"79 457 CURVE SMOOTH",
"60 377 OFFCURVE",
"47 273 OFFCURVE",
"47 195 CURVE SMOOTH",
"47 33 OFFCURVE",
"104 -37 OFFCURVE",
"327 -37 CURVE SMOOTH"
);
},
{
closed = 1;
nodes = (
"671 495 OFFCURVE",
"660 510 OFFCURVE",
"660 539 CURVE SMOOTH",
"660 559 OFFCURVE",
"664 585 OFFCURVE",
"671 617 CURVE SMOOTH",
"677 643 OFFCURVE",
"683 664 OFFCURVE",
"693 680 CURVE SMOOTH",
"710 707 OFFCURVE",
"730 720 OFFCURVE",
"759 720 CURVE SMOOTH",
"853 720 OFFCURVE",
"904 663 OFFCURVE",
"904 618 CURVE SMOOTH",
"904 554 OFFCURVE",
"788 495 OFFCURVE",
"695 495 CURVE SMOOTH"
);
}
);
width = 1499;
},
{
anchors = (
{
name = bottom;
position = "{553, 0}";
},
{
name = center;
position = "{283, 583}";
},
{
name = top;
position = "{824, 1183}";
}
);
layerId = "AE979D1C-FDDA-49FD-8CD9-3E2A42843A18";
paths = (
{
closed = 1;
nodes = (
"673 -12 OFFCURVE",
"1224 255 OFFCURVE",
"1224 645 CURVE SMOOTH",
"1224 871 OFFCURVE",
"933 1210 OFFCURVE",
"444 1210 CURVE SMOOTH",
"351 1210 OFFCURVE",
"290 1138 OFFCURVE",
"246 1023 CURVE SMOOTH",
"208 924 OFFCURVE",
"177 794 OFFCURVE",
"144 650 CURVE SMOOTH",
"98 448 OFFCURVE",
"71 283 OFFCURVE",
"71 169 CURVE SMOOTH",
"71 53 OFFCURVE",
"108 -12 OFFCURVE",
"210 -12 CURVE SMOOTH"
);
},
{
closed = 1;
nodes = (
"176 52 OFFCURVE",
"140 95 OFFCURVE",
"140 184 CURVE SMOOTH",
"140 294 OFFCURVE",
"175 475 OFFCURVE",
"234 732 CURVE SMOOTH",
"259 840 OFFCURVE",
"285 943 OFFCURVE",
"317 1019 CURVE SMOOTH",
"350 1097 OFFCURVE",
"388 1148 OFFCURVE",
"433 1148 CURVE SMOOTH",
"908 1148 OFFCURVE",
"1157 837 OFFCURVE",
"1157 645 CURVE SMOOTH",
"1157 316 OFFCURVE",
"645 52 OFFCURVE",
"241 52 CURVE SMOOTH"
);
}
);
width = 1252;
},
{
anchors = (
{
name = bottom;
position = "{749, 0}";
},
{
name = center;
position = "{189, 583}";
},
{
name = top;
position = "{433, 1183}";
}
);
layerId = "A5079BDB-9783-4F5E-864F-267B8C6F09C1";
paths = (
{
closed = 1;
nodes = (
"910 -12 OFFCURVE",
"1133 285 OFFCURVE",
"1133 555 CURVE SMOOTH",
"1133 918 OFFCURVE",
"541 1210 OFFCURVE",
"87 1210 CURVE SMOOTH",
"5 1210 OFFCURVE",
"-22 1154 OFFCURVE",
"-22 1062 CURVE SMOOTH",
"-22 957 OFFCURVE",
"5 785 OFFCURVE",
"36 650 CURVE SMOOTH",
"82 448 OFFCURVE",
"133 283 OFFCURVE",
"185 169 CURVE SMOOTH",
"238 53 OFFCURVE",
"302 -12 OFFCURVE",
"404 -12 CURVE SMOOTH"
);
},
{
closed = 1;
nodes = (
"351 52 OFFCURVE",
"297 94 OFFCURVE",
"256 179 CURVE SMOOTH",
"203 289 OFFCURVE",
"147 471 OFFCURVE",
"87 732 CURVE SMOOTH",
"59 853 OFFCURVE",
"49 967 OFFCURVE",
"49 1044 CURVE SMOOTH",
"49 1108 OFFCURVE",
"64 1148 OFFCURVE",
"104 1148 CURVE SMOOTH",
"503 1148 OFFCURVE",
"1067 875 OFFCURVE",
"1067 557 CURVE SMOOTH",
"1067 338 OFFCURVE",
"888 52 OFFCURVE",
"415 52 CURVE SMOOTH"
);
}
);
width = 1244;
},
{
anchors = (
{
name = bottom;
position = "{877, 0}";
},
{
name = center;
position = "{720, 583}";
},
{
name = top;
position = "{665, 1207}";
}
);
layerId = "AE80B40C-E5A8-4B5C-A94B-22B98FE5A19F";
paths = (
{
closed = 1;
nodes = (
"1036 -37 OFFCURVE",
"1417 236 OFFCURVE",
"1417 521 CURVE SMOOTH",
"1417 914 OFFCURVE",
"783 1232 OFFCURVE",
"323 1232 CURVE SMOOTH",
"77 1232 OFFCURVE",
"-18 1110 OFFCURVE",
"-18 906 CURVE SMOOTH",
"-18 783 OFFCURVE",
"19 626 OFFCURVE",
"64 457 CURVE SMOOTH",
"87 370 OFFCURVE",
"108 298 OFFCURVE",
"130 236 CURVE SMOOTH",
"198 44 OFFCURVE",
"294 -37 OFFCURVE",
"535 -37 CURVE SMOOTH"
);
},
{
closed = 1;
nodes = (
"633 495 OFFCURVE",
"616 513 OFFCURVE",
"600 546 CURVE SMOOTH",
"591 565 OFFCURVE",
"583 589 OFFCURVE",
"577 617 CURVE SMOOTH",
"573 637 OFFCURVE",
"570 653 OFFCURVE",
"570 667 CURVE SMOOTH",
"570 704 OFFCURVE",
"586 720 OFFCURVE",
"619 720 CURVE SMOOTH",
"729 720 OFFCURVE",
"816 643 OFFCURVE",
"816 596 CURVE SMOOTH",
"816 555 OFFCURVE",
"764 495 OFFCURVE",
"659 495 CURVE SMOOTH"
);
}
);
width = 1501;
},
{
anchors = (
{
name = bottom;
position = "{753, 0}";
},
{
name = center;
position = "{753, 583}";
},
{
name = top;
position = "{865, 1207}";
}
);
layerId = "6282282A-FA3F-4DEE-9DB6-5D5B2A6C152F";
paths = (
{
closed = 1;
nodes = (
"954 -37 OFFCURVE",
"1448 220 OFFCURVE",
"1448 555 CURVE SMOOTH",
"1448 867 OFFCURVE",
"1019 1232 OFFCURVE",
"512 1232 CURVE SMOOTH",
"275 1232 OFFCURVE",
"163 1119 OFFCURVE",
"111 928 CURVE SMOOTH",
"77 802 OFFCURVE",
"70 642 OFFCURVE",
"70 457 CURVE SMOOTH",
"70 371 OFFCURVE",
"73 298 OFFCURVE",
"81 236 CURVE SMOOTH",
"105 44 OFFCURVE",
"181 -37 OFFCURVE",
"422 -37 CURVE SMOOTH"
);
},
{
closed = 1;
nodes = (
"652 495 OFFCURVE",
"638 513 OFFCURVE",
"631 546 CURVE SMOOTH",
"627 565 OFFCURVE",
"625 589 OFFCURVE",
"625 617 CURVE SMOOTH",
"625 643 OFFCURVE",
"627 664 OFFCURVE",
"633 680 CURVE SMOOTH",
"643 708 OFFCURVE",
"661 720 OFFCURVE",
"690 720 CURVE SMOOTH",
"793 720 OFFCURVE",
"860 652 OFFCURVE",
"860 605 CURVE SMOOTH",
"860 565 OFFCURVE",
"792 495 OFFCURVE",
"678 495 CURVE SMOOTH"
);
}
);
width = 1498;
},
{
anchors = (
{
name = bottom;
position = "{592, 0}";
},
{
name = center;
position = "{188, 583}";
},
{
name = top;
position = "{592, 1183}";
}
);
layerId = "4C364951-5780-4BC6-AB35-57CC8C56127C";
paths = (
{
closed = 1;
nodes = (
"849 -12 OFFCURVE",
"1172 298 OFFCURVE",
"1172 615 CURVE SMOOTH",
"1172 868 OFFCURVE",
"805 1210 OFFCURVE",
"264 1210 CURVE SMOOTH",
"171 1210 OFFCURVE",
"133 1138 OFFCURVE",
"113 1023 CURVE SMOOTH",
"96 925 OFFCURVE",
"90 794 OFFCURVE",
"90 650 CURVE SMOOTH",
"90 448 OFFCURVE",
"98 283 OFFCURVE",
"124 169 CURVE SMOOTH",
"150 53 OFFCURVE",
"203 -12 OFFCURVE",
"305 -12 CURVE SMOOTH"
);
},
{
closed = 1;
nodes = (
"257 52 OFFCURVE",
"213 94 OFFCURVE",
"191 179 CURVE SMOOTH",
"163 289 OFFCURVE",
"157 471 OFFCURVE",
"157 732 CURVE SMOOTH",
"157 840 OFFCURVE",
"166 943 OFFCURVE",
"181 1019 CURVE SMOOTH",
"196 1097 OFFCURVE",
"222 1148 OFFCURVE",
"267 1148 CURVE SMOOTH",
"768 1148 OFFCURVE",
"1105 832 OFFCURVE",
"1105 615 CURVE SMOOTH",
"1105 357 OFFCURVE",
"837 52 OFFCURVE",
"321 52 CURVE SMOOTH"
);
}
);
width = 1242;
}
);
leftKerningGroup = H;
leftMetricsKey = H;
rightKerningGroup = O;
rightMetricsKey = O;
unicode = 0044;
},
{
color = 3;
glyphname = Eth;
lastChange = "2021-04-22 10:35:34 +0000";
layers = (
{
components = (
{
name = D;
}
);
layerId = "307B7D8E-54CC-4996-A0B0-7E3456408354";
paths = (
{
closed = 1;
nodes = (
"530 518 OFFCURVE",
"789 522 OFFCURVE",
"789 606 CURVE SMOOTH",
"789 706 OFFCURVE",
"557 706 OFFCURVE",
"299 706 CURVE SMOOTH",
"65 706 OFFCURVE",
"-37 698 OFFCURVE",
"-37 606 CURVE SMOOTH",
"-37 534 OFFCURVE",
"62 518 OFFCURVE",
"250 518 CURVE SMOOTH"
);
}
);
width = 1499;
},
{
components = (
{
name = D;
}
);
layerId = "AE979D1C-FDDA-49FD-8CD9-3E2A42843A18";
paths = (
{
closed = 1;
nodes = (
"605 592 OFFCURVE",
"617 595 OFFCURVE",
"617 620 CURVE SMOOTH",
"617 644 OFFCURVE",
"601 652 OFFCURVE",
"311 652 CURVE SMOOTH",
"57 652 OFFCURVE",
"27 642 OFFCURVE",
"27 615 CURVE SMOOTH",
"27 593 OFFCURVE",
"54 592 OFFCURVE",
"280 592 CURVE SMOOTH"
);
}
);
width = 1252;
},
{
components = (
{
name = D;
}
);
layerId = "A5079BDB-9783-4F5E-864F-267B8C6F09C1";
paths = (
{
closed = 1;
nodes = (
"505 592 OFFCURVE",
"517 595 OFFCURVE",
"517 620 CURVE SMOOTH",
"517 644 OFFCURVE",
"501 652 OFFCURVE",
"211 652 CURVE SMOOTH",
"-43 652 OFFCURVE",
"-73 642 OFFCURVE",
"-73 615 CURVE SMOOTH",
"-73 593 OFFCURVE",
"-46 592 OFFCURVE",
"180 592 CURVE SMOOTH"
);
}
);
width = 1244;
},
{
components = (
{
name = D;
}
);
layerId = "AE80B40C-E5A8-4B5C-A94B-22B98FE5A19F";
paths = (
{
closed = 1;
nodes = (
"480 518 OFFCURVE",
"739 522 OFFCURVE",
"739 606 CURVE SMOOTH",
"739 706 OFFCURVE",
"507 706 OFFCURVE",
"249 706 CURVE SMOOTH",
"15 706 OFFCURVE",
"-87 698 OFFCURVE",
"-87 606 CURVE SMOOTH",
"-87 534 OFFCURVE",
"12 518 OFFCURVE",
"200 518 CURVE SMOOTH"
);
}
);
width = 1501;
},
{
components = (
{
name = D;
}
);
layerId = "6282282A-FA3F-4DEE-9DB6-5D5B2A6C152F";
paths = (
{
closed = 1;
nodes = (
"520 518 OFFCURVE",
"779 522 OFFCURVE",
"779 606 CURVE SMOOTH",
"779 706 OFFCURVE",
"547 706 OFFCURVE",
"289 706 CURVE SMOOTH",
"55 706 OFFCURVE",
"-47 698 OFFCURVE",
"-47 606 CURVE SMOOTH",
"-47 534 OFFCURVE",
"52 518 OFFCURVE",
"240 518 CURVE SMOOTH"
);
}
);
width = 1498;
},
{
components = (
{
name = D;
}
);
layerId = "4C364951-5780-4BC6-AB35-57CC8C56127C";
paths = (
{
closed = 1;
nodes = (
"555 592 OFFCURVE",
"567 595 OFFCURVE",
"567 620 CURVE SMOOTH",
"567 644 OFFCURVE",
"551 652 OFFCURVE",
"261 652 CURVE SMOOTH",
"7 652 OFFCURVE",
"-23 642 OFFCURVE",
"-23 615 CURVE SMOOTH",
"-23 593 OFFCURVE",
"4 592 OFFCURVE",
"230 592 CURVE SMOOTH"
);
}
);
width = 1242;
}
);
leftKerningGroup = H;
rightKerningGroup = O;
unicode = 00D0;
},
{
color = 6;
glyphname = E;
lastChange = "2021-04-22 10:35:34 +0000";
layers = (
{
anchors = (
{
name = bottom;
position = "{509, -17}";
},
{
name = ogonek;
position = "{853, 110}";
},
{
name = top;
position = "{811, 1290}";
},
{
name = topleft;
position = "{171, 1167}";
}
);
layerId = "307B7D8E-54CC-4996-A0B0-7E3456408354";
paths = (
{
closed = 1;
nodes = (
"726 -43 OFFCURVE",
"1037 -11 OFFCURVE",
"1037 242 CURVE SMOOTH",
"1037 323 OFFCURVE",
"1004 367 OFFCURVE",
"908 367 CURVE SMOOTH",
"861 367 OFFCURVE",
"789 370 OFFCURVE",
"736 370 CURVE SMOOTH",
"639 370 OFFCURVE",
"609 385 OFFCURVE",
"609 409 CURVE SMOOTH",
"609 436 OFFCURVE",
"639 459 OFFCURVE",
"692 459 CURVE SMOOTH",
"730 459 OFFCURVE",
"777 458 OFFCURVE",
"844 458 CURVE SMOOTH",
"987 458 OFFCURVE",
"1072 554 OFFCURVE",
"1072 693 CURVE SMOOTH",
"1072 767 OFFCURVE",
"1038 810 OFFCURVE",
"955 810 CURVE SMOOTH",
"895 810 OFFCURVE",
"864 802 OFFCURVE",
"801 802 CURVE SMOOTH",
"770 802 OFFCURVE",
"760 825 OFFCURVE",
"760 848 CURVE SMOOTH",
"760 889 OFFCURVE",
"792 907 OFFCURVE",
"830 910 CURVE SMOOTH",
"900 915 OFFCURVE",
"1025 925 OFFCURVE",
"1096 945 CURVE SMOOTH",
"1170 966 OFFCURVE",
"1244 1021 OFFCURVE",
"1244 1115 CURVE SMOOTH",
"1244 1227 OFFCURVE",
"1105 1263 OFFCURVE",
"913 1263 CURVE SMOOTH",
"517 1263 OFFCURVE",
"214 1126 OFFCURVE",
"118 618 CURVE SMOOTH",
"100 523 OFFCURVE",
"89 437 OFFCURVE",
"89 362 CURVE SMOOTH",
"89 52 OFFCURVE",
"253 -43 OFFCURVE",
"476 -43 CURVE SMOOTH"
);
}
);
width = 1161;
},
{
anchors = (
{
name = bottom;
position = "{526, -55}";
},
{
name = ogonek;
position = "{889, -8}";
},
{
name = top;
position = "{749, 1213}";
},
{
name = topleft;
position = "{216, 1167}";
}
);
layerId = "AE979D1C-FDDA-49FD-8CD9-3E2A42843A18";
paths = (
{
closed = 1;
nodes = (
"602 -73 OFFCURVE",
"914 -33 OFFCURVE",
"914 10 CURVE SMOOTH",
"914 25 OFFCURVE",
"909 30 OFFCURVE",
"881 30 CURVE SMOOTH",
"802 30 OFFCURVE",
"589 -3 OFFCURVE",
"379 -3 CURVE SMOOTH",
"202 -3 OFFCURVE",
"149 63 OFFCURVE",
"149 203 CURVE SMOOTH",
"149 472 OFFCURVE",
"182 601 OFFCURVE",
"332 601 CURVE SMOOTH",
"409 601 OFFCURVE",
"706 597 OFFCURVE",
"769 597 CURVE SMOOTH",
"834 597 OFFCURVE",
"872 608 OFFCURVE",
"872 633 CURVE SMOOTH",
"872 653 OFFCURVE",
"856 662 OFFCURVE",
"754 662 CURVE SMOOTH",
"714 662 OFFCURVE",
"539 662 OFFCURVE",
"489 662 CURVE SMOOTH",
"294 662 OFFCURVE",
"249 662 OFFCURVE",
"249 717 CURVE SMOOTH",
"249 940 OFFCURVE",
"396 1182 OFFCURVE",
"737 1182 CURVE SMOOTH",
"951 1182 OFFCURVE",
"1101 1150 OFFCURVE",
"1161 1150 CURVE SMOOTH",
"1179 1150 OFFCURVE",
"1192 1153 OFFCURVE",
"1192 1168 CURVE SMOOTH",
"1192 1203 OFFCURVE",
"977 1232 OFFCURVE",
"782 1232 CURVE SMOOTH",
"436 1232 OFFCURVE",
"259 1132 OFFCURVE",
"157 705 CURVE SMOOTH",
"115 530 OFFCURVE",
"72 328 OFFCURVE",
"72 195 CURVE SMOOTH",
"72 20 OFFCURVE",
"142 -73 OFFCURVE",
"361 -73 CURVE SMOOTH"
);
}
);
width = 1099;
},
{
anchors = (
{
name = bottom;
position = "{773, -55}";
},
{
name = ogonek;
position = "{1085, -9}";
},
{
name = top;
position = "{363, 1213}";
},
{
name = topleft;
position = "{-147, 1167}";
}
);
layerId = "A5079BDB-9783-4F5E-864F-267B8C6F09C1";
paths = (
{
closed = 1;
nodes = (
"814 -73 OFFCURVE",
"1109 -35 OFFCURVE",
"1109 8 CURVE SMOOTH",
"1109 25 OFFCURVE",
"1096 30 OFFCURVE",
"1066 30 CURVE SMOOTH",
"988 30 OFFCURVE",
"786 -3 OFFCURVE",
"559 -3 CURVE SMOOTH",
"281 -3 OFFCURVE",
"154 362 OFFCURVE",
"154 543 CURVE SMOOTH",
"154 602 OFFCURVE",
"203 604 OFFCURVE",
"408 604 CURVE SMOOTH",
"484 604 OFFCURVE",
"628 600 OFFCURVE",
"691 600 CURVE SMOOTH",
"749 600 OFFCURVE",
"779 607 OFFCURVE",
"779 627 CURVE SMOOTH",
"779 652 OFFCURVE",
"761 662 OFFCURVE",
"649 662 CURVE SMOOTH",
"609 662 OFFCURVE",
"331 663 OFFCURVE",
"281 663 CURVE SMOOTH",
"121 663 OFFCURVE",
"77 708 OFFCURVE",
"77 947 CURVE SMOOTH",
"77 1128 OFFCURVE",
"191 1182 OFFCURVE",
"469 1182 CURVE SMOOTH",
"629 1182 OFFCURVE",
"769 1150 OFFCURVE",
"829 1150 CURVE SMOOTH",
"846 1150 OFFCURVE",
"854 1153 OFFCURVE",
"854 1163 CURVE SMOOTH",
"854 1213 OFFCURVE",
"586 1232 OFFCURVE",
"453 1232 CURVE SMOOTH",
"133 1232 OFFCURVE",
"-4 1173 OFFCURVE",
"-4 952 CURVE SMOOTH",
"-4 835 OFFCURVE",
"61 510 OFFCURVE",
"109 355 CURVE SMOOTH",
"195 77 OFFCURVE",
"299 -73 OFFCURVE",
"576 -73 CURVE SMOOTH"
);
}
);
width = 1136;
},
{
anchors = (
{
name = bottom;
position = "{721, -17}";
},
{
name = ogonek;
position = "{986, 124}";
},
{
name = top;
position = "{371, 1290}";
},
{
name = topleft;
position = "{-209, 1167}";
}
);
layerId = "AE80B40C-E5A8-4B5C-A94B-22B98FE5A19F";
paths = (
{
closed = 1;
nodes = (
"875 -43 OFFCURVE",
"1135 -15 OFFCURVE",
"1135 175 CURVE SMOOTH",
"1135 296 OFFCURVE",
"1061 367 OFFCURVE",
"930 367 CURVE SMOOTH",
"883 367 OFFCURVE",
"809 370 OFFCURVE",
"756 370 CURVE SMOOTH",
"643 370 OFFCURVE",
"608 390 OFFCURVE",
"608 422 CURVE SMOOTH",
"608 443 OFFCURVE",
"627 459 OFFCURVE",
"672 459 CURVE SMOOTH",
"710 459 OFFCURVE",
"757 458 OFFCURVE",
"824 458 CURVE SMOOTH",
"903 458 OFFCURVE",
"967 492 OFFCURVE",
"967 588 CURVE SMOOTH",
"967 711 OFFCURVE",
"899 810 OFFCURVE",
"773 810 CURVE SMOOTH",
"713 810 OFFCURVE",
"686 802 OFFCURVE",
"623 802 CURVE SMOOTH",
"573 802 OFFCURVE",
"544 826 OFFCURVE",
"544 860 CURVE SMOOTH",
"544 886 OFFCURVE",
"558 908 OFFCURVE",
"592 910 CURVE SMOOTH",
"660 914 OFFCURVE",
"779 924 OFFCURVE",
"842 941 CURVE SMOOTH",
"893 955 OFFCURVE",
"932 993 OFFCURVE",
"932 1063 CURVE SMOOTH",
"932 1230 OFFCURVE",
"730 1263 OFFCURVE",
"531 1263 CURVE SMOOTH",
"205 1263 OFFCURVE",
"-7 1168 OFFCURVE",
"-7 853 CURVE SMOOTH",
"-7 713 OFFCURVE",
"45 506 OFFCURVE",
"99 362 CURVE SMOOTH",
"208 71 OFFCURVE",
"445 -43 OFFCURVE",
"668 -43 CURVE SMOOTH"
);
}
);
width = 1171;
},
{
anchors = (
{
name = bottom;
position = "{593, -17}";
},
{
name = ogonek;
position = "{922, 138}";
},
{
name = top;
position = "{593, 1290}";
},
{
name = topleft;
position = "{-19, 1167}";
}
);
layerId = "6282282A-FA3F-4DEE-9DB6-5D5B2A6C152F";
paths = (
{
closed = 1;
nodes = (
"778 -43 OFFCURVE",
"1083 -12 OFFCURVE",
"1083 205 CURVE SMOOTH",
"1083 308 OFFCURVE",
"1028 367 OFFCURVE",
"918 367 CURVE SMOOTH",
"871 367 OFFCURVE",
"798 370 OFFCURVE",
"745 370 CURVE SMOOTH",
"643 370 OFFCURVE",
"608 386 OFFCURVE",
"608 413 CURVE SMOOTH",
"608 438 OFFCURVE",
"630 459 OFFCURVE",
"681 459 CURVE SMOOTH",
"719 459 OFFCURVE",
"766 458 OFFCURVE",
"833 458 CURVE SMOOTH",
"928 458 OFFCURVE",
"1013 507 OFFCURVE",
"1013 655 CURVE SMOOTH",
"1013 752 OFFCURVE",
"960 810 OFFCURVE",
"863 810 CURVE SMOOTH",
"803 810 OFFCURVE",
"764 802 OFFCURVE",
"701 802 CURVE SMOOTH",
"661 802 OFFCURVE",
"647 830 OFFCURVE",
"647 857 CURVE SMOOTH",
"647 882 OFFCURVE",
"656 908 OFFCURVE",
"715 910 CURVE SMOOTH",
"784 912 OFFCURVE",
"906 925 OFFCURVE",
"973 945 CURVE SMOOTH",
"1036 964 OFFCURVE",
"1085 1013 OFFCURVE",
"1085 1092 CURVE SMOOTH",
"1085 1222 OFFCURVE",
"921 1263 OFFCURVE",
"716 1263 CURVE SMOOTH",
"320 1263 OFFCURVE",
"70 1122 OFFCURVE",
"70 618 CURVE SMOOTH",
"70 523 OFFCURVE",
"75 437 OFFCURVE",
"86 362 CURVE SMOOTH",
"129 72 OFFCURVE",
"338 -43 OFFCURVE",
"561 -43 CURVE SMOOTH"
);
}
);
width = 1174;
},
{
anchors = (
{
name = bottom;
position = "{630, -55}";
},
{
name = ogonek;
position = "{976, -8}";
},
{
name = top;
position = "{560, 1213}";
},
{
name = topleft;
position = "{38, 1167}";
}
);
layerId = "4C364951-5780-4BC6-AB35-57CC8C56127C";
paths = (
{
closed = 1;
nodes = (
"713 -73 OFFCURVE",
"1007 -33 OFFCURVE",
"1007 10 CURVE SMOOTH",
"1007 25 OFFCURVE",
"997 30 OFFCURVE",
"968 30 CURVE SMOOTH",
"890 30 OFFCURVE",
"685 -3 OFFCURVE",
"475 -3 CURVE SMOOTH",
"207 -3 OFFCURVE",
"167 150 OFFCURVE",
"167 488 CURVE SMOOTH",
"167 600 OFFCURVE",
"187 602 OFFCURVE",
"443 602 CURVE SMOOTH",
"520 602 OFFCURVE",
"662 603 OFFCURVE",
"725 603 CURVE SMOOTH",
"790 603 OFFCURVE",
"820 608 OFFCURVE",
"820 633 CURVE SMOOTH",
"820 653 OFFCURVE",
"798 660 OFFCURVE",
"697 660 CURVE SMOOTH",
"657 660 OFFCURVE",
"482 660 OFFCURVE",
"432 660 CURVE SMOOTH",
"182 660 OFFCURVE",
"168 662 OFFCURVE",
"168 777 CURVE SMOOTH",
"168 1098 OFFCURVE",
"287 1182 OFFCURVE",
"637 1182 CURVE SMOOTH",
"797 1182 OFFCURVE",
"930 1150 OFFCURVE",
"990 1150 CURVE SMOOTH",
"1008 1150 OFFCURVE",
"1018 1153 OFFCURVE",
"1018 1167 CURVE SMOOTH",
"1018 1203 OFFCURVE",
"830 1232 OFFCURVE",
"632 1232 CURVE SMOOTH",
"215 1232 OFFCURVE",
"90 1132 OFFCURVE",
"90 705 CURVE SMOOTH",
"90 572 OFFCURVE",
"90 455 OFFCURVE",
"98 355 CURVE SMOOTH",
"119 77 OFFCURVE",
"195 -73 OFFCURVE",
"472 -73 CURVE SMOOTH"
);
}
);
width = 1115;
}
);
leftKerningGroup = H;
leftMetricsKey = H;
rightKerningGroup = E;
unicode = 0045;
},
{
color = 3;
glyphname = Eogonek;
lastChange = "2021-07-16 10:40:36 +0000";
layers = (
{
anchors = (
{
name = bottom;
position = "{509, -17}";
},
{
name = ogonek;
position = "{853, 110}";
},
{
name = top;
position = "{811, 1290}";
},
{
name = topleft;
position = "{171, 1167}";
}
);
components = (
{
name = ogonekcomb;
transform = "{1, 0, 0, 1, 775, 196}";
}
);
layerId = "307B7D8E-54CC-4996-A0B0-7E3456408354";
paths = (
{
closed = 1;
nodes = (
"726 -43 OFFCURVE",
"1037 -11 OFFCURVE",
"1037 242 CURVE SMOOTH",
"1037 323 OFFCURVE",
"1004 367 OFFCURVE",
"908 367 CURVE SMOOTH",
"861 367 OFFCURVE",
"789 370 OFFCURVE",
"736 370 CURVE SMOOTH",
"639 370 OFFCURVE",
"609 385 OFFCURVE",
"609 409 CURVE SMOOTH",
"609 436 OFFCURVE",
"639 459 OFFCURVE",
"692 459 CURVE SMOOTH",
"730 459 OFFCURVE",
"777 458 OFFCURVE",
"844 458 CURVE SMOOTH",
"987 458 OFFCURVE",
"1072 554 OFFCURVE",
"1072 693 CURVE SMOOTH",
"1072 767 OFFCURVE",
"1038 810 OFFCURVE",
"955 810 CURVE SMOOTH",
"895 810 OFFCURVE",
"864 802 OFFCURVE",
"801 802 CURVE SMOOTH",
"770 802 OFFCURVE",
"760 825 OFFCURVE",
"760 848 CURVE SMOOTH",
"760 889 OFFCURVE",
"792 907 OFFCURVE",
"830 910 CURVE SMOOTH",
"900 915 OFFCURVE",
"1025 925 OFFCURVE",
"1096 945 CURVE SMOOTH",
"1170 966 OFFCURVE",
"1244 1021 OFFCURVE",
"1244 1115 CURVE SMOOTH",
"1244 1227 OFFCURVE",
"1105 1263 OFFCURVE",
"913 1263 CURVE SMOOTH",
"517 1263 OFFCURVE",
"214 1126 OFFCURVE",
"118 618 CURVE SMOOTH",
"100 523 OFFCURVE",
"89 437 OFFCURVE",
"89 362 CURVE SMOOTH",
"89 52 OFFCURVE",
"253 -43 OFFCURVE",
"476 -43 CURVE SMOOTH"
);
}
);
width = 1161;
},
{
anchors = (
{
name = bottom;
position = "{526, -55}";
},
{
name = ogonek;
position = "{889, -8}";
},
{
name = top;
position = "{749, 1213}";
},
{
name = topleft;
position = "{216, 1167}";
}
);
components = (
{
name = ogonekcomb;
transform = "{1, 0, 0, 1, 776, -8}";
}
);
layerId = "AE979D1C-FDDA-49FD-8CD9-3E2A42843A18";
paths = (
{
closed = 1;
nodes = (
"602 -73 OFFCURVE",
"914 -33 OFFCURVE",
"914 10 CURVE SMOOTH",
"914 25 OFFCURVE",
"909 30 OFFCURVE",
"881 30 CURVE SMOOTH",
"802 30 OFFCURVE",
"589 -3 OFFCURVE",
"379 -3 CURVE SMOOTH",
"202 -3 OFFCURVE",
"149 63 OFFCURVE",
"149 203 CURVE SMOOTH",
"149 472 OFFCURVE",
"182 601 OFFCURVE",
"332 601 CURVE SMOOTH",
"409 601 OFFCURVE",
"706 597 OFFCURVE",
"769 597 CURVE SMOOTH",
"834 597 OFFCURVE",
"872 608 OFFCURVE",
"872 633 CURVE SMOOTH",
"872 653 OFFCURVE",
"856 662 OFFCURVE",
"754 662 CURVE SMOOTH",
"714 662 OFFCURVE",
"539 662 OFFCURVE",
"489 662 CURVE SMOOTH",
"294 662 OFFCURVE",
"249 662 OFFCURVE",
"249 717 CURVE SMOOTH",
"249 940 OFFCURVE",
"396 1182 OFFCURVE",
"737 1182 CURVE SMOOTH",
"951 1182 OFFCURVE",
"1101 1150 OFFCURVE",
"1161 1150 CURVE SMOOTH",
"1179 1150 OFFCURVE",
"1192 1153 OFFCURVE",
"1192 1168 CURVE SMOOTH",
"1192 1203 OFFCURVE",
"977 1232 OFFCURVE",
"782 1232 CURVE SMOOTH",
"436 1232 OFFCURVE",
"259 1132 OFFCURVE",
"157 705 CURVE SMOOTH",
"115 530 OFFCURVE",
"72 328 OFFCURVE",
"72 195 CURVE SMOOTH",
"72 20 OFFCURVE",
"142 -73 OFFCURVE",
"361 -73 CURVE SMOOTH"
);
}
);
width = 1099;
},
{
anchors = (
{
name = bottom;
position = "{773, -55}";
},
{
name = ogonek;
position = "{1085, -9}";
},
{
name = top;
position = "{363, 1213}";
},
{
name = topleft;
position = "{-147, 1167}";
}
);
components = (
{
name = ogonekcomb;
transform = "{1, 0, 0, 1, 735, -10}";
}
);
layerId = "A5079BDB-9783-4F5E-864F-267B8C6F09C1";
paths = (
{
closed = 1;
nodes = (
"814 -73 OFFCURVE",
"1109 -35 OFFCURVE",
"1109 8 CURVE SMOOTH",
"1109 25 OFFCURVE",
"1096 30 OFFCURVE",
"1066 30 CURVE SMOOTH",
"988 30 OFFCURVE",
"786 -3 OFFCURVE",
"559 -3 CURVE SMOOTH",
"281 -3 OFFCURVE",
"154 362 OFFCURVE",
"154 543 CURVE SMOOTH",
"154 602 OFFCURVE",
"203 604 OFFCURVE",
"408 604 CURVE SMOOTH",
"484 604 OFFCURVE",
"628 600 OFFCURVE",
"691 600 CURVE SMOOTH",
"749 600 OFFCURVE",
"779 607 OFFCURVE",
"779 627 CURVE SMOOTH",
"779 652 OFFCURVE",
"761 662 OFFCURVE",
"649 662 CURVE SMOOTH",
"609 662 OFFCURVE",
"331 663 OFFCURVE",
"281 663 CURVE SMOOTH",
"121 663 OFFCURVE",
"77 708 OFFCURVE",
"77 947 CURVE SMOOTH",
"77 1128 OFFCURVE",
"191 1182 OFFCURVE",
"469 1182 CURVE SMOOTH",
"629 1182 OFFCURVE",
"769 1150 OFFCURVE",
"829 1150 CURVE SMOOTH",
"846 1150 OFFCURVE",
"854 1153 OFFCURVE",
"854 1163 CURVE SMOOTH",
"854 1213 OFFCURVE",
"586 1232 OFFCURVE",
"453 1232 CURVE SMOOTH",
"133 1232 OFFCURVE",
"-4 1173 OFFCURVE",
"-4 952 CURVE SMOOTH",
"-4 835 OFFCURVE",
"61 510 OFFCURVE",
"109 355 CURVE SMOOTH",
"195 77 OFFCURVE",
"299 -73 OFFCURVE",
"576 -73 CURVE SMOOTH"
);
}
);
width = 1136;
},
{
anchors = (
{
name = bottom;
position = "{721, -17}";
},
{
name = ogonek;
position = "{986, 124}";
},
{
name = top;
position = "{371, 1290}";
},
{
name = topleft;
position = "{-209, 1167}";
}
);
components = (
{
name = ogonekcomb;
transform = "{1, 0, 0, 1, 635, 163}";
}
);
layerId = "AE80B40C-E5A8-4B5C-A94B-22B98FE5A19F";
paths = (
{
closed = 1;
nodes = (
"875 -43 OFFCURVE",
"1135 -15 OFFCURVE",
"1135 175 CURVE SMOOTH",
"1135 296 OFFCURVE",
"1061 367 OFFCURVE",
"930 367 CURVE SMOOTH",
"883 367 OFFCURVE",
"809 370 OFFCURVE",
"756 370 CURVE SMOOTH",
"643 370 OFFCURVE",
"608 390 OFFCURVE",
"608 422 CURVE SMOOTH",
"608 443 OFFCURVE",
"627 459 OFFCURVE",
"672 459 CURVE SMOOTH",
"710 459 OFFCURVE",
"757 458 OFFCURVE",
"824 458 CURVE SMOOTH",
"903 458 OFFCURVE",
"967 492 OFFCURVE",
"967 588 CURVE SMOOTH",
"967 711 OFFCURVE",
"899 810 OFFCURVE",
"773 810 CURVE SMOOTH",
"713 810 OFFCURVE",
"686 802 OFFCURVE",
"623 802 CURVE SMOOTH",
"573 802 OFFCURVE",
"544 826 OFFCURVE",
"544 860 CURVE SMOOTH",
"544 886 OFFCURVE",
"558 908 OFFCURVE",
"592 910 CURVE SMOOTH",
"660 914 OFFCURVE",
"779 924 OFFCURVE",
"842 941 CURVE SMOOTH",
"893 955 OFFCURVE",
"932 993 OFFCURVE",
"932 1063 CURVE SMOOTH",
"932 1230 OFFCURVE",
"730 1263 OFFCURVE",
"531 1263 CURVE SMOOTH",
"205 1263 OFFCURVE",
"-7 1168 OFFCURVE",
"-7 853 CURVE SMOOTH",
"-7 713 OFFCURVE",
"45 506 OFFCURVE",
"99 362 CURVE SMOOTH",
"208 71 OFFCURVE",
"445 -43 OFFCURVE",
"668 -43 CURVE SMOOTH"
);
}
);
width = 1171;
},
{
anchors = (
{
name = bottom;
position = "{593, -17}";
},
{
name = ogonek;
position = "{922, 138}";
},
{
name = top;
position = "{593, 1290}";
},
{
name = topleft;
position = "{-19, 1167}";
}
);
components = (
{
name = ogonekcomb;
transform = "{1, 0, 0, 1, 734, 196}";
}
);
layerId = "6282282A-FA3F-4DEE-9DB6-5D5B2A6C152F";
paths = (
{
closed = 1;
nodes = (
"778 -43 OFFCURVE",
"1083 -12 OFFCURVE",
"1083 205 CURVE SMOOTH",
"1083 308 OFFCURVE",
"1028 367 OFFCURVE",
"918 367 CURVE SMOOTH",
"871 367 OFFCURVE",
"798 370 OFFCURVE",
"745 370 CURVE SMOOTH",
"643 370 OFFCURVE",
"608 386 OFFCURVE",
"608 413 CURVE SMOOTH",
"608 438 OFFCURVE",
"630 459 OFFCURVE",
"681 459 CURVE SMOOTH",
"719 459 OFFCURVE",
"766 458 OFFCURVE",
"833 458 CURVE SMOOTH",
"928 458 OFFCURVE",
"1013 507 OFFCURVE",
"1013 655 CURVE SMOOTH",
"1013 752 OFFCURVE",
"960 810 OFFCURVE",
"863 810 CURVE SMOOTH",
"803 810 OFFCURVE",
"764 802 OFFCURVE",
"701 802 CURVE SMOOTH",
"661 802 OFFCURVE",
"647 830 OFFCURVE",
"647 857 CURVE SMOOTH",
"647 882 OFFCURVE",
"656 908 OFFCURVE",
"715 910 CURVE SMOOTH",
"784 912 OFFCURVE",
"906 925 OFFCURVE",
"973 945 CURVE SMOOTH",
"1036 964 OFFCURVE",
"1085 1013 OFFCURVE",
"1085 1092 CURVE SMOOTH",
"1085 1222 OFFCURVE",
"921 1263 OFFCURVE",
"716 1263 CURVE SMOOTH",
"320 1263 OFFCURVE",
"70 1122 OFFCURVE",
"70 618 CURVE SMOOTH",
"70 523 OFFCURVE",
"75 437 OFFCURVE",
"86 362 CURVE SMOOTH",
"129 72 OFFCURVE",
"338 -43 OFFCURVE",
"561 -43 CURVE SMOOTH"
);
}
);
width = 1174;
},
{
anchors = (
{
name = bottom;
position = "{630, -55}";
},
{
name = ogonek;
position = "{976, -8}";
},
{
name = top;
position = "{560, 1213}";
},
{
name = topleft;
position = "{38, 1167}";
}
);
components = (
{
name = ogonekcomb;
transform = "{1, 0, 0, 1, 747, -9}";
}
);
layerId = "4C364951-5780-4BC6-AB35-57CC8C56127C";
paths = (
{
closed = 1;
nodes = (
"713 -73 OFFCURVE",
"1007 -33 OFFCURVE",
"1007 10 CURVE SMOOTH",
"1007 25 OFFCURVE",
"997 30 OFFCURVE",
"968 30 CURVE SMOOTH",
"890 30 OFFCURVE",
"685 -3 OFFCURVE",
"475 -3 CURVE SMOOTH",
"207 -3 OFFCURVE",
"167 150 OFFCURVE",
"167 488 CURVE SMOOTH",
"167 600 OFFCURVE",
"187 602 OFFCURVE",
"443 602 CURVE SMOOTH",
"520 602 OFFCURVE",
"662 603 OFFCURVE",
"725 603 CURVE SMOOTH",
"790 603 OFFCURVE",
"820 608 OFFCURVE",
"820 633 CURVE SMOOTH",
"820 653 OFFCURVE",
"798 660 OFFCURVE",
"697 660 CURVE SMOOTH",
"657 660 OFFCURVE",
"482 660 OFFCURVE",
"432 660 CURVE SMOOTH",
"182 660 OFFCURVE",
"168 662 OFFCURVE",
"168 777 CURVE SMOOTH",
"168 1098 OFFCURVE",
"287 1182 OFFCURVE",
"637 1182 CURVE SMOOTH",
"797 1182 OFFCURVE",
"930 1150 OFFCURVE",
"990 1150 CURVE SMOOTH",
"1008 1150 OFFCURVE",
"1018 1153 OFFCURVE",
"1018 1167 CURVE SMOOTH",
"1018 1203 OFFCURVE",
"830 1232 OFFCURVE",
"632 1232 CURVE SMOOTH",
"215 1232 OFFCURVE",
"90 1132 OFFCURVE",
"90 705 CURVE SMOOTH",
"90 572 OFFCURVE",
"90 455 OFFCURVE",
"98 355 CURVE SMOOTH",
"119 77 OFFCURVE",
"195 -73 OFFCURVE",
"472 -73 CURVE SMOOTH"
);
}
);
width = 1115;
}
);
leftKerningGroup = H;
rightKerningGroup = E;
unicode = 0118;
},
{
color = 6;
glyphname = F;
lastChange = "2021-04-22 10:35:34 +0000";
layers = (
{
anchors = (
{
name = bottom;
position = "{573, 0}";
},
{
name = top;
position = "{841, 1167}";
}
);
layerId = "307B7D8E-54CC-4996-A0B0-7E3456408354";
paths = (
{
closed = 1;
nodes = (
"396 -32 OFFCURVE",
"479 -5 OFFCURVE",
"534 63 CURVE SMOOTH",
"561 97 OFFCURVE",
"584 140 OFFCURVE",
"596 195 CURVE SMOOTH",
"611 262 OFFCURVE",
"639 309 OFFCURVE",
"719 318 CURVE SMOOTH",
"893 338 OFFCURVE",
"969 362 OFFCURVE",
"1036 438 CURVE SMOOTH",
"1070 477 OFFCURVE",
"1094 532 OFFCURVE",
"1094 580 CURVE SMOOTH",
"1094 608 OFFCURVE",
"1085 629 OFFCURVE",
"1066 642 CURVE SMOOTH",
"1038 662 OFFCURVE",
"951 663 OFFCURVE",
"858 663 CURVE SMOOTH",
"811 663 OFFCURVE",
"793 685 OFFCURVE",
"793 720 CURVE SMOOTH",
"793 733 OFFCURVE",
"808 757 OFFCURVE",
"819 768 CURVE SMOOTH",
"854 803 OFFCURVE",
"909 833 OFFCURVE",
"1006 833 CURVE SMOOTH",
"1101 833 OFFCURVE",
"1178 834 OFFCURVE",
"1238 853 CURVE SMOOTH",
"1318 879 OFFCURVE",
"1368 948 OFFCURVE",
"1368 1025 CURVE SMOOTH",
"1368 1177 OFFCURVE",
"1111 1267 OFFCURVE",
"893 1267 CURVE SMOOTH",
"711 1267 OFFCURVE",
"553 1219 OFFCURVE",
"429 1130 CURVE SMOOTH",
"189 958 OFFCURVE",
"81 625 OFFCURVE",
"81 312 CURVE SMOOTH",
"81 242 OFFCURVE",
"89 177 OFFCURVE",
"106 123 CURVE SMOOTH",
"136 28 OFFCURVE",
"193 -32 OFFCURVE",
"313 -32 CURVE SMOOTH"
);
}
);
width = 1258;
},
{
anchors = (
{
name = bottom;
position = "{410, 0}";
},
{
name = top;
position = "{679, 1167}";
}
);
layerId = "AE979D1C-FDDA-49FD-8CD9-3E2A42843A18";
paths = (
{
closed = 1;
nodes = (
"127 -32 OFFCURVE",
"139 -23 OFFCURVE",
"149 25 CURVE SMOOTH",
"164 97 OFFCURVE",
"201 450 OFFCURVE",
"210 498 CURVE SMOOTH",
"216 528 OFFCURVE",
"232 544 OFFCURVE",
"252 547 CURVE SMOOTH",
"465 579 OFFCURVE",
"660 585 OFFCURVE",
"729 585 CURVE SMOOTH",
"757 585 OFFCURVE",
"797 587 OFFCURVE",
"797 617 CURVE SMOOTH",
"797 637 OFFCURVE",
"762 638 OFFCURVE",
"699 638 CURVE SMOOTH",
"604 638 OFFCURVE",
"320 607 OFFCURVE",
"270 607 CURVE SMOOTH",
"240 607 OFFCURVE",
"232 632 OFFCURVE",
"232 667 CURVE SMOOTH",
"232 815 OFFCURVE",
"315 1042 OFFCURVE",
"435 1135 CURVE SMOOTH",
"514 1197 OFFCURVE",
"620 1227 OFFCURVE",
"762 1227 CURVE SMOOTH",
"890 1227 OFFCURVE",
"1000 1202 OFFCURVE",
"1055 1202 CURVE SMOOTH",
"1079 1202 OFFCURVE",
"1094 1205 OFFCURVE",
"1094 1220 CURVE SMOOTH",
"1094 1252 OFFCURVE",
"945 1280 OFFCURVE",
"789 1280 CURVE SMOOTH",
"650 1280 OFFCURVE",
"517 1263 OFFCURVE",
"410 1187 CURVE SMOOTH",
"308 1114 OFFCURVE",
"222 987 OFFCURVE",
"177 793 CURVE SMOOTH",
"150 677 OFFCURVE",
"84 215 OFFCURVE",
"84 92 CURVE SMOOTH",
"84 48 OFFCURVE",
"84 -32 OFFCURVE",
"109 -32 CURVE SMOOTH"
);
}
);
width = 944;
},
{
anchors = (
{
name = bottom;
position = "{615, 0}";
},
{
name = top;
position = "{302, 1167}";
}
);
layerId = "A5079BDB-9783-4F5E-864F-267B8C6F09C1";
paths = (
{
closed = 1;
nodes = (
"323 -32 OFFCURVE",
"330 -28 OFFCURVE",
"330 -12 CURVE SMOOTH",
"330 53 OFFCURVE",
"165 462 OFFCURVE",
"165 517 CURVE SMOOTH",
"165 535 OFFCURVE",
"173 545 OFFCURVE",
"188 547 CURVE SMOOTH",
"500 597 OFFCURVE",
"663 577 OFFCURVE",
"688 588 CURVE SMOOTH",
"698 593 OFFCURVE",
"703 602 OFFCURVE",
"703 608 CURVE SMOOTH",
"703 637 OFFCURVE",
"650 638 OFFCURVE",
"592 638 CURVE SMOOTH",
"497 638 OFFCURVE",
"274 608 OFFCURVE",
"175 608 CURVE SMOOTH",
"103 608 OFFCURVE",
"52 842 OFFCURVE",
"52 972 CURVE SMOOTH",
"52 1040 OFFCURVE",
"66 1094 OFFCURVE",
"98 1135 CURVE SMOOTH",
"148 1198 OFFCURVE",
"243 1227 OFFCURVE",
"385 1227 CURVE SMOOTH",
"513 1227 OFFCURVE",
"633 1202 OFFCURVE",
"688 1202 CURVE SMOOTH",
"708 1202 OFFCURVE",
"720 1205 OFFCURVE",
"720 1213 CURVE SMOOTH",
"720 1257 OFFCURVE",
"498 1280 OFFCURVE",
"385 1280 CURVE SMOOTH",
"247 1280 OFFCURVE",
"120 1263 OFFCURVE",
"50 1187 CURVE SMOOTH",
"5 1138 OFFCURVE",
"-22 1067 OFFCURVE",
"-22 967 CURVE SMOOTH",
"-22 785 OFFCURVE",
"152 277 OFFCURVE",
"230 92 CURVE SMOOTH",
"248 48 OFFCURVE",
"283 -32 OFFCURVE",
"312 -32 CURVE SMOOTH"
);
}
);
width = 967;
},
{
anchors = (
{
name = bottom;
position = "{786, 0}";
},
{
name = top;
position = "{473, 1167}";
}
);
layerId = "AE80B40C-E5A8-4B5C-A94B-22B98FE5A19F";
paths = (
{
closed = 1;
nodes = (
"633 -32 OFFCURVE",
"708 17 OFFCURVE",
"708 125 CURVE SMOOTH",
"708 173 OFFCURVE",
"693 210 OFFCURVE",
"693 247 CURVE SMOOTH",
"693 285 OFFCURVE",
"710 312 OFFCURVE",
"763 318 CURVE SMOOTH",
"930 337 OFFCURVE",
"994 362 OFFCURVE",
"1026 438 CURVE SMOOTH",
"1034 457 OFFCURVE",
"1038 477 OFFCURVE",
"1038 498 CURVE SMOOTH",
"1038 550 OFFCURVE",
"1015 613 OFFCURVE",
"963 642 CURVE SMOOTH",
"925 663 OFFCURVE",
"838 663 OFFCURVE",
"745 663 CURVE SMOOTH",
"691 663 OFFCURVE",
"651 692 OFFCURVE",
"651 737 CURVE SMOOTH",
"651 748 OFFCURVE",
"653 760 OFFCURVE",
"656 768 CURVE SMOOTH",
"671 805 OFFCURVE",
"716 833 OFFCURVE",
"813 833 CURVE SMOOTH",
"908 833 OFFCURVE",
"985 835 OFFCURVE",
"1035 853 CURVE SMOOTH",
"1078 868 OFFCURVE",
"1103 897 OFFCURVE",
"1103 943 CURVE SMOOTH",
"1103 1153 OFFCURVE",
"743 1267 OFFCURVE",
"500 1267 CURVE SMOOTH",
"318 1267 OFFCURVE",
"183 1219 OFFCURVE",
"100 1130 CURVE SMOOTH",
"32 1057 OFFCURVE",
"-2 957 OFFCURVE",
"-2 830 CURVE SMOOTH",
"-2 612 OFFCURVE",
"106 293 OFFCURVE",
"240 123 CURVE SMOOTH",
"315 28 OFFCURVE",
"400 -32 OFFCURVE",
"520 -32 CURVE SMOOTH"
);
}
);
width = 1290;
},
{
anchors = (
{
name = bottom;
position = "{664, 0}";
},
{
name = top;
position = "{664, 1167}";
}
);
layerId = "6282282A-FA3F-4DEE-9DB6-5D5B2A6C152F";
paths = (
{
closed = 1;
nodes = (
"499 -32 OFFCURVE",
"575 -5 OFFCURVE",
"615 63 CURVE SMOOTH",
"635 97 OFFCURVE",
"647 140 OFFCURVE",
"647 195 CURVE SMOOTH",
"647 262 OFFCURVE",
"664 309 OFFCURVE",
"740 318 CURVE SMOOTH",
"910 339 OFFCURVE",
"980 362 OFFCURVE",
"1030 438 CURVE SMOOTH",
"1051 470 OFFCURVE",
"1060 505 OFFCURVE",
"1060 540 CURVE SMOOTH",
"1060 588 OFFCURVE",
"1045 625 OFFCURVE",
"1014 642 CURVE SMOOTH",
"980 661 OFFCURVE",
"894 663 OFFCURVE",
"800 663 CURVE SMOOTH",
"754 663 OFFCURVE",
"722 685 OFFCURVE",
"722 720 CURVE SMOOTH",
"722 733 OFFCURVE",
"729 757 OFFCURVE",
"737 769 CURVE SMOOTH",
"761 806 OFFCURVE",
"812 833 OFFCURVE",
"909 833 CURVE SMOOTH",
"1004 833 OFFCURVE",
"1080 835 OFFCURVE",
"1135 853 CURVE SMOOTH",
"1195 873 OFFCURVE",
"1229 913 OFFCURVE",
"1229 990 CURVE SMOOTH",
"1229 1163 OFFCURVE",
"929 1267 OFFCURVE",
"695 1267 CURVE SMOOTH",
"514 1267 OFFCURVE",
"369 1218 OFFCURVE",
"264 1130 CURVE SMOOTH",
"136 1022 OFFCURVE",
"70 850 OFFCURVE",
"70 622 CURVE SMOOTH",
"70 445 OFFCURVE",
"100 253 OFFCURVE",
"172 123 CURVE SMOOTH",
"224 28 OFFCURVE",
"295 -32 OFFCURVE",
"415 -32 CURVE SMOOTH"
);
}
);
width = 1274;
},
{
anchors = (
{
name = bottom;
position = "{500, 0}";
},
{
name = top;
position = "{500, 1167}";
}
);
layerId = "4C364951-5780-4BC6-AB35-57CC8C56127C";
paths = (
{
closed = 1;
nodes = (
"230 -32 OFFCURVE",
"239 -23 OFFCURVE",
"239 25 CURVE SMOOTH",
"239 97 OFFCURVE",
"190 450 OFFCURVE",
"190 498 CURVE SMOOTH",
"190 528 OFFCURVE",
"202 544 OFFCURVE",
"222 547 CURVE SMOOTH",
"547 599 OFFCURVE",
"704 577 OFFCURVE",
"732 588 CURVE SMOOTH",
"745 593 OFFCURVE",
"752 603 OFFCURVE",
"752 612 CURVE SMOOTH",
"752 637 OFFCURVE",
"715 638 OFFCURVE",
"647 638 CURVE SMOOTH",
"552 638 OFFCURVE",
"311 607 OFFCURVE",
"225 607 CURVE SMOOTH",
"174 607 OFFCURVE",
"165 663 OFFCURVE",
"165 759 CURVE SMOOTH",
"165 941 OFFCURVE",
"189 1058 OFFCURVE",
"269 1135 CURVE SMOOTH",
"334 1197 OFFCURVE",
"434 1227 OFFCURVE",
"575 1227 CURVE SMOOTH",
"704 1227 OFFCURVE",
"819 1202 OFFCURVE",
"874 1202 CURVE SMOOTH",
"895 1202 OFFCURVE",
"909 1205 OFFCURVE",
"909 1217 CURVE SMOOTH",
"909 1250 OFFCURVE",
"750 1280 OFFCURVE",
"589 1280 CURVE SMOOTH",
"450 1280 OFFCURVE",
"320 1263 OFFCURVE",
"232 1187 CURVE SMOOTH",
"147 1113 OFFCURVE",
"90 987 OFFCURVE",
"90 793 CURVE SMOOTH",
"90 678 OFFCURVE",
"143 209 OFFCURVE",
"159 92 CURVE SMOOTH",
"165 47 OFFCURVE",
"184 -32 OFFCURVE",
"212 -32 CURVE SMOOTH"
);
}
);
width = 959;
}
);
leftKerningGroup = H;
leftMetricsKey = H;
rightKerningGroup = F;
unicode = 0046;
},
{
color = 6;
glyphname = G;
lastChange = "2021-04-22 10:35:34 +0000";
layers = (
{
anchors = (
{
name = bottom;
position = "{753, -27}";
},
{
name = top;
position = "{1052, 1298}";
}
);
layerId = "307B7D8E-54CC-4996-A0B0-7E3456408354";
paths = (
{
closed = 1;
nodes = (
"1171 -83 OFFCURVE",
"1598 41 OFFCURVE",
"1598 487 CURVE SMOOTH",
"1598 674 OFFCURVE",
"1486 807 OFFCURVE",
"1187 807 CURVE SMOOTH",
"999 807 OFFCURVE",
"802 747 OFFCURVE",
"802 562 CURVE SMOOTH",
"802 483 OFFCURVE",
"842 440 OFFCURVE",
"903 423 CURVE SMOOTH",
"967 405 OFFCURVE",
"995 391 OFFCURVE",
"995 369 CURVE SMOOTH",
"995 337 OFFCURVE",
"951 335 OFFCURVE",
"910 335 CURVE SMOOTH",
"751 335 OFFCURVE",
"684 408 OFFCURVE",
"684 527 CURVE SMOOTH",
"684 723 OFFCURVE",
"816 885 OFFCURVE",
"1016 885 CURVE SMOOTH",
"1102 885 OFFCURVE",
"1137 864 OFFCURVE",
"1256 864 CURVE SMOOTH",
"1388 864 OFFCURVE",
"1498 948 OFFCURVE",
"1498 1071 CURVE SMOOTH",
"1498 1209 OFFCURVE",
"1292 1270 OFFCURVE",
"1114 1270 CURVE SMOOTH",
"689 1270 OFFCURVE",
"89 1105 OFFCURVE",
"89 488 CURVE SMOOTH",
"89 136 OFFCURVE",
"299 -83 OFFCURVE",
"729 -83 CURVE SMOOTH"
);
}
);
width = 1645;
},
{
anchors = (
{
name = bottom;
position = "{544, -35}";
},
{
name = top;
position = "{858, 1233}";
}
);
layerId = "AE979D1C-FDDA-49FD-8CD9-3E2A42843A18";
paths = (
{
closed = 1;
nodes = (
"900 -73 OFFCURVE",
"1218 98 OFFCURVE",
"1218 417 CURVE SMOOTH",
"1218 570 OFFCURVE",
"1083 662 OFFCURVE",
"853 662 CURVE SMOOTH",
"708 662 OFFCURVE",
"670 660 OFFCURVE",
"670 625 CURVE SMOOTH",
"670 593 OFFCURVE",
"732 593 OFFCURVE",
"863 593 CURVE SMOOTH",
"1055 593 OFFCURVE",
"1150 515 OFFCURVE",
"1150 400 CURVE SMOOTH",
"1150 145 OFFCURVE",
"862 0 OFFCURVE",
"568 0 CURVE SMOOTH",
"305 0 OFFCURVE",
"162 120 OFFCURVE",
"162 387 CURVE SMOOTH",
"162 807 OFFCURVE",
"435 1163 OFFCURVE",
"840 1163 CURVE SMOOTH",
"1117 1163 OFFCURVE",
"1182 1068 OFFCURVE",
"1213 1068 CURVE SMOOTH",
"1232 1068 OFFCURVE",
"1247 1088 OFFCURVE",
"1247 1100 CURVE SMOOTH",
"1247 1152 OFFCURVE",
"1060 1228 OFFCURVE",
"863 1228 CURVE SMOOTH",
"375 1228 OFFCURVE",
"92 867 OFFCURVE",
"92 382 CURVE SMOOTH",
"92 100 OFFCURVE",
"228 -73 OFFCURVE",
"550 -73 CURVE SMOOTH"
);
}
);
width = 1295;
},
{
anchors = (
{
name = bottom;
position = "{785, -35}";
},
{
name = top;
position = "{461, 1233}";
}
);
layerId = "A5079BDB-9783-4F5E-864F-267B8C6F09C1";
paths = (
{
closed = 1;
nodes = (
"1051 -73 OFFCURVE",
"1266 33 OFFCURVE",
"1266 262 CURVE SMOOTH",
"1266 527 OFFCURVE",
"1064 662 OFFCURVE",
"771 662 CURVE SMOOTH",
"634 662 OFFCURVE",
"587 660 OFFCURVE",
"587 632 CURVE SMOOTH",
"587 593 OFFCURVE",
"657 593 OFFCURVE",
"797 593 CURVE SMOOTH",
"1022 593 OFFCURVE",
"1199 483 OFFCURVE",
"1199 273 CURVE SMOOTH",
"1199 90 OFFCURVE",
"1021 0 OFFCURVE",
"776 0 CURVE SMOOTH",
"361 0 OFFCURVE",
"99 303 OFFCURVE",
"99 723 CURVE SMOOTH",
"99 1020 OFFCURVE",
"289 1163 OFFCURVE",
"526 1163 CURVE SMOOTH",
"814 1163 OFFCURVE",
"896 1068 OFFCURVE",
"927 1068 CURVE SMOOTH",
"941 1068 OFFCURVE",
"947 1080 OFFCURVE",
"947 1090 CURVE SMOOTH",
"947 1163 OFFCURVE",
"694 1228 OFFCURVE",
"532 1228 CURVE SMOOTH",
"297 1228 OFFCURVE",
"24 1093 OFFCURVE",
"24 733 CURVE SMOOTH",
"24 280 OFFCURVE",
"312 -73 OFFCURVE",
"757 -73 CURVE SMOOTH"
);
}
);
width = 1329;
},
{
anchors = (
{
name = bottom;
position = "{956, -59}";
},
{
name = top;
position = "{608, 1298}";
}
);
layerId = "AE80B40C-E5A8-4B5C-A94B-22B98FE5A19F";
paths = (
{
closed = 1;
nodes = (
"1374 -83 OFFCURVE",
"1607 10 OFFCURVE",
"1607 358 CURVE SMOOTH",
"1607 667 OFFCURVE",
"1319 807 OFFCURVE",
"1020 807 CURVE SMOOTH",
"866 807 OFFCURVE",
"725 762 OFFCURVE",
"725 617 CURVE SMOOTH",
"725 512 OFFCURVE",
"801 450 OFFCURVE",
"912 423 CURVE SMOOTH",
"992 404 OFFCURVE",
"1031 388 OFFCURVE",
"1031 363 CURVE SMOOTH",
"1031 336 OFFCURVE",
"999 335 OFFCURVE",
"961 335 CURVE SMOOTH",
"747 335 OFFCURVE",
"609 478 OFFCURVE",
"609 689 CURVE SMOOTH",
"609 806 OFFCURVE",
"671 885 OFFCURVE",
"813 885 CURVE SMOOTH",
"899 885 OFFCURVE",
"944 864 OFFCURVE",
"1063 864 CURVE SMOOTH",
"1161 864 OFFCURVE",
"1227 905 OFFCURVE",
"1227 989 CURVE SMOOTH",
"1227 1180 OFFCURVE",
"987 1270 OFFCURVE",
"773 1270 CURVE SMOOTH",
"381 1270 OFFCURVE",
"10 1129 OFFCURVE",
"10 692 CURVE SMOOTH",
"10 183 OFFCURVE",
"400 -83 OFFCURVE",
"932 -83 CURVE SMOOTH"
);
}
);
width = 1666;
},
{
anchors = (
{
name = bottom;
position = "{840, -52}";
},
{
name = top;
position = "{840, 1298}";
}
);
layerId = "6282282A-FA3F-4DEE-9DB6-5D5B2A6C152F";
paths = (
{
closed = 1;
nodes = (
"1249 -83 OFFCURVE",
"1599 3 OFFCURVE",
"1599 425 CURVE SMOOTH",
"1599 697 OFFCURVE",
"1399 807 OFFCURVE",
"1100 807 CURVE SMOOTH",
"930 807 OFFCURVE",
"764 752 OFFCURVE",
"764 610 CURVE SMOOTH",
"764 493 OFFCURVE",
"827 443 OFFCURVE",
"904 423 CURVE SMOOTH",
"979 403 OFFCURVE",
"1009 388 OFFCURVE",
"1009 363 CURVE SMOOTH",
"1009 337 OFFCURVE",
"970 335 OFFCURVE",
"932 335 CURVE SMOOTH",
"745 335 OFFCURVE",
"652 438 OFFCURVE",
"652 592 CURVE SMOOTH",
"652 760 OFFCURVE",
"732 885 OFFCURVE",
"911 885 CURVE SMOOTH",
"997 885 OFFCURVE",
"1037 864 OFFCURVE",
"1156 864 CURVE SMOOTH",
"1271 864 OFFCURVE",
"1354 920 OFFCURVE",
"1354 1036 CURVE SMOOTH",
"1354 1199 OFFCURVE",
"1132 1270 OFFCURVE",
"940 1270 CURVE SMOOTH",
"515 1270 OFFCURVE",
"50 1115 OFFCURVE",
"50 597 CURVE SMOOTH",
"50 125 OFFCURVE",
"377 -83 OFFCURVE",
"807 -83 CURVE SMOOTH"
);
}
);
width = 1657;
},
{
anchors = (
{
name = bottom;
position = "{665, -35}";
},
{
name = top;
position = "{665, 1233}";
}
);
layerId = "4C364951-5780-4BC6-AB35-57CC8C56127C";
paths = (
{
closed = 1;
nodes = (
"995 -73 OFFCURVE",
"1225 63 OFFCURVE",
"1225 360 CURVE SMOOTH",
"1225 563 OFFCURVE",
"1068 662 OFFCURVE",
"812 662 CURVE SMOOTH",
"667 662 OFFCURVE",
"620 660 OFFCURVE",
"620 625 CURVE SMOOTH",
"620 593 OFFCURVE",
"690 593 OFFCURVE",
"822 593 CURVE SMOOTH",
"1038 593 OFFCURVE",
"1158 495 OFFCURVE",
"1158 353 CURVE SMOOTH",
"1158 115 OFFCURVE",
"942 0 OFFCURVE",
"663 0 CURVE SMOOTH",
"340 0 OFFCURVE",
"143 165 OFFCURVE",
"143 592 CURVE SMOOTH",
"143 960 OFFCURVE",
"385 1163 OFFCURVE",
"667 1163 CURVE SMOOTH",
"943 1163 OFFCURVE",
"1030 1068 OFFCURVE",
"1062 1068 CURVE SMOOTH",
"1077 1068 OFFCURVE",
"1088 1083 OFFCURVE",
"1088 1095 CURVE SMOOTH",
"1088 1145 OFFCURVE",
"897 1228 OFFCURVE",
"692 1228 CURVE SMOOTH",
"383 1228 OFFCURVE",
"70 1047 OFFCURVE",
"70 597 CURVE SMOOTH",
"70 173 OFFCURVE",
"265 -73 OFFCURVE",
"662 -73 CURVE SMOOTH"
);
}
);
width = 1310;
}
);
leftKerningGroup = O;
leftMetricsKey = O;
rightKerningGroup = G;
unicode = 0047;
},
{
color = 6;
glyphname = H;
lastChange = "2021-04-22 10:35:34 +0000";
layers = (
{
anchors = (
{
name = bottom;
position = "{734, 0}";
},
{
name = center;
position = "{902, 583}";
},
{
name = top;
position = "{1064, 1283}";
},
{
name = topleft;
position = "{261, 1167}";
}
);
layerId = "307B7D8E-54CC-4996-A0B0-7E3456408354";
paths = (
{
closed = 1;
nodes = (
"1279 -43 OFFCURVE",
"1384 46 OFFCURVE",
"1464 192 CURVE SMOOTH",
"1532 317 OFFCURVE",
"1596 482 OFFCURVE",
"1639 670 CURVE SMOOTH",
"1667 792 OFFCURVE",
"1682 893 OFFCURVE",
"1682 997 CURVE SMOOTH",
"1682 1171 OFFCURVE",
"1629 1263 OFFCURVE",
"1451 1263 CURVE SMOOTH",
"1357 1263 OFFCURVE",
"1285 1228 OFFCURVE",
"1242 1177 CURVE SMOOTH",
"1196 1123 OFFCURVE",
"1175 1071 OFFCURVE",
"1147 992 CURVE SMOOTH",
"1119 912 OFFCURVE",
"1093 876 OFFCURVE",
"1064 853 CURVE SMOOTH",
"1024 822 OFFCURVE",
"1001 817 OFFCURVE",
"939 817 CURVE SMOOTH",
"902 817 OFFCURVE",
"877 828 OFFCURVE",
"859 853 CURVE SMOOTH",
"843 875 OFFCURVE",
"832 915 OFFCURVE",
"832 965 CURVE SMOOTH",
"832 1025 OFFCURVE",
"832 1093 OFFCURVE",
"822 1122 CURVE SMOOTH",
"798 1191 OFFCURVE",
"756 1238 OFFCURVE",
"627 1238 CURVE SMOOTH",
"454 1238 OFFCURVE",
"330 1115 OFFCURVE",
"239 945 CURVE SMOOTH",
"172 820 OFFCURVE",
"127 668 OFFCURVE",
"94 520 CURVE SMOOTH",
"73 425 OFFCURVE",
"57 334 OFFCURVE",
"57 255 CURVE SMOOTH",
"57 78 OFFCURVE",
"131 -23 OFFCURVE",
"299 -23 CURVE SMOOTH",
"474 -23 OFFCURVE",
"552 20 OFFCURVE",
"589 135 CURVE SMOOTH",
"611 202 OFFCURVE",
"629 250 OFFCURVE",
"664 285 CURVE SMOOTH",
"681 302 OFFCURVE",
"699 316 OFFCURVE",
"719 328 CURVE SMOOTH",
"751 347 OFFCURVE",
"786 358 OFFCURVE",
"837 358 CURVE SMOOTH",
"886 358 OFFCURVE",
"912 352 OFFCURVE",
"939 332 CURVE SMOOTH",
"952 322 OFFCURVE",
"962 300 OFFCURVE",
"962 275 CURVE SMOOTH",
"962 238 OFFCURVE",
"937 150 OFFCURVE",
"937 90 CURVE SMOOTH",
"937 -14 OFFCURVE",
"1034 -43 OFFCURVE",
"1132 -43 CURVE SMOOTH"
);
}
);
width = 1650;
},
{
anchors = (
{
name = bottom;
position = "{467, 0}";
},
{
name = center;
position = "{564, 583}";
},
{
name = top;
position = "{789, 1267}";
},
{
name = topleft;
position = "{-77, 1167}";
}
);
layerId = "AE979D1C-FDDA-49FD-8CD9-3E2A42843A18";
paths = (
{
closed = 1;
nodes = (
"913 -10 OFFCURVE",
"928 3 OFFCURVE",
"951 82 CURVE SMOOTH",
"985 197 OFFCURVE",
"1065 478 OFFCURVE",
"1108 663 CURVE SMOOTH",
"1151 848 OFFCURVE",
"1224 1186 OFFCURVE",
"1224 1237 CURVE SMOOTH",
"1224 1257 OFFCURVE",
"1219 1263 OFFCURVE",
"1211 1263 CURVE SMOOTH",
"1189 1263 OFFCURVE",
"1166 1227 OFFCURVE",
"1136 1097 CURVE SMOOTH",
"1101 947 OFFCURVE",
"1068 808 OFFCURVE",
"1056 767 CURVE SMOOTH",
"1042 718 OFFCURVE",
"1028 707 OFFCURVE",
"1003 707 CURVE SMOOTH",
"966 707 OFFCURVE",
"803 722 OFFCURVE",
"641 722 CURVE SMOOTH",
"499 722 OFFCURVE",
"354 717 OFFCURVE",
"294 717 CURVE SMOOTH",
"265 717 OFFCURVE",
"256 726 OFFCURVE",
"256 747 CURVE SMOOTH",
"256 798 OFFCURVE",
"351 1158 OFFCURVE",
"351 1215 CURVE SMOOTH",
"351 1232 OFFCURVE",
"346 1238 OFFCURVE",
"338 1238 CURVE SMOOTH",
"314 1238 OFFCURVE",
"293 1200 OFFCURVE",
"258 1083 CURVE SMOOTH",
"230 990 OFFCURVE",
"189 847 OFFCURVE",
"143 645 CURVE SMOOTH",
"45 214 OFFCURVE",
"9 48 OFFCURVE",
"9 23 CURVE SMOOTH",
"9 3 OFFCURVE",
"14 -7 OFFCURVE",
"29 -7 CURVE SMOOTH",
"53 -7 OFFCURVE",
"70 12 OFFCURVE",
"103 158 CURVE SMOOTH",
"155 385 OFFCURVE",
"182 505 OFFCURVE",
"196 568 CURVE SMOOTH",
"208 624 OFFCURVE",
"233 635 OFFCURVE",
"254 642 CURVE SMOOTH",
"297 656 OFFCURVE",
"328 657 OFFCURVE",
"619 657 CURVE SMOOTH",
"868 657 OFFCURVE",
"963 643 OFFCURVE",
"988 638 CURVE SMOOTH",
"1002 635 OFFCURVE",
"1013 630 OFFCURVE",
"1013 603 CURVE SMOOTH",
"1013 531 OFFCURVE",
"879 94 OFFCURVE",
"879 18 CURVE SMOOTH",
"879 -2 OFFCURVE",
"886 -10 OFFCURVE",
"896 -10 CURVE SMOOTH"
);
}
);
width = 1141;
},
{
anchors = (
{
name = bottom;
position = "{662, 0}";
},
{
name = center;
position = "{475, 583}";
},
{
name = top;
position = "{358, 1267}";
},
{
name = topleft;
position = "{-126, 1167}";
}
);
layerId = "A5079BDB-9783-4F5E-864F-267B8C6F09C1";
paths = (
{
closed = 1;
nodes = (
"1104 -10 OFFCURVE",
"1112 -4 OFFCURVE",
"1112 22 CURVE SMOOTH",
"1112 77 OFFCURVE",
"1026 530 OFFCURVE",
"995 663 CURVE SMOOTH",
"950 857 OFFCURVE",
"899 1063 OFFCURVE",
"885 1110 CURVE SMOOTH",
"849 1230 OFFCURVE",
"839 1263 OFFCURVE",
"822 1263 CURVE SMOOTH",
"810 1263 OFFCURVE",
"803 1253 OFFCURVE",
"803 1225 CURVE SMOOTH",
"803 1130 OFFCURVE",
"900 802 OFFCURVE",
"900 738 CURVE SMOOTH",
"900 713 OFFCURVE",
"890 707 OFFCURVE",
"870 707 CURVE SMOOTH",
"833 707 OFFCURVE",
"638 722 OFFCURVE",
"502 722 CURVE SMOOTH",
"360 722 OFFCURVE",
"218 717 OFFCURVE",
"158 717 CURVE SMOOTH",
"115 717 OFFCURVE",
"105 738 OFFCURVE",
"92 785 CURVE SMOOTH",
"82 820 OFFCURVE",
"54 937 OFFCURVE",
"22 1073 CURVE SMOOTH",
"-8 1202 OFFCURVE",
"-22 1238 OFFCURVE",
"-42 1238 CURVE SMOOTH",
"-55 1238 OFFCURVE",
"-60 1227 OFFCURVE",
"-60 1197 CURVE SMOOTH",
"-60 1113 OFFCURVE",
"-3 825 OFFCURVE",
"37 645 CURVE SMOOTH",
"63 527 OFFCURVE",
"128 265 OFFCURVE",
"157 153 CURVE SMOOTH",
"180 65 OFFCURVE",
"199 -7 OFFCURVE",
"222 -7 CURVE SMOOTH",
"235 -7 OFFCURVE",
"243 -1 OFFCURVE",
"243 30 CURVE SMOOTH",
"243 126 OFFCURVE",
"122 559 OFFCURVE",
"122 600 CURVE SMOOTH",
"122 628 OFFCURVE",
"137 636 OFFCURVE",
"152 642 CURVE SMOOTH",
"187 655 OFFCURVE",
"218 657 OFFCURVE",
"510 657 CURVE SMOOTH",
"758 657 OFFCURVE",
"857 644 OFFCURVE",
"885 638 CURVE SMOOTH",
"908 633 OFFCURVE",
"927 625 OFFCURVE",
"943 553 CURVE SMOOTH",
"967 452 OFFCURVE",
"1014 225 OFFCURVE",
"1052 58 CURVE SMOOTH",
"1064 7 OFFCURVE",
"1078 -10 OFFCURVE",
"1093 -10 CURVE SMOOTH"
);
}
);
width = 1142;
},
{
anchors = (
{
name = bottom;
position = "{922, 0}";
},
{
name = center;
position = "{813, 583}";
},
{
name = top;
position = "{626, 1283}";
},
{
name = topleft;
position = "{-120, 1167}";
}
);
layerId = "AE80B40C-E5A8-4B5C-A94B-22B98FE5A19F";
paths = (
{
closed = 1;
nodes = (
"1526 -43 OFFCURVE",
"1573 78 OFFCURVE",
"1573 280 CURVE SMOOTH",
"1573 390 OFFCURVE",
"1557 523 OFFCURVE",
"1525 670 CURVE SMOOTH",
"1490 832 OFFCURVE",
"1435 977 OFFCURVE",
"1370 1083 CURVE SMOOTH",
"1301 1195 OFFCURVE",
"1208 1263 OFFCURVE",
"1060 1263 CURVE SMOOTH",
"934 1263 OFFCURVE",
"878 1203 OFFCURVE",
"878 1078 CURVE SMOOTH",
"878 1050 OFFCURVE",
"886 977 OFFCURVE",
"886 940 CURVE SMOOTH",
"886 895 OFFCURVE",
"877 871 OFFCURVE",
"863 853 CURVE SMOOTH",
"838 822 OFFCURVE",
"816 817 OFFCURVE",
"755 817 CURVE SMOOTH",
"718 817 OFFCURVE",
"690 828 OFFCURVE",
"658 853 CURVE SMOOTH",
"632 874 OFFCURVE",
"608 915 OFFCURVE",
"581 965 CURVE SMOOTH",
"561 1002 OFFCURVE",
"523 1083 OFFCURVE",
"498 1122 CURVE SMOOTH",
"450 1195 OFFCURVE",
"378 1238 OFFCURVE",
"250 1238 CURVE SMOOTH",
"61 1238 OFFCURVE",
"-3 1092 OFFCURVE",
"-3 898 CURVE SMOOTH",
"-3 783 OFFCURVE",
"17 650 OFFCURVE",
"46 520 CURVE SMOOTH",
"75 392 OFFCURVE",
"115 269 OFFCURVE",
"176 173 CURVE SMOOTH",
"251 55 OFFCURVE",
"355 -23 OFFCURVE",
"505 -23 CURVE SMOOTH",
"651 -23 OFFCURVE",
"721 1 OFFCURVE",
"721 90 CURVE SMOOTH",
"721 143 OFFCURVE",
"713 192 OFFCURVE",
"713 217 CURVE SMOOTH",
"713 265 OFFCURVE",
"726 297 OFFCURVE",
"761 328 CURVE SMOOTH",
"783 348 OFFCURVE",
"815 358 OFFCURVE",
"866 358 CURVE SMOOTH",
"923 358 OFFCURVE",
"949 349 OFFCURVE",
"988 325 CURVE SMOOTH",
"1025 302 OFFCURVE",
"1040 253 OFFCURVE",
"1058 190 CURVE SMOOTH",
"1069 150 OFFCURVE",
"1090 90 OFFCURVE",
"1106 53 CURVE SMOOTH",
"1144 -34 OFFCURVE",
"1250 -43 OFFCURVE",
"1348 -43 CURVE SMOOTH"
);
}
);
width = 1654;
},
{
anchors = (
{
name = bottom;
position = "{828, 0}";
},
{
name = center;
position = "{860, 583}";
},
{
name = top;
position = "{860, 1283}";
},
{
name = topleft;
position = "{83, 1167}";
}
);
layerId = "6282282A-FA3F-4DEE-9DB6-5D5B2A6C152F";
paths = (
{
closed = 1;
nodes = (
"1367 -43 OFFCURVE",
"1469 47 OFFCURVE",
"1516 192 CURVE SMOOTH",
"1556 317 OFFCURVE",
"1581 482 OFFCURVE",
"1581 670 CURVE SMOOTH",
"1581 832 OFFCURVE",
"1563 977 OFFCURVE",
"1523 1083 CURVE SMOOTH",
"1481 1195 OFFCURVE",
"1403 1263 OFFCURVE",
"1255 1263 CURVE SMOOTH",
"1161 1263 OFFCURVE",
"1100 1226 OFFCURVE",
"1068 1177 CURVE SMOOTH",
"1033 1123 OFFCURVE",
"1025 1070 OFFCURVE",
"1015 992 CURVE SMOOTH",
"1005 912 OFFCURVE",
"987 876 OFFCURVE",
"963 853 CURVE SMOOTH",
"931 822 OFFCURVE",
"908 817 OFFCURVE",
"846 817 CURVE SMOOTH",
"810 817 OFFCURVE",
"783 827 OFFCURVE",
"758 853 CURVE SMOOTH",
"736 875 OFFCURVE",
"721 916 OFFCURVE",
"706 965 CURVE SMOOTH",
"695 1002 OFFCURVE",
"676 1084 OFFCURVE",
"660 1122 CURVE SMOOTH",
"629 1195 OFFCURVE",
"566 1238 OFFCURVE",
"437 1238 CURVE SMOOTH",
"265 1238 OFFCURVE",
"169 1116 OFFCURVE",
"118 945 CURVE SMOOTH",
"81 820 OFFCURVE",
"70 668 OFFCURVE",
"70 520 CURVE SMOOTH",
"70 392 OFFCURVE",
"82 269 OFFCURVE",
"120 173 CURVE SMOOTH",
"166 55 OFFCURVE",
"251 -23 OFFCURVE",
"402 -23 CURVE SMOOTH",
"556 -23 OFFCURVE",
"623 20 OFFCURVE",
"648 135 CURVE SMOOTH",
"662 201 OFFCURVE",
"673 248 OFFCURVE",
"695 283 CURVE SMOOTH",
"707 301 OFFCURVE",
"724 317 OFFCURVE",
"740 328 CURVE SMOOTH",
"767 347 OFFCURVE",
"800 358 OFFCURVE",
"851 358 CURVE SMOOTH",
"908 358 OFFCURVE",
"933 350 OFFCURVE",
"966 325 CURVE SMOOTH",
"997 302 OFFCURVE",
"1002 254 OFFCURVE",
"1005 190 CURVE SMOOTH",
"1007 150 OFFCURVE",
"1010 90 OFFCURVE",
"1022 53 CURVE SMOOTH",
"1044 -14 OFFCURVE",
"1091 -43 OFFCURVE",
"1220 -43 CURVE SMOOTH"
);
}
);
width = 1651;
},
{
anchors = (
{
name = bottom;
position = "{565, 0}";
},
{
name = center;
position = "{522, 583}";
},
{
name = top;
position = "{589, 1267}";
},
{
name = topleft;
position = "{13, 1167}";
}
);
layerId = "4C364951-5780-4BC6-AB35-57CC8C56127C";
paths = (
{
closed = 1;
nodes = (
"1012 -10 OFFCURVE",
"1023 3 OFFCURVE",
"1029 82 CURVE SMOOTH",
"1038 197 OFFCURVE",
"1052 478 OFFCURVE",
"1052 663 CURVE SMOOTH",
"1052 857 OFFCURVE",
"1047 1063 OFFCURVE",
"1045 1110 CURVE SMOOTH",
"1040 1230 OFFCURVE",
"1035 1263 OFFCURVE",
"1017 1263 CURVE SMOOTH",
"995 1263 OFFCURVE",
"980 1227 OFFCURVE",
"980 1097 CURVE SMOOTH",
"980 947 OFFCURVE",
"980 808 OFFCURVE",
"977 766 CURVE SMOOTH",
"974 718 OFFCURVE",
"962 708 OFFCURVE",
"937 708 CURVE SMOOTH",
"900 708 OFFCURVE",
"736 722 OFFCURVE",
"572 722 CURVE SMOOTH",
"430 722 OFFCURVE",
"288 717 OFFCURVE",
"228 717 CURVE SMOOTH",
"183 717 OFFCURVE",
"180 739 OFFCURVE",
"177 786 CURVE SMOOTH",
"175 821 OFFCURVE",
"174 937 OFFCURVE",
"174 1073 CURVE SMOOTH",
"174 1202 OFFCURVE",
"169 1238 OFFCURVE",
"149 1238 CURVE SMOOTH",
"125 1238 OFFCURVE",
"113 1200 OFFCURVE",
"105 1083 CURVE SMOOTH",
"99 990 OFFCURVE",
"90 847 OFFCURVE",
"90 645 CURVE SMOOTH",
"90 527 OFFCURVE",
"95 265 OFFCURVE",
"95 153 CURVE SMOOTH",
"95 65 OFFCURVE",
"97 -7 OFFCURVE",
"124 -7 CURVE SMOOTH",
"147 -7 OFFCURVE",
"164 12 OFFCURVE",
"164 158 CURVE SMOOTH",
"164 387 OFFCURVE",
"162 505 OFFCURVE",
"162 568 CURVE SMOOTH",
"162 623 OFFCURVE",
"184 637 OFFCURVE",
"204 643 CURVE SMOOTH",
"244 655 OFFCURVE",
"274 657 OFFCURVE",
"565 657 CURVE SMOOTH",
"814 657 OFFCURVE",
"910 645 OFFCURVE",
"937 638 CURVE SMOOTH",
"959 632 OFFCURVE",
"975 625 OFFCURVE",
"975 553 CURVE SMOOTH",
"975 452 OFFCURVE",
"969 225 OFFCURVE",
"969 58 CURVE SMOOTH",
"969 7 OFFCURVE",
"980 -10 OFFCURVE",
"995 -10 CURVE SMOOTH"
);
}
);
width = 1142;
}
);
leftKerningGroup = H;
rightKerningGroup = H;
unicode = 0048;
},
{
color = 3;
glyphname = Hbar;
lastChange = "2021-04-22 10:35:34 +0000";
layers = (
{
components = (
{
name = H;
}
);
layerId = "307B7D8E-54CC-4996-A0B0-7E3456408354";
paths = (
{
closed = 1;
nodes = (
"1338 923 OFFCURVE",
"1794 928 OFFCURVE",
"1794 1028 CURVE SMOOTH",
"1794 1146 OFFCURVE",
"1387 1146 OFFCURVE",
"935 1146 CURVE SMOOTH",
"438 1146 OFFCURVE",
"138 1137 OFFCURVE",
"138 1028 CURVE SMOOTH",
"138 942 OFFCURVE",
"520 923 OFFCURVE",
"850 923 CURVE SMOOTH"
);
}
);
width = 1650;
},
{
components = (
{
name = H;
}
);
layerId = "AE979D1C-FDDA-49FD-8CD9-3E2A42843A18";
paths = (
{
closed = 1;
nodes = (
"1236 970 OFFCURVE",
"1258 973 OFFCURVE",
"1258 998 CURVE SMOOTH",
"1258 1022 OFFCURVE",
"1230 1030 OFFCURVE",
"687 1030 CURVE SMOOTH",
"211 1030 OFFCURVE",
"154 1020 OFFCURVE",
"154 993 CURVE SMOOTH",
"154 971 OFFCURVE",
"204 970 OFFCURVE",
"629 970 CURVE SMOOTH"
);
}
);
width = 1141;
},
{
components = (
{
name = H;
}
);
layerId = "A5079BDB-9783-4F5E-864F-267B8C6F09C1";
paths = (
{
closed = 1;
nodes = (
"976 970 OFFCURVE",
"998 973 OFFCURVE",
"998 998 CURVE SMOOTH",
"998 1022 OFFCURVE",
"970 1030 OFFCURVE",
"427 1030 CURVE SMOOTH",
"-49 1030 OFFCURVE",
"-106 1020 OFFCURVE",
"-106 993 CURVE SMOOTH",
"-106 971 OFFCURVE",
"-56 970 OFFCURVE",
"369 970 CURVE SMOOTH"
);
}
);
width = 1142;
},
{
components = (
{
name = H;
}
);
layerId = "AE80B40C-E5A8-4B5C-A94B-22B98FE5A19F";
paths = (
{
closed = 1;
nodes = (
"1068 923 OFFCURVE",
"1524 928 OFFCURVE",
"1524 1028 CURVE SMOOTH",
"1524 1146 OFFCURVE",
"1117 1146 OFFCURVE",
"665 1146 CURVE SMOOTH",
"168 1146 OFFCURVE",
"-132 1137 OFFCURVE",
"-132 1028 CURVE SMOOTH",
"-132 942 OFFCURVE",
"250 923 OFFCURVE",
"580 923 CURVE SMOOTH"
);
}
);
width = 1654;
},
{
components = (
{
name = H;
}
);
layerId = "6282282A-FA3F-4DEE-9DB6-5D5B2A6C152F";
paths = (
{
closed = 1;
nodes = (
"1198 923 OFFCURVE",
"1654 928 OFFCURVE",
"1654 1028 CURVE SMOOTH",
"1654 1146 OFFCURVE",
"1247 1146 OFFCURVE",
"795 1146 CURVE SMOOTH",
"298 1146 OFFCURVE",
"-2 1137 OFFCURVE",
"-2 1028 CURVE SMOOTH",
"-2 942 OFFCURVE",
"380 923 OFFCURVE",
"710 923 CURVE SMOOTH"
);
}
);
width = 1651;
},
{
components = (
{
name = H;
}
);
layerId = "4C364951-5780-4BC6-AB35-57CC8C56127C";
paths = (
{
closed = 1;
nodes = (
"1096 970 OFFCURVE",
"1118 973 OFFCURVE",
"1118 998 CURVE SMOOTH",
"1118 1022 OFFCURVE",
"1090 1030 OFFCURVE",
"547 1030 CURVE SMOOTH",
"71 1030 OFFCURVE",
"14 1020 OFFCURVE",
"14 993 CURVE SMOOTH",
"14 971 OFFCURVE",
"64 970 OFFCURVE",
"489 970 CURVE SMOOTH"
);
}
);
width = 1142;
}
);
leftKerningGroup = H;
rightKerningGroup = H;
unicode = 0126;
},
{
color = 6;
glyphname = I;
lastChange = "2021-04-22 10:35:34 +0000";
layers = (
{
anchors = (
{
name = bottom;
position = "{157, 0}";
},
{
name = ogonek;
position = "{137, 12}";
},
{
name = top;
position = "{157, 1167}";
},
{
name = topleft;
position = "{-5, 1167}";
}
);
layerId = "4C364951-5780-4BC6-AB35-57CC8C56127C";
paths = (
{
closed = 1;
nodes = (
"157 -7 OFFCURVE",
"170 8 OFFCURVE",
"173 95 CURVE SMOOTH",
"178 228 OFFCURVE",
"180 861 OFFCURVE",
"180 1062 CURVE SMOOTH",
"180 1139 OFFCURVE",
"178 1178 OFFCURVE",
"154 1178 CURVE SMOOTH",
"129 1178 OFFCURVE",
"124 1155 OFFCURVE",
"120 1051 CURVE SMOOTH",
"110 778 OFFCURVE",
"110 146 OFFCURVE",
"110 72 CURVE SMOOTH",
"110 30 OFFCURVE",
"116 -7 OFFCURVE",
"136 -7 CURVE SMOOTH"
);
}
);
width = 290;
},
{
anchors = (
{
name = bottom;
position = "{422, 0}";
},
{
name = ogonek;
position = "{437, 30}";
},
{
name = top;
position = "{422, 1167}";
},
{
name = topleft;
position = "{90, 1167}";
}
);
layerId = "6282282A-FA3F-4DEE-9DB6-5D5B2A6C152F";
paths = (
{
closed = 1;
nodes = (
"645 -24 OFFCURVE",
"704 121 OFFCURVE",
"704 483 CURVE SMOOTH",
"704 648 OFFCURVE",
"694 866 OFFCURVE",
"670 990 CURVE SMOOTH",
"647 1108 OFFCURVE",
"575 1199 OFFCURVE",
"427 1199 CURVE SMOOTH",
"243 1199 OFFCURVE",
"169 1110 OFFCURVE",
"135 940 CURVE SMOOTH",
"97 748 OFFCURVE",
"90 521 OFFCURVE",
"90 303 CURVE SMOOTH",
"90 101 OFFCURVE",
"189 -24 OFFCURVE",
"392 -24 CURVE SMOOTH"
);
}
);
width = 794;
},
{
anchors = (
{
name = bottom;
position = "{237, 0}";
},
{
name = ogonek;
position = "{226, 17}";
},
{
name = top;
position = "{-33, 1167}";
},
{
name = topleft;
position = "{-195, 1167}";
}
);
layerId = "A5079BDB-9783-4F5E-864F-267B8C6F09C1";
paths = (
{
closed = 1;
nodes = (
"247 -7 OFFCURVE",
"258 0 OFFCURVE",
"258 27 CURVE SMOOTH",
"258 76 OFFCURVE",
"110 719 OFFCURVE",
"31 1062 CURVE SMOOTH",
"13 1139 OFFCURVE",
"2 1178 OFFCURVE",
"-22 1178 CURVE SMOOTH",
"-35 1178 OFFCURVE",
"-41 1172 OFFCURVE",
"-41 1152 CURVE SMOOTH",
"-41 1073 OFFCURVE",
"158 203 OFFCURVE",
"190 72 CURVE SMOOTH",
"200 30 OFFCURVE",
"214 -7 OFFCURVE",
"234 -7 CURVE SMOOTH"
);
}
);
width = 290;
},
{
anchors = (
{
name = bottom;
position = "{469, 0}";
},
{
name = ogonek;
position = "{564, 69}";
},
{
name = top;
position = "{200, 1167}";
},
{
name = topleft;
position = "{-132, 1167}";
}
);
layerId = "AE80B40C-E5A8-4B5C-A94B-22B98FE5A19F";
paths = (
{
closed = 1;
nodes = (
"651 -24 OFFCURVE",
"726 48 OFFCURVE",
"726 216 CURVE SMOOTH",
"726 387 OFFCURVE",
"613 811 OFFCURVE",
"537 990 CURVE SMOOTH",
"487 1108 OFFCURVE",
"396 1199 OFFCURVE",
"248 1199 CURVE SMOOTH",
"64 1199 OFFCURVE",
"13 1110 OFFCURVE",
"13 940 CURVE SMOOTH",
"13 748 OFFCURVE",
"65 521 OFFCURVE",
"116 303 CURVE SMOOTH",
"163 101 OFFCURVE",
"270 -24 OFFCURVE",
"473 -24 CURVE SMOOTH"
);
}
);
width = 793;
},
{
anchors = (
{
name = bottom;
position = "{41, 0}";
},
{
name = ogonek;
position = "{48, 20}";
},
{
name = top;
position = "{329, 1167}";
},
{
name = topleft;
position = "{167, 1167}";
}
);
layerId = "AE979D1C-FDDA-49FD-8CD9-3E2A42843A18";
paths = (
{
closed = 1;
nodes = (
"60 -7 OFFCURVE",
"77 8 OFFCURVE",
"100 95 CURVE SMOOTH",
"139 244 OFFCURVE",
"346 1109 OFFCURVE",
"346 1154 CURVE SMOOTH",
"346 1170 OFFCURVE",
"342 1178 OFFCURVE",
"331 1178 CURVE SMOOTH",
"306 1178 OFFCURVE",
"295 1155 OFFCURVE",
"267 1051 CURVE SMOOTH",
"214 853 OFFCURVE",
"24 68 OFFCURVE",
"24 21 CURVE SMOOTH",
"24 4 OFFCURVE",
"28 -7 OFFCURVE",
"39 -7 CURVE SMOOTH"
);
}
);
width = 291;
},
{
anchors = (
{
name = bottom;
position = "{279, 0}";
},
{
name = ogonek;
position = "{430, 84}";
},
{
name = top;
position = "{548, 1167}";
},
{
name = topleft;
position = "{216, 1167}";
}
);
layerId = "307B7D8E-54CC-4996-A0B0-7E3456408354";
paths = (
{
closed = 1;
nodes = (
"558 -24 OFFCURVE",
"640 121 OFFCURVE",
"724 483 CURVE SMOOTH",
"762 648 OFFCURVE",
"807 866 OFFCURVE",
"807 990 CURVE SMOOTH",
"807 1108 OFFCURVE",
"748 1199 OFFCURVE",
"590 1199 CURVE SMOOTH",
"416 1199 OFFCURVE",
"335 1110 OFFCURVE",
"261 940 CURVE SMOOTH",
"176 744 OFFCURVE",
"59 375 OFFCURVE",
"59 209 CURVE SMOOTH",
"59 63 OFFCURVE",
"136 -24 OFFCURVE",
"305 -24 CURVE SMOOTH"
);
}
);
width = 799;
}
);
leftKerningGroup = H;
leftMetricsKey = "=H+20";
rightKerningGroup = H;
rightMetricsKey = "=H+20";
unicode = 0049;
},
{
color = 6;
glyphname = I.ss01;
lastChange = "2021-04-22 10:35:34 +0000";
layers = (
{
anchors = (
{
name = bottom;
position = "{498, 0}";
},
{
name = ogonek;
position = "{889, 162}";
},
{
name = top;
position = "{807, 1267}";
},
{
name = topleft;
position = "{227, 1167}";
}
);
layerId = "307B7D8E-54CC-4996-A0B0-7E3456408354";
paths = (
{
closed = 1;
nodes = (
"733 -50 OFFCURVE",
"1022 -40 OFFCURVE",
"1022 208 CURVE SMOOTH",
"1022 257 OFFCURVE",
"997 282 OFFCURVE",
"957 292 CURVE SMOOTH",
"882 310 OFFCURVE",
"855 336 OFFCURVE",
"855 405 CURVE SMOOTH",
"855 453 OFFCURVE",
"867 517 OFFCURVE",
"880 578 CURVE SMOOTH",
"902 675 OFFCURVE",
"932 760 OFFCURVE",
"978 803 CURVE SMOOTH",
"1020 843 OFFCURVE",
"1082 870 OFFCURVE",
"1113 893 CURVE SMOOTH",
"1173 939 OFFCURVE",
"1212 997 OFFCURVE",
"1212 1062 CURVE SMOOTH",
"1212 1188 OFFCURVE",
"988 1228 OFFCURVE",
"787 1228 CURVE SMOOTH",
"523 1228 OFFCURVE",
"257 1192 OFFCURVE",
"257 955 CURVE SMOOTH",
"258 917 OFFCURVE",
"275 890 OFFCURVE",
"307 872 CURVE SMOOTH",
"339 853 OFFCURVE",
"362 830 OFFCURVE",
"362 793 CURVE SMOOTH",
"362 752 OFFCURVE",
"345 657 OFFCURVE",
"333 605 CURVE SMOOTH",
"322 550 OFFCURVE",
"282 423 OFFCURVE",
"255 393 CURVE SMOOTH",
"222 355 OFFCURVE",
"183 340 OFFCURVE",
"127 318 CURVE SMOOTH",
"30 281 OFFCURVE",
"-30 200 OFFCURVE",
"-30 105 CURVE SMOOTH",
"-30 -40 OFFCURVE",
"163 -50 OFFCURVE",
"442 -50 CURVE SMOOTH"
);
}
);
width = 1145;
},
{
anchors = (
{
name = bottom;
position = "{350, 0}";
},
{
name = ogonek;
position = "{644, -27}";
},
{
name = top;
position = "{615, 1240}";
},
{
name = topleft;
position = "{95, 1167}";
}
);
layerId = "AE979D1C-FDDA-49FD-8CD9-3E2A42843A18";
paths = (
{
closed = 1;
nodes = (
"588 -30 OFFCURVE",
"670 -28 OFFCURVE",
"670 -3 CURVE SMOOTH",
"670 21 OFFCURVE",
"597 29 OFFCURVE",
"525 30 CURVE SMOOTH",
"430 32 OFFCURVE",
"375 33 OFFCURVE",
"375 57 CURVE SMOOTH",
"375 77 OFFCURVE",
"375 115 OFFCURVE",
"492 625 CURVE SMOOTH",
"597 1082 OFFCURVE",
"613 1150 OFFCURVE",
"632 1170 CURVE SMOOTH",
"644 1184 OFFCURVE",
"697 1187 OFFCURVE",
"758 1187 CURVE SMOOTH",
"842 1187 OFFCURVE",
"940 1188 OFFCURVE",
"940 1214 CURVE SMOOTH",
"940 1235 OFFCURVE",
"883 1245 OFFCURVE",
"613 1245 CURVE SMOOTH",
"368 1245 OFFCURVE",
"267 1236 OFFCURVE",
"267 1205 CURVE SMOOTH",
"267 1188 OFFCURVE",
"317 1188 OFFCURVE",
"375 1188 CURVE SMOOTH",
"454 1188 OFFCURVE",
"542 1188 OFFCURVE",
"542 1148 CURVE SMOOTH",
"542 1103 OFFCURVE",
"513 980 OFFCURVE",
"428 617 CURVE SMOOTH",
"318 145 OFFCURVE",
"301 78 OFFCURVE",
"282 53 CURVE SMOOTH",
"265 32 OFFCURVE",
"198 30 OFFCURVE",
"125 28 CURVE SMOOTH",
"43 27 OFFCURVE",
"-34 21 OFFCURVE",
"-34 -3 CURVE SMOOTH",
"-34 -28 OFFCURVE",
"50 -30 OFFCURVE",
"302 -30 CURVE SMOOTH"
);
}
);
width = 843;
},
{
anchors = (
{
name = bottom;
position = "{545, 0}";
},
{
name = ogonek;
position = "{810, -22}";
},
{
name = top;
position = "{193, 1240}";
},
{
name = topleft;
position = "{-292, 1167}";
}
);
layerId = "A5079BDB-9783-4F5E-864F-267B8C6F09C1";
paths = (
{
closed = 1;
nodes = (
"770 -30 OFFCURVE",
"835 -27 OFFCURVE",
"835 -2 CURVE SMOOTH",
"835 22 OFFCURVE",
"752 29 OFFCURVE",
"680 30 CURVE SMOOTH",
"598 32 OFFCURVE",
"545 33 OFFCURVE",
"523 55 CURVE SMOOTH",
"508 70 OFFCURVE",
"498 105 OFFCURVE",
"378 625 CURVE SMOOTH",
"273 1082 OFFCURVE",
"257 1155 OFFCURVE",
"256 1167 CURVE SMOOTH",
"257 1187 OFFCURVE",
"318 1187 OFFCURVE",
"380 1187 CURVE SMOOTH",
"463 1187 OFFCURVE",
"552 1187 OFFCURVE",
"552 1211 CURVE SMOOTH",
"552 1242 OFFCURVE",
"420 1245 OFFCURVE",
"208 1245 CURVE SMOOTH",
"-26 1245 OFFCURVE",
"-122 1237 OFFCURVE",
"-122 1209 CURVE SMOOTH",
"-122 1188 OFFCURVE",
"-66 1188 OFFCURVE",
"-3 1188 CURVE SMOOTH",
"72 1188 OFFCURVE",
"150 1188 OFFCURVE",
"170 1167 CURVE SMOOTH",
"193 1142 OFFCURVE",
"214 1048 OFFCURVE",
"315 617 CURVE SMOOTH",
"407 223 OFFCURVE",
"428 112 OFFCURVE",
"428 72 CURVE SMOOTH",
"428 35 OFFCURVE",
"365 30 OFFCURVE",
"280 28 CURVE SMOOTH",
"205 27 OFFCURVE",
"135 22 OFFCURVE",
"135 0 CURVE SMOOTH",
"135 -27 OFFCURVE",
"222 -30 OFFCURVE",
"483 -30 CURVE SMOOTH"
);
}
);
width = 843;
},
{
anchors = (
{
name = bottom;
position = "{680, 0}";
},
{
name = ogonek;
position = "{981, 162}";
},
{
name = top;
position = "{357, 1267}";
},
{
name = topleft;
position = "{-173, 1167}";
}
);
layerId = "AE80B40C-E5A8-4B5C-A94B-22B98FE5A19F";
paths = (
{
closed = 1;
nodes = (
"940 -50 OFFCURVE",
"1118 -37 OFFCURVE",
"1118 110 CURVE SMOOTH",
"1118 191 OFFCURVE",
"1082 270 OFFCURVE",
"992 292 CURVE SMOOTH",
"962 298 OFFCURVE",
"918 312 OFFCURVE",
"887 337 CURVE SMOOTH",
"840 373 OFFCURVE",
"807 478 OFFCURVE",
"785 578 CURVE SMOOTH",
"772 637 OFFCURVE",
"762 692 OFFCURVE",
"762 735 CURVE SMOOTH",
"762 800 OFFCURVE",
"789 833 OFFCURVE",
"872 893 CURVE SMOOTH",
"899 913 OFFCURVE",
"908 942 OFFCURVE",
"908 978 CURVE SMOOTH",
"908 1183 OFFCURVE",
"613 1228 OFFCURVE",
"388 1228 CURVE SMOOTH",
"137 1228 OFFCURVE",
"-40 1194 OFFCURVE",
"-40 1057 CURVE SMOOTH",
"-40 964 OFFCURVE",
"0 916 OFFCURVE",
"75 872 CURVE SMOOTH",
"112 850 OFFCURVE",
"152 820 OFFCURVE",
"167 793 CURVE SMOOTH",
"190 752 OFFCURVE",
"213 657 OFFCURVE",
"225 605 CURVE SMOOTH",
"234 563 OFFCURVE",
"248 479 OFFCURVE",
"248 428 CURVE SMOOTH",
"248 373 OFFCURVE",
"219 350 OFFCURVE",
"152 318 CURVE SMOOTH",
"105 297 OFFCURVE",
"72 263 OFFCURVE",
"72 202 CURVE SMOOTH",
"72 -44 OFFCURVE",
"353 -50 OFFCURVE",
"637 -50 CURVE SMOOTH"
);
}
);
width = 1145;
},
{
anchors = (
{
name = bottom;
position = "{573, 0}";
},
{
name = ogonek;
position = "{933, 162}";
},
{
name = top;
position = "{590, 1267}";
},
{
name = topleft;
position = "{33, 1167}";
}
);
layerId = "6282282A-FA3F-4DEE-9DB6-5D5B2A6C152F";
paths = (
{
closed = 1;
nodes = (
"877 -50 OFFCURVE",
"1065 -33 OFFCURVE",
"1065 163 CURVE SMOOTH",
"1065 243 OFFCURVE",
"1029 279 OFFCURVE",
"975 292 CURVE SMOOTH",
"947 298 OFFCURVE",
"906 311 OFFCURVE",
"880 337 CURVE SMOOTH",
"842 373 OFFCURVE",
"833 478 OFFCURVE",
"833 578 CURVE SMOOTH",
"833 675 OFFCURVE",
"842 759 OFFCURVE",
"878 804 CURVE SMOOTH",
"912 843 OFFCURVE",
"966 871 OFFCURVE",
"993 893 CURVE SMOOTH",
"1035 928 OFFCURVE",
"1055 963 OFFCURVE",
"1055 1033 CURVE SMOOTH",
"1055 1182 OFFCURVE",
"805 1228 OFFCURVE",
"588 1228 CURVE SMOOTH",
"312 1228 OFFCURVE",
"115 1187 OFFCURVE",
"115 1014 CURVE SMOOTH",
"115 927 OFFCURVE",
"144 905 OFFCURVE",
"192 872 CURVE SMOOTH",
"223 850 OFFCURVE",
"257 820 OFFCURVE",
"265 794 CURVE SMOOTH",
"278 752 OFFCURVE",
"280 657 OFFCURVE",
"280 605 CURVE SMOOTH",
"280 550 OFFCURVE",
"270 424 OFFCURVE",
"250 393 CURVE SMOOTH",
"225 355 OFFCURVE",
"192 340 OFFCURVE",
"140 319 CURVE SMOOTH",
"76 292 OFFCURVE",
"28 245 OFFCURVE",
"28 152 CURVE SMOOTH",
"28 -38 OFFCURVE",
"233 -50 OFFCURVE",
"540 -50 CURVE SMOOTH"
);
}
);
width = 1145;
},
{
anchors = (
{
name = bottom;
position = "{425, 0}";
},
{
name = ogonek;
position = "{720, -21}";
},
{
name = top;
position = "{405, 1240}";
},
{
name = topleft;
position = "{-98, 1167}";
}
);
layerId = "4C364951-5780-4BC6-AB35-57CC8C56127C";
paths = (
{
closed = 1;
nodes = (
"673 -30 OFFCURVE",
"747 -27 OFFCURVE",
"747 5 CURVE SMOOTH",
"747 22 OFFCURVE",
"668 28 OFFCURVE",
"597 30 CURVE SMOOTH",
"515 32 OFFCURVE",
"457 35 OFFCURVE",
"440 57 CURVE SMOOTH",
"428 72 OFFCURVE",
"427 115 OFFCURVE",
"427 625 CURVE SMOOTH",
"427 1082 OFFCURVE",
"427 1150 OFFCURVE",
"440 1170 CURVE SMOOTH",
"449 1184 OFFCURVE",
"502 1187 OFFCURVE",
"564 1187 CURVE SMOOTH",
"646 1187 OFFCURVE",
"740 1188 OFFCURVE",
"740 1205 CURVE SMOOTH",
"740 1235 OFFCURVE",
"617 1245 OFFCURVE",
"405 1245 CURVE SMOOTH",
"166 1245 OFFCURVE",
"67 1237 OFFCURVE",
"67 1207 CURVE SMOOTH",
"67 1188 OFFCURVE",
"120 1188 OFFCURVE",
"180 1188 CURVE SMOOTH",
"255 1188 OFFCURVE",
"333 1188 OFFCURVE",
"348 1167 CURVE SMOOTH",
"367 1142 OFFCURVE",
"368 1049 OFFCURVE",
"368 617 CURVE SMOOTH",
"368 145 OFFCURVE",
"363 78 OFFCURVE",
"348 53 CURVE SMOOTH",
"336 32 OFFCURVE",
"270 30 OFFCURVE",
"197 28 CURVE SMOOTH",
"120 25 OFFCURVE",
"45 22 OFFCURVE",
"45 0 CURVE SMOOTH",
"45 -28 OFFCURVE",
"125 -30 OFFCURVE",
"387 -30 CURVE SMOOTH"
);
}
);
width = 843;
}
);
leftKerningGroup = H;
rightKerningGroup = H;
},
{
color = 3;
glyphname = Iogonek;
lastChange = "2021-04-22 10:35:34 +0000";
layers = (
{
anchors = (
{
name = bottom;
position = "{157, 0}";
},
{
name = ogonek;
position = "{137, 12}";
},
{
name = top;
position = "{157, 1167}";
},
{
name = topleft;
position = "{-5, 1167}";
}
);
components = (
{
name = ogonekcomb.case;
transform = "{1, 0, 0, 1, -94, 12}";
}
);
layerId = "4C364951-5780-4BC6-AB35-57CC8C56127C";
paths = (
{
closed = 1;
nodes = (
"157 -7 OFFCURVE",
"170 8 OFFCURVE",
"173 95 CURVE SMOOTH",
"178 228 OFFCURVE",
"180 861 OFFCURVE",
"180 1062 CURVE SMOOTH",
"180 1139 OFFCURVE",
"178 1178 OFFCURVE",
"154 1178 CURVE SMOOTH",
"129 1178 OFFCURVE",
"124 1155 OFFCURVE",
"120 1051 CURVE SMOOTH",
"110 778 OFFCURVE",
"110 146 OFFCURVE",
"110 72 CURVE SMOOTH",
"110 30 OFFCURVE",
"116 -7 OFFCURVE",
"136 -7 CURVE SMOOTH"
);
}
);
width = 290;
},
{
anchors = (
{
name = bottom;
position = "{422, 0}";
},
{
name = ogonek;
position = "{437, 30}";
},
{
name = top;
position = "{422, 1167}";
},
{
name = topleft;
position = "{90, 1167}";
}
);
components = (
{
name = ogonekcomb.case;
transform = "{1, 0, 0, 1, 209, 30}";
}
);
layerId = "6282282A-FA3F-4DEE-9DB6-5D5B2A6C152F";
paths = (
{
closed = 1;
nodes = (
"645 -24 OFFCURVE",
"704 121 OFFCURVE",
"704 483 CURVE SMOOTH",
"704 648 OFFCURVE",
"694 866 OFFCURVE",
"670 990 CURVE SMOOTH",
"647 1108 OFFCURVE",
"575 1199 OFFCURVE",
"427 1199 CURVE SMOOTH",
"243 1199 OFFCURVE",
"169 1110 OFFCURVE",
"135 940 CURVE SMOOTH",
"97 748 OFFCURVE",
"90 521 OFFCURVE",
"90 303 CURVE SMOOTH",
"90 101 OFFCURVE",
"189 -24 OFFCURVE",
"392 -24 CURVE SMOOTH"
);
}
);
width = 794;
},
{
anchors = (
{
name = bottom;
position = "{237, 0}";
},
{
name = ogonek;
position = "{226, 17}";
},
{
name = top;
position = "{-33, 1167}";
},
{
name = topleft;
position = "{-195, 1167}";
}
);
components = (
{
name = ogonekcomb.case;
transform = "{1, 0, 0, 1, -116, 17}";
}
);
layerId = "A5079BDB-9783-4F5E-864F-267B8C6F09C1";
paths = (
{
closed = 1;
nodes = (
"247 -7 OFFCURVE",
"258 0 OFFCURVE",
"258 27 CURVE SMOOTH",
"258 76 OFFCURVE",
"110 719 OFFCURVE",
"31 1062 CURVE SMOOTH",
"13 1139 OFFCURVE",
"2 1178 OFFCURVE",
"-22 1178 CURVE SMOOTH",
"-35 1178 OFFCURVE",
"-41 1172 OFFCURVE",
"-41 1152 CURVE SMOOTH",
"-41 1073 OFFCURVE",
"158 203 OFFCURVE",
"190 72 CURVE SMOOTH",
"200 30 OFFCURVE",
"214 -7 OFFCURVE",
"234 -7 CURVE SMOOTH"
);
}
);
width = 290;
},
{
anchors = (
{
name = bottom;
position = "{469, 0}";
},
{
name = ogonek;
position = "{564, 69}";
},
{
name = top;
position = "{200, 1167}";
},
{
name = topleft;
position = "{-132, 1167}";
}
);
components = (
{
name = ogonekcomb.case;
transform = "{1, 0, 0, 1, 212, 69}";
}
);
layerId = "AE80B40C-E5A8-4B5C-A94B-22B98FE5A19F";
paths = (
{
closed = 1;
nodes = (
"651 -24 OFFCURVE",
"726 48 OFFCURVE",
"726 216 CURVE SMOOTH",
"726 387 OFFCURVE",
"613 811 OFFCURVE",
"537 990 CURVE SMOOTH",
"487 1108 OFFCURVE",
"396 1199 OFFCURVE",
"248 1199 CURVE SMOOTH",
"64 1199 OFFCURVE",
"13 1110 OFFCURVE",
"13 940 CURVE SMOOTH",
"13 748 OFFCURVE",
"65 521 OFFCURVE",
"116 303 CURVE SMOOTH",
"163 101 OFFCURVE",
"270 -24 OFFCURVE",
"473 -24 CURVE SMOOTH"
);
}
);
width = 793;
},
{
anchors = (
{
name = bottom;
position = "{41, 0}";
},
{
name = ogonek;
position = "{48, 20}";
},
{
name = top;
position = "{329, 1167}";
},
{
name = topleft;
position = "{167, 1167}";
}
);
components = (
{
name = ogonekcomb.case;
transform = "{1, 0, 0, 1, -89, 20}";
}
);
layerId = "AE979D1C-FDDA-49FD-8CD9-3E2A42843A18";
paths = (
{
closed = 1;
nodes = (
"60 -7 OFFCURVE",
"77 8 OFFCURVE",
"100 95 CURVE SMOOTH",
"139 244 OFFCURVE",
"346 1109 OFFCURVE",
"346 1154 CURVE SMOOTH",
"346 1170 OFFCURVE",
"342 1178 OFFCURVE",
"331 1178 CURVE SMOOTH",
"306 1178 OFFCURVE",
"295 1155 OFFCURVE",
"267 1051 CURVE SMOOTH",
"214 853 OFFCURVE",
"24 68 OFFCURVE",
"24 21 CURVE SMOOTH",
"24 4 OFFCURVE",
"28 -7 OFFCURVE",
"39 -7 CURVE SMOOTH"
);
}
);
width = 291;
},
{
anchors = (
{
name = bottom;
position = "{279, 0}";
},
{
name = ogonek;
position = "{430, 84}";
},
{
name = top;
position = "{548, 1167}";
},
{
name = topleft;
position = "{216, 1167}";
}
);
components = (
{
name = ogonekcomb.case;
transform = "{1, 0, 0, 1, 292, 84}";
}
);
layerId = "307B7D8E-54CC-4996-A0B0-7E3456408354";
paths = (
{
closed = 1;
nodes = (
"558 -24 OFFCURVE",
"640 121 OFFCURVE",
"724 483 CURVE SMOOTH",
"762 648 OFFCURVE",
"807 866 OFFCURVE",
"807 990 CURVE SMOOTH",
"807 1108 OFFCURVE",
"748 1199 OFFCURVE",
"590 1199 CURVE SMOOTH",
"416 1199 OFFCURVE",
"335 1110 OFFCURVE",
"261 940 CURVE SMOOTH",
"176 744 OFFCURVE",
"59 375 OFFCURVE",
"59 209 CURVE SMOOTH",
"59 63 OFFCURVE",
"136 -24 OFFCURVE",
"305 -24 CURVE SMOOTH"
);
}
);
width = 799;
}
);
unicode = 012E;
},
{
color = 3;
glyphname = Iogonek.ss01;
lastChange = "2021-04-22 10:35:34 +0000";
layers = (
{
anchors = (
{
name = bottom;
position = "{498, 0}";
},
{
name = ogonek;
position = "{889, 162}";
},
{
name = top;
position = "{807, 1267}";
},
{
name = topleft;
position = "{227, 1167}";
}
);
components = (
{
name = ogonekcomb;
transform = "{1, 0, 0, 1, 765, 162}";
}
);
layerId = "307B7D8E-54CC-4996-A0B0-7E3456408354";
paths = (
{
closed = 1;
nodes = (
"733 -50 OFFCURVE",
"1022 -40 OFFCURVE",
"1022 208 CURVE SMOOTH",
"1022 257 OFFCURVE",
"997 282 OFFCURVE",
"957 292 CURVE SMOOTH",
"882 310 OFFCURVE",
"855 336 OFFCURVE",
"855 405 CURVE SMOOTH",
"855 453 OFFCURVE",
"867 517 OFFCURVE",
"880 578 CURVE SMOOTH",
"902 675 OFFCURVE",
"932 760 OFFCURVE",
"978 803 CURVE SMOOTH",
"1020 843 OFFCURVE",
"1082 870 OFFCURVE",
"1113 893 CURVE SMOOTH",
"1173 939 OFFCURVE",
"1212 997 OFFCURVE",
"1212 1062 CURVE SMOOTH",
"1212 1188 OFFCURVE",
"988 1228 OFFCURVE",
"787 1228 CURVE SMOOTH",
"523 1228 OFFCURVE",
"257 1192 OFFCURVE",
"257 955 CURVE SMOOTH",
"257 917 OFFCURVE",
"275 890 OFFCURVE",
"307 872 CURVE SMOOTH",
"339 854 OFFCURVE",
"362 830 OFFCURVE",
"362 793 CURVE SMOOTH",
"362 752 OFFCURVE",
"345 657 OFFCURVE",
"333 605 CURVE SMOOTH",
"322 550 OFFCURVE",
"281 424 OFFCURVE",
"255 393 CURVE SMOOTH",
"223 355 OFFCURVE",
"183 339 OFFCURVE",
"127 318 CURVE SMOOTH",
"30 282 OFFCURVE",
"-30 200 OFFCURVE",
"-30 105 CURVE SMOOTH",
"-30 -40 OFFCURVE",
"163 -50 OFFCURVE",
"442 -50 CURVE SMOOTH"
);
}
);
width = 1145;
},
{
anchors = (
{
name = bottom;
position = "{350, 0}";
},
{
name = ogonek;
position = "{644, -27}";
},
{
name = top;
position = "{615, 1240}";
},
{
name = topleft;
position = "{95, 1167}";
}
);
components = (
{
name = ogonekcomb;
transform = "{1, 0, 0, 1, 532, -24}";
}
);
layerId = "AE979D1C-FDDA-49FD-8CD9-3E2A42843A18";
paths = (
{
closed = 1;
nodes = (
"588 -30 OFFCURVE",
"670 -28 OFFCURVE",
"670 -3 CURVE SMOOTH",
"670 21 OFFCURVE",
"597 28 OFFCURVE",
"525 30 CURVE SMOOTH",
"430 33 OFFCURVE",
"375 37 OFFCURVE",
"375 57 CURVE SMOOTH",
"375 77 OFFCURVE",
"375 115 OFFCURVE",
"492 625 CURVE SMOOTH",
"597 1082 OFFCURVE",
"615 1148 OFFCURVE",
"632 1170 CURVE SMOOTH",
"644 1185 OFFCURVE",
"697 1187 OFFCURVE",
"758 1187 CURVE SMOOTH",
"842 1187 OFFCURVE",
"940 1188 OFFCURVE",
"940 1214 CURVE SMOOTH",
"940 1235 OFFCURVE",
"883 1245 OFFCURVE",
"613 1245 CURVE SMOOTH",
"368 1245 OFFCURVE",
"267 1236 OFFCURVE",
"267 1205 CURVE SMOOTH",
"267 1188 OFFCURVE",
"317 1188 OFFCURVE",
"375 1188 CURVE SMOOTH",
"454 1188 OFFCURVE",
"542 1188 OFFCURVE",
"542 1148 CURVE SMOOTH",
"542 1105 OFFCURVE",
"513 980 OFFCURVE",
"428 617 CURVE SMOOTH",
"318 145 OFFCURVE",
"301 80 OFFCURVE",
"282 55 CURVE SMOOTH",
"266 33 OFFCURVE",
"198 30 OFFCURVE",
"125 28 CURVE SMOOTH",
"43 26 OFFCURVE",
"-34 21 OFFCURVE",
"-34 -3 CURVE SMOOTH",
"-34 -28 OFFCURVE",
"50 -30 OFFCURVE",
"302 -30 CURVE SMOOTH"
);
}
);
width = 843;
},
{
anchors = (
{
name = bottom;
position = "{545, 0}";
},
{
name = ogonek;
position = "{810, -22}";
},
{
name = top;
position = "{193, 1240}";
},
{
name = topleft;
position = "{-292, 1167}";
}
);
components = (
{
name = ogonekcomb;
transform = "{1, 0, 0, 1, 463, -26}";
}
);
layerId = "A5079BDB-9783-4F5E-864F-267B8C6F09C1";
paths = (
{
closed = 1;
nodes = (
"770 -30 OFFCURVE",
"835 -27 OFFCURVE",
"835 -2 CURVE SMOOTH",
"835 22 OFFCURVE",
"752 27 OFFCURVE",
"680 30 CURVE SMOOTH",
"598 33 OFFCURVE",
"545 35 OFFCURVE",
"523 55 CURVE SMOOTH",
"507 69 OFFCURVE",
"498 105 OFFCURVE",
"378 625 CURVE SMOOTH",
"273 1082 OFFCURVE",
"256 1157 OFFCURVE",
"256 1167 CURVE SMOOTH",
"256 1187 OFFCURVE",
"318 1187 OFFCURVE",
"380 1187 CURVE SMOOTH",
"463 1187 OFFCURVE",
"552 1187 OFFCURVE",
"552 1211 CURVE SMOOTH",
"552 1242 OFFCURVE",
"420 1245 OFFCURVE",
"208 1245 CURVE SMOOTH",
"-26 1245 OFFCURVE",
"-122 1237 OFFCURVE",
"-122 1209 CURVE SMOOTH",
"-122 1188 OFFCURVE",
"-66 1188 OFFCURVE",
"-3 1188 CURVE SMOOTH",
"72 1188 OFFCURVE",
"148 1188 OFFCURVE",
"168 1167 CURVE SMOOTH",
"191 1142 OFFCURVE",
"214 1048 OFFCURVE",
"315 617 CURVE SMOOTH",
"407 223 OFFCURVE",
"428 112 OFFCURVE",
"428 72 CURVE SMOOTH",
"428 35 OFFCURVE",
"365 31 OFFCURVE",
"280 28 CURVE SMOOTH",
"205 25 OFFCURVE",
"135 22 OFFCURVE",
"135 0 CURVE SMOOTH",
"135 -27 OFFCURVE",
"222 -30 OFFCURVE",
"483 -30 CURVE SMOOTH"
);
}
);
width = 843;
},
{
anchors = (
{
name = bottom;
position = "{680, 0}";
},
{
name = ogonek;
position = "{981, 162}";
},
{
name = top;
position = "{357, 1267}";
},
{
name = topleft;
position = "{-173, 1167}";
}
);
components = (
{
name = ogonekcomb;
transform = "{1, 0, 0, 1, 619, 100}";
}
);
layerId = "AE80B40C-E5A8-4B5C-A94B-22B98FE5A19F";
paths = (
{
closed = 1;
nodes = (
"940 -50 OFFCURVE",
"1118 -37 OFFCURVE",
"1118 110 CURVE SMOOTH",
"1118 191 OFFCURVE",
"1083 276 OFFCURVE",
"992 292 CURVE SMOOTH",
"964 297 OFFCURVE",
"921 310 OFFCURVE",
"887 337 CURVE SMOOTH",
"841 374 OFFCURVE",
"807 478 OFFCURVE",
"785 578 CURVE SMOOTH",
"772 637 OFFCURVE",
"762 692 OFFCURVE",
"762 735 CURVE SMOOTH",
"762 800 OFFCURVE",
"789 833 OFFCURVE",
"872 893 CURVE SMOOTH",
"899 913 OFFCURVE",
"908 942 OFFCURVE",
"908 978 CURVE SMOOTH",
"908 1183 OFFCURVE",
"613 1228 OFFCURVE",
"388 1228 CURVE SMOOTH",
"137 1228 OFFCURVE",
"-40 1194 OFFCURVE",
"-40 1057 CURVE SMOOTH",
"-40 964 OFFCURVE",
"0 916 OFFCURVE",
"75 872 CURVE SMOOTH",
"112 850 OFFCURVE",
"152 820 OFFCURVE",
"167 793 CURVE SMOOTH",
"190 752 OFFCURVE",
"213 657 OFFCURVE",
"225 605 CURVE SMOOTH",
"234 563 OFFCURVE",
"248 479 OFFCURVE",
"248 428 CURVE SMOOTH",
"248 373 OFFCURVE",
"218 350 OFFCURVE",
"152 318 CURVE SMOOTH",
"106 296 OFFCURVE",
"72 263 OFFCURVE",
"72 202 CURVE SMOOTH",
"72 -44 OFFCURVE",
"353 -50 OFFCURVE",
"637 -50 CURVE SMOOTH"
);
}
);
width = 1145;
},
{
anchors = (
{
name = bottom;
position = "{573, 0}";
},
{
name = ogonek;
position = "{933, 162}";
},
{
name = top;
position = "{590, 1267}";
},
{
name = topleft;
position = "{33, 1167}";
}
);
components = (
{
name = ogonekcomb;
transform = "{1, 0, 0, 1, 713, 132}";
}
);
layerId = "6282282A-FA3F-4DEE-9DB6-5D5B2A6C152F";
paths = (
{
closed = 1;
nodes = (
"877 -50 OFFCURVE",
"1065 -33 OFFCURVE",
"1065 163 CURVE SMOOTH",
"1065 243 OFFCURVE",
"1029 279 OFFCURVE",
"975 292 CURVE SMOOTH",
"947 298 OFFCURVE",
"906 311 OFFCURVE",
"880 337 CURVE SMOOTH",
"843 374 OFFCURVE",
"833 478 OFFCURVE",
"833 578 CURVE SMOOTH",
"833 675 OFFCURVE",
"842 759 OFFCURVE",
"878 804 CURVE SMOOTH",
"912 843 OFFCURVE",
"966 871 OFFCURVE",
"993 893 CURVE SMOOTH",
"1035 928 OFFCURVE",
"1055 963 OFFCURVE",
"1055 1033 CURVE SMOOTH",
"1055 1182 OFFCURVE",
"805 1228 OFFCURVE",
"588 1228 CURVE SMOOTH",
"312 1228 OFFCURVE",
"115 1187 OFFCURVE",
"115 1014 CURVE SMOOTH",
"115 927 OFFCURVE",
"144 905 OFFCURVE",
"192 872 CURVE SMOOTH",
"223 850 OFFCURVE",
"257 820 OFFCURVE",
"265 794 CURVE SMOOTH",
"278 752 OFFCURVE",
"280 657 OFFCURVE",
"280 605 CURVE SMOOTH",
"280 550 OFFCURVE",
"270 424 OFFCURVE",
"250 393 CURVE SMOOTH",
"225 355 OFFCURVE",
"192 340 OFFCURVE",
"140 319 CURVE SMOOTH",
"76 292 OFFCURVE",
"28 245 OFFCURVE",
"28 152 CURVE SMOOTH",
"28 -38 OFFCURVE",
"233 -50 OFFCURVE",
"540 -50 CURVE SMOOTH"
);
}
);
width = 1145;
},
{
anchors = (
{
name = bottom;
position = "{425, 0}";
},
{
name = ogonek;
position = "{720, -21}";
},
{
name = top;
position = "{405, 1240}";
},
{
name = topleft;
position = "{-98, 1167}";
}
);
components = (
{
name = ogonekcomb;
transform = "{1, 0, 0, 1, 489, -21}";
}
);
layerId = "4C364951-5780-4BC6-AB35-57CC8C56127C";
paths = (
{
closed = 1;
nodes = (
"673 -30 OFFCURVE",
"747 -27 OFFCURVE",
"747 5 CURVE SMOOTH",
"747 22 OFFCURVE",
"668 28 OFFCURVE",
"597 30 CURVE SMOOTH",
"515 32 OFFCURVE",
"457 35 OFFCURVE",
"440 57 CURVE SMOOTH",
"428 72 OFFCURVE",
"427 115 OFFCURVE",
"427 625 CURVE SMOOTH",
"427 1082 OFFCURVE",
"427 1150 OFFCURVE",
"440 1170 CURVE SMOOTH",
"449 1184 OFFCURVE",
"502 1187 OFFCURVE",
"564 1187 CURVE SMOOTH",
"646 1187 OFFCURVE",
"740 1188 OFFCURVE",
"740 1205 CURVE SMOOTH",
"740 1235 OFFCURVE",
"617 1245 OFFCURVE",
"405 1245 CURVE SMOOTH",
"166 1245 OFFCURVE",
"67 1237 OFFCURVE",
"67 1207 CURVE SMOOTH",
"67 1188 OFFCURVE",
"120 1188 OFFCURVE",
"180 1188 CURVE SMOOTH",
"255 1188 OFFCURVE",
"333 1188 OFFCURVE",
"348 1167 CURVE SMOOTH",
"367 1142 OFFCURVE",
"368 1049 OFFCURVE",
"368 617 CURVE SMOOTH",
"368 145 OFFCURVE",
"363 78 OFFCURVE",
"348 53 CURVE SMOOTH",
"336 32 OFFCURVE",
"270 30 OFFCURVE",
"197 28 CURVE SMOOTH",
"120 26 OFFCURVE",
"45 22 OFFCURVE",
"45 0 CURVE SMOOTH",
"45 -28 OFFCURVE",
"125 -30 OFFCURVE",
"387 -30 CURVE SMOOTH"
);
}
);
width = 843;
}
);
leftKerningGroup = H;
rightKerningGroup = H;
},
{
color = 6;
glyphname = J;
lastChange = "2021-04-22 10:35:34 +0000";
layers = (
{
anchors = (
{
name = bottom;
position = "{627, 0}";
},
{
name = top;
position = "{1111, 1194}";
}
);
layerId = "307B7D8E-54CC-4996-A0B0-7E3456408354";
paths = (
{
closed = 1;
nodes = (
"718 -92 OFFCURVE",
"909 -27 OFFCURVE",
"1073 112 CURVE SMOOTH",
"1278 285 OFFCURVE",
"1435 643 OFFCURVE",
"1435 905 CURVE SMOOTH",
"1435 978 OFFCURVE",
"1422 1042 OFFCURVE",
"1395 1095 CURVE SMOOTH",
"1350 1185 OFFCURVE",
"1263 1238 OFFCURVE",
"1130 1238 CURVE SMOOTH",
"853 1238 OFFCURVE",
"783 1122 OFFCURVE",
"747 963 CURVE SMOOTH",
"721 850 OFFCURVE",
"672 582 OFFCURVE",
"660 528 CURVE SMOOTH",
"641 442 OFFCURVE",
"613 423 OFFCURVE",
"595 413 CURVE SMOOTH",
"583 406 OFFCURVE",
"573 405 OFFCURVE",
"553 405 CURVE SMOOTH",
"530 405 OFFCURVE",
"513 413 OFFCURVE",
"505 435 CURVE SMOOTH",
"497 458 OFFCURVE",
"490 488 OFFCURVE",
"480 517 CURVE SMOOTH",
"464 563 OFFCURVE",
"423 587 OFFCURVE",
"322 587 CURVE SMOOTH",
"126 587 OFFCURVE",
"-8 442 OFFCURVE",
"-8 250 CURVE SMOOTH",
"-8 162 OFFCURVE",
"22 94 OFFCURVE",
"73 42 CURVE SMOOTH",
"167 -53 OFFCURVE",
"335 -92 OFFCURVE",
"527 -92 CURVE SMOOTH"
);
}
);
width = 1403;
},
{
anchors = (
{
name = bottom;
position = "{510, 0}";
},
{
name = top;
position = "{996, 1167}";
}
);
layerId = "AE979D1C-FDDA-49FD-8CD9-3E2A42843A18";
paths = (
{
closed = 1;
nodes = (
"442 -57 OFFCURVE",
"565 -30 OFFCURVE",
"665 67 CURVE SMOOTH",
"759 159 OFFCURVE",
"858 278 OFFCURVE",
"950 685 CURVE SMOOTH",
"1006 932 OFFCURVE",
"1029 1091 OFFCURVE",
"1029 1172 CURVE SMOOTH",
"1029 1209 OFFCURVE",
"1026 1238 OFFCURVE",
"1005 1238 CURVE SMOOTH",
"997 1238 OFFCURVE",
"983 1237 OFFCURVE",
"978 1215 CURVE SMOOTH",
"969 1177 OFFCURVE",
"974 1067 OFFCURVE",
"893 719 CURVE SMOOTH",
"840 490 OFFCURVE",
"771 257 OFFCURVE",
"639 128 CURVE SMOOTH",
"559 50 OFFCURVE",
"480 13 OFFCURVE",
"348 13 CURVE SMOOTH",
"175 13 OFFCURVE",
"102 108 OFFCURVE",
"102 263 CURVE SMOOTH",
"102 381 OFFCURVE",
"125 427 OFFCURVE",
"125 490 CURVE SMOOTH",
"125 514 OFFCURVE",
"118 522 OFFCURVE",
"105 522 CURVE SMOOTH",
"55 522 OFFCURVE",
"36 346 OFFCURVE",
"36 261 CURVE SMOOTH",
"36 182 OFFCURVE",
"52 108 OFFCURVE",
"91 50 CURVE SMOOTH",
"134 -14 OFFCURVE",
"227 -57 OFFCURVE",
"339 -57 CURVE SMOOTH"
);
}
);
width = 963;
},
{
anchors = (
{
name = bottom;
position = "{692, 0}";
},
{
name = top;
position = "{622, 1166}";
}
);
layerId = "A5079BDB-9783-4F5E-864F-267B8C6F09C1";
paths = (
{
closed = 1;
nodes = (
"624 -57 OFFCURVE",
"704 -27 OFFCURVE",
"759 30 CURVE SMOOTH",
"820 93 OFFCURVE",
"849 189 OFFCURVE",
"849 313 CURVE SMOOTH",
"849 517 OFFCURVE",
"709 1026 OFFCURVE",
"632 1208 CURVE SMOOTH",
"623 1229 OFFCURVE",
"612 1238 OFFCURVE",
"598 1238 CURVE SMOOTH",
"591 1238 OFFCURVE",
"580 1232 OFFCURVE",
"580 1218 CURVE SMOOTH",
"580 1174 OFFCURVE",
"784 615 OFFCURVE",
"784 320 CURVE SMOOTH",
"784 210 OFFCURVE",
"761 131 OFFCURVE",
"710 80 CURVE SMOOTH",
"665 35 OFFCURVE",
"598 13 OFFCURVE",
"505 13 CURVE SMOOTH",
"418 13 OFFCURVE",
"332 45 OFFCURVE",
"279 90 CURVE SMOOTH",
"186 169 OFFCURVE",
"122 297 OFFCURVE",
"97 388 CURVE SMOOTH",
"68 495 OFFCURVE",
"53 522 OFFCURVE",
"28 522 CURVE SMOOTH",
"14 522 OFFCURVE",
"8 511 OFFCURVE",
"8 490 CURVE SMOOTH",
"8 363 OFFCURVE",
"113 144 OFFCURVE",
"219 50 CURVE SMOOTH",
"292 -14 OFFCURVE",
"403 -57 OFFCURVE",
"515 -57 CURVE SMOOTH"
);
}
);
width = 963;
},
{
anchors = (
{
name = bottom;
position = "{808, 0}";
},
{
name = top;
position = "{752, 1194}";
}
);
layerId = "AE80B40C-E5A8-4B5C-A94B-22B98FE5A19F";
paths = (
{
closed = 1;
nodes = (
"918 -92 OFFCURVE",
"1066 -37 OFFCURVE",
"1164 70 CURVE SMOOTH",
"1247 161 OFFCURVE",
"1293 289 OFFCURVE",
"1293 452 CURVE SMOOTH",
"1293 673 OFFCURVE",
"1219 943 OFFCURVE",
"1072 1095 CURVE SMOOTH",
"985 1185 OFFCURVE",
"873 1238 OFFCURVE",
"740 1238 CURVE SMOOTH",
"529 1238 OFFCURVE",
"468 1167 OFFCURVE",
"468 1067 CURVE SMOOTH",
"468 941 OFFCURVE",
"605 562 OFFCURVE",
"605 465 CURVE SMOOTH",
"605 444 OFFCURVE",
"601 430 OFFCURVE",
"593 421 CURVE SMOOTH",
"583 409 OFFCURVE",
"568 405 OFFCURVE",
"547 405 CURVE SMOOTH",
"523 405 OFFCURVE",
"503 413 OFFCURVE",
"485 435 CURVE SMOOTH",
"466 459 OFFCURVE",
"447 488 OFFCURVE",
"423 517 CURVE SMOOTH",
"385 563 OFFCURVE",
"327 587 OFFCURVE",
"262 587 CURVE SMOOTH",
"127 587 OFFCURVE",
"28 511 OFFCURVE",
"28 382 CURVE SMOOTH",
"28 342 OFFCURVE",
"41 286 OFFCURVE",
"58 250 CURVE SMOOTH",
"175 0 OFFCURVE",
"438 -92 OFFCURVE",
"733 -92 CURVE SMOOTH"
);
}
);
width = 1403;
},
{
anchors = (
{
name = bottom;
position = "{702, 0}";
},
{
name = top;
position = "{905, 1194}";
}
);
layerId = "6282282A-FA3F-4DEE-9DB6-5D5B2A6C152F";
paths = (
{
closed = 1;
nodes = (
"805 -92 OFFCURVE",
"992 -28 OFFCURVE",
"1125 112 CURVE SMOOTH",
"1246 239 OFFCURVE",
"1327 438 OFFCURVE",
"1327 725 CURVE SMOOTH",
"1327 873 OFFCURVE",
"1293 1001 OFFCURVE",
"1225 1095 CURVE SMOOTH",
"1160 1185 OFFCURVE",
"1060 1238 OFFCURVE",
"927 1238 CURVE SMOOTH",
"650 1238 OFFCURVE",
"607 1122 OFFCURVE",
"607 963 CURVE SMOOTH",
"607 849 OFFCURVE",
"621 582 OFFCURVE",
"621 528 CURVE SMOOTH",
"621 442 OFFCURVE",
"597 424 OFFCURVE",
"582 413 CURVE SMOOTH",
"573 406 OFFCURVE",
"562 405 OFFCURVE",
"541 405 CURVE SMOOTH",
"518 405 OFFCURVE",
"498 413 OFFCURVE",
"486 435 CURVE SMOOTH",
"473 459 OFFCURVE",
"460 488 OFFCURVE",
"443 517 CURVE SMOOTH",
"416 564 OFFCURVE",
"363 587 OFFCURVE",
"298 587 CURVE SMOOTH",
"143 587 OFFCURVE",
"10 487 OFFCURVE",
"10 322 CURVE SMOOTH",
"10 227 OFFCURVE",
"42 128 OFFCURVE",
"114 58 CURVE SMOOTH",
"225 -50 OFFCURVE",
"409 -92 OFFCURVE",
"613 -92 CURVE SMOOTH"
);
}
);
width = 1403;
},
{
anchors = (
{
name = bottom;
position = "{585, 0}";
},
{
name = top;
position = "{802, 1166}";
}
);
layerId = "4C364951-5780-4BC6-AB35-57CC8C56127C";
paths = (
{
closed = 1;
nodes = (
"523 -57 OFFCURVE",
"639 -30 OFFCURVE",
"718 67 CURVE SMOOTH",
"792 158 OFFCURVE",
"867 278 OFFCURVE",
"867 685 CURVE SMOOTH",
"867 977 OFFCURVE",
"848 1145 OFFCURVE",
"823 1208 CURVE SMOOTH",
"815 1228 OFFCURVE",
"809 1238 OFFCURVE",
"795 1238 CURVE SMOOTH",
"787 1238 OFFCURVE",
"773 1237 OFFCURVE",
"773 1215 CURVE SMOOTH",
"773 1176 OFFCURVE",
"802 1067 OFFCURVE",
"802 719 CURVE SMOOTH",
"802 490 OFFCURVE",
"787 257 OFFCURVE",
"685 128 CURVE SMOOTH",
"623 50 OFFCURVE",
"552 13 OFFCURVE",
"420 13 CURVE SMOOTH",
"286 13 OFFCURVE",
"197 69 OFFCURVE",
"143 189 CURVE SMOOTH",
"113 256 OFFCURVE",
"100 332 OFFCURVE",
"95 429 CURVE SMOOTH",
"91 502 OFFCURVE",
"81 522 OFFCURVE",
"60 522 CURVE SMOOTH",
"37 522 OFFCURVE",
"27 492 OFFCURVE",
"27 428 CURVE SMOOTH",
"27 293 OFFCURVE",
"61 148 OFFCURVE",
"148 50 CURVE SMOOTH",
"205 -15 OFFCURVE",
"308 -57 OFFCURVE",
"420 -57 CURVE SMOOTH"
);
}
);
width = 963;
}
);
leftKerningGroup = J;
rightKerningGroup = J;
unicode = 004A;
},
{
color = 6;
glyphname = K;
lastChange = "2021-04-22 10:35:34 +0000";
layers = (
{
anchors = (
{
name = bottom;
position = "{735, 0}";
},
{
name = top;
position = "{1003, 1167}";
}
);
layerId = "307B7D8E-54CC-4996-A0B0-7E3456408354";
paths = (
{
closed = 1;
nodes = (
"490 -22 OFFCURVE",
"600 58 OFFCURVE",
"660 217 CURVE SMOOTH",
"674 254 OFFCURVE",
"683 290 OFFCURVE",
"690 318 CURVE SMOOTH",
"699 353 OFFCURVE",
"713 379 OFFCURVE",
"737 379 CURVE SMOOTH",
"771 379 OFFCURVE",
"784 353 OFFCURVE",
"830 248 CURVE SMOOTH",
"854 193 OFFCURVE",
"901 94 OFFCURVE",
"961 47 CURVE SMOOTH",
"1017 3 OFFCURVE",
"1099 -27 OFFCURVE",
"1185 -27 CURVE SMOOTH",
"1360 -27 OFFCURVE",
"1507 70 OFFCURVE",
"1507 234 CURVE SMOOTH",
"1507 274 OFFCURVE",
"1492 307 OFFCURVE",
"1466 340 CURVE SMOOTH",
"1438 376 OFFCURVE",
"1344 461 OFFCURVE",
"1291 507 CURVE SMOOTH",
"1263 531 OFFCURVE",
"1256 546 OFFCURVE",
"1256 560 CURVE SMOOTH",
"1256 596 OFFCURVE",
"1317 621 OFFCURVE",
"1389 649 CURVE SMOOTH",
"1483 685 OFFCURVE",
"1557 724 OFFCURVE",
"1618 768 CURVE SMOOTH",
"1708 833 OFFCURVE",
"1771 922 OFFCURVE",
"1771 1024 CURVE SMOOTH",
"1771 1109 OFFCURVE",
"1722 1182 OFFCURVE",
"1593 1182 CURVE SMOOTH",
"1475 1182 OFFCURVE",
"1399 1155 OFFCURVE",
"1294 1080 CURVE SMOOTH",
"1217 1025 OFFCURVE",
"1106 921 OFFCURVE",
"1032 848 CURVE SMOOTH",
"992 809 OFFCURVE",
"962 794 OFFCURVE",
"932 794 CURVE SMOOTH",
"899 794 OFFCURVE",
"882 798 OFFCURVE",
"882 831 CURVE SMOOTH",
"882 889 OFFCURVE",
"924 1008 OFFCURVE",
"924 1076 CURVE SMOOTH",
"924 1176 OFFCURVE",
"858 1237 OFFCURVE",
"741 1237 CURVE SMOOTH",
"585 1237 OFFCURVE",
"460 1192 OFFCURVE",
"364 1092 CURVE SMOOTH",
"222 945 OFFCURVE",
"136 699 OFFCURVE",
"86 484 CURVE SMOOTH",
"66 398 OFFCURVE",
"43 282 OFFCURVE",
"43 207 CURVE SMOOTH",
"43 42 OFFCURVE",
"148 -22 OFFCURVE",
"329 -22 CURVE SMOOTH"
);
}
);
width = 1650;
},
{
anchors = (
{
name = bottom;
position = "{400, 0}";
},
{
name = top;
position = "{670, 1167}";
}
);
layerId = "AE979D1C-FDDA-49FD-8CD9-3E2A42843A18";
paths = (
{
closed = 1;
nodes = (
"59 -17 OFFCURVE",
"68 20 OFFCURVE",
"104 173 CURVE SMOOTH",
"115 220 OFFCURVE",
"196 544 OFFCURVE",
"200 558 CURVE SMOOTH",
"207 581 OFFCURVE",
"211 585 OFFCURVE",
"220 585 CURVE SMOOTH",
"226 585 OFFCURVE",
"240 582 OFFCURVE",
"254 564 CURVE SMOOTH",
"318 485 OFFCURVE",
"392 393 OFFCURVE",
"569 175 CURVE SMOOTH",
"681 37 OFFCURVE",
"725 -6 OFFCURVE",
"758 -6 CURVE SMOOTH",
"772 -6 OFFCURVE",
"780 0 OFFCURVE",
"780 15 CURVE SMOOTH",
"780 34 OFFCURVE",
"737 89 OFFCURVE",
"617 226 CURVE SMOOTH",
"583 265 OFFCURVE",
"367 524 OFFCURVE",
"324 572 CURVE SMOOTH",
"311 587 OFFCURVE",
"306 599 OFFCURVE",
"306 609 CURVE SMOOTH",
"306 620 OFFCURVE",
"315 631 OFFCURVE",
"348 649 CURVE SMOOTH",
"447 704 OFFCURVE",
"689 840 OFFCURVE",
"847 946 CURVE SMOOTH",
"932 1003 OFFCURVE",
"1085 1108 OFFCURVE",
"1085 1130 CURVE SMOOTH",
"1085 1139 OFFCURVE",
"1080 1142 OFFCURVE",
"1068 1142 CURVE SMOOTH",
"1043 1142 OFFCURVE",
"937 1075 OFFCURVE",
"797 985 CURVE SMOOTH",
"591 852 OFFCURVE",
"431 755 OFFCURVE",
"332 703 CURVE SMOOTH",
"296 684 OFFCURVE",
"273 674 OFFCURVE",
"252 674 CURVE SMOOTH",
"242 674 OFFCURVE",
"238 679 OFFCURVE",
"238 688 CURVE SMOOTH",
"238 744 OFFCURVE",
"435 1204 OFFCURVE",
"435 1240 CURVE SMOOTH",
"435 1250 OFFCURVE",
"432 1258 OFFCURVE",
"422 1258 CURVE SMOOTH",
"399 1258 OFFCURVE",
"382 1237 OFFCURVE",
"358 1188 CURVE SMOOTH",
"269 1006 OFFCURVE",
"205 817 OFFCURVE",
"150 624 CURVE SMOOTH",
"104 464 OFFCURVE",
"6 87 OFFCURVE",
"6 15 CURVE SMOOTH",
"6 -8 OFFCURVE",
"12 -17 OFFCURVE",
"23 -17 CURVE SMOOTH"
);
}
);
width = 958;
},
{
anchors = (
{
name = bottom;
position = "{623, 0}";
},
{
name = top;
position = "{309, 1167}";
}
);
layerId = "A5079BDB-9783-4F5E-864F-267B8C6F09C1";
paths = (
{
closed = 1;
nodes = (
"239 -17 OFFCURVE",
"246 -10 OFFCURVE",
"246 13 CURVE SMOOTH",
"246 70 OFFCURVE",
"130 517 OFFCURVE",
"130 574 CURVE SMOOTH",
"130 583 OFFCURVE",
"135 585 OFFCURVE",
"141 585 CURVE SMOOTH",
"147 585 OFFCURVE",
"163 580 OFFCURVE",
"185 562 CURVE SMOOTH",
"284 481 OFFCURVE",
"372 414 OFFCURVE",
"674 170 CURVE SMOOTH",
"847 30 OFFCURVE",
"910 -6 OFFCURVE",
"943 -6 CURVE SMOOTH",
"958 -6 OFFCURVE",
"965 -2 OFFCURVE",
"965 8 CURVE SMOOTH",
"965 34 OFFCURVE",
"891 91 OFFCURVE",
"712 226 CURVE SMOOTH",
"660 265 OFFCURVE",
"322 533 OFFCURVE",
"256 582 CURVE SMOOTH",
"229 602 OFFCURVE",
"218 617 OFFCURVE",
"218 627 CURVE SMOOTH",
"218 636 OFFCURVE",
"224 646 OFFCURVE",
"242 660 CURVE SMOOTH",
"315 715 OFFCURVE",
"482 848 OFFCURVE",
"602 948 CURVE SMOOTH",
"706 1035 OFFCURVE",
"755 1102 OFFCURVE",
"755 1128 CURVE SMOOTH",
"755 1140 OFFCURVE",
"753 1142 OFFCURVE",
"742 1142 CURVE SMOOTH",
"723 1142 OFFCURVE",
"650 1080 OFFCURVE",
"548 985 CURVE SMOOTH",
"413 859 OFFCURVE",
"275 757 OFFCURVE",
"199 701 CURVE SMOOTH",
"171 681 OFFCURVE",
"154 674 OFFCURVE",
"133 674 CURVE SMOOTH",
"114 674 OFFCURVE",
"109 689 OFFCURVE",
"101 724 CURVE SMOOTH",
"84 802 OFFCURVE",
"65 1196 OFFCURVE",
"59 1229 CURVE SMOOTH",
"56 1244 OFFCURVE",
"46 1258 OFFCURVE",
"33 1258 CURVE SMOOTH",
"1 1258 OFFCURVE",
"0 1201 OFFCURVE",
"0 1121 CURVE SMOOTH",
"0 979 OFFCURVE",
"24 794 OFFCURVE",
"53 624 CURVE SMOOTH",
"79 474 OFFCURVE",
"112 320 OFFCURVE",
"150 159 CURVE SMOOTH",
"181 28 OFFCURVE",
"197 -17 OFFCURVE",
"222 -17 CURVE SMOOTH"
);
}
);
width = 961;
},
{
anchors = (
{
name = bottom;
position = "{934, 0}";
},
{
name = top;
position = "{746, 1167}";
}
);
layerId = "AE80B40C-E5A8-4B5C-A94B-22B98FE5A19F";
paths = (
{
closed = 1;
nodes = (
"681 -22 OFFCURVE",
"754 46 OFFCURVE",
"754 182 CURVE SMOOTH",
"754 252 OFFCURVE",
"731 315 OFFCURVE",
"731 348 CURVE SMOOTH",
"731 367 OFFCURVE",
"738 379 OFFCURVE",
"754 379 CURVE SMOOTH",
"786 379 OFFCURVE",
"792 352 OFFCURVE",
"887 248 CURVE SMOOTH",
"937 193 OFFCURVE",
"1030 95 OFFCURVE",
"1112 47 CURVE SMOOTH",
"1188 3 OFFCURVE",
"1284 -27 OFFCURVE",
"1390 -27 CURVE SMOOTH",
"1521 -27 OFFCURVE",
"1613 18 OFFCURVE",
"1613 131 CURVE SMOOTH",
"1613 220 OFFCURVE",
"1571 284 OFFCURVE",
"1501 340 CURVE SMOOTH",
"1456 376 OFFCURVE",
"1319 461 OFFCURVE",
"1250 507 CURVE SMOOTH",
"1202 539 OFFCURVE",
"1186 551 OFFCURVE",
"1186 571 CURVE SMOOTH",
"1186 591 OFFCURVE",
"1213 613 OFFCURVE",
"1282 649 CURVE SMOOTH",
"1357 688 OFFCURVE",
"1416 724 OFFCURVE",
"1455 768 CURVE SMOOTH",
"1495 813 OFFCURVE",
"1516 860 OFFCURVE",
"1516 913 CURVE SMOOTH",
"1516 1058 OFFCURVE",
"1396 1182 OFFCURVE",
"1240 1182 CURVE SMOOTH",
"1122 1182 OFFCURVE",
"1059 1154 OFFCURVE",
"987 1080 CURVE SMOOTH",
"935 1026 OFFCURVE",
"874 920 OFFCURVE",
"833 848 CURVE SMOOTH",
"811 809 OFFCURVE",
"789 786 OFFCURVE",
"761 786 CURVE SMOOTH",
"731 786 OFFCURVE",
"713 799 OFFCURVE",
"699 818 CURVE SMOOTH",
"689 831 OFFCURVE",
"674 868 OFFCURVE",
"640 1015 CURVE SMOOTH",
"609 1150 OFFCURVE",
"502 1237 OFFCURVE",
"362 1237 CURVE SMOOTH",
"206 1237 OFFCURVE",
"101 1192 OFFCURVE",
"53 1092 CURVE SMOOTH",
"21 1025 OFFCURVE",
"8 939 OFFCURVE",
"8 845 CURVE SMOOTH",
"8 663 OFFCURVE",
"76 326 OFFCURVE",
"151 184 CURVE SMOOTH",
"217 59 OFFCURVE",
"326 -22 OFFCURVE",
"532 -22 CURVE SMOOTH"
);
}
);
width = 1668;
},
{
anchors = (
{
name = bottom;
position = "{830, 0}";
},
{
name = top;
position = "{830, 1167}";
}
);
layerId = "6282282A-FA3F-4DEE-9DB6-5D5B2A6C152F";
paths = (
{
closed = 1;
nodes = (
"591 -22 OFFCURVE",
"683 58 OFFCURVE",
"706 217 CURVE SMOOTH",
"711 254 OFFCURVE",
"712 290 OFFCURVE",
"712 318 CURVE SMOOTH",
"712 353 OFFCURVE",
"721 379 OFFCURVE",
"745 379 CURVE SMOOTH",
"779 379 OFFCURVE",
"798 353 OFFCURVE",
"868 248 CURVE SMOOTH",
"905 193 OFFCURVE",
"975 95 OFFCURVE",
"1046 47 CURVE SMOOTH",
"1112 3 OFFCURVE",
"1201 -27 OFFCURVE",
"1287 -27 CURVE SMOOTH",
"1439 -27 OFFCURVE",
"1553 34 OFFCURVE",
"1553 192 CURVE SMOOTH",
"1553 252 OFFCURVE",
"1529 297 OFFCURVE",
"1483 340 CURVE SMOOTH",
"1446 375 OFFCURVE",
"1329 460 OFFCURVE",
"1270 507 CURVE SMOOTH",
"1230 539 OFFCURVE",
"1221 551 OFFCURVE",
"1221 571 CURVE SMOOTH",
"1221 591 OFFCURVE",
"1258 613 OFFCURVE",
"1335 649 CURVE SMOOTH",
"1419 688 OFFCURVE",
"1486 724 OFFCURVE",
"1536 768 CURVE SMOOTH",
"1602 827 OFFCURVE",
"1636 892 OFFCURVE",
"1636 967 CURVE SMOOTH",
"1636 1073 OFFCURVE",
"1573 1182 OFFCURVE",
"1416 1182 CURVE SMOOTH",
"1298 1182 OFFCURVE",
"1228 1155 OFFCURVE",
"1140 1080 CURVE SMOOTH",
"1076 1025 OFFCURVE",
"990 920 OFFCURVE",
"932 848 CURVE SMOOTH",
"901 809 OFFCURVE",
"873 794 OFFCURVE",
"853 794 CURVE SMOOTH",
"815 794 OFFCURVE",
"802 800 OFFCURVE",
"791 818 CURVE SMOOTH",
"783 830 OFFCURVE",
"778 868 OFFCURVE",
"778 1015 CURVE SMOOTH",
"778 1150 OFFCURVE",
"691 1237 OFFCURVE",
"551 1237 CURVE SMOOTH",
"395 1237 OFFCURVE",
"280 1192 OFFCURVE",
"208 1092 CURVE SMOOTH",
"101 944 OFFCURVE",
"70 699 OFFCURVE",
"70 484 CURVE SMOOTH",
"70 389 OFFCURVE",
"75 256 OFFCURVE",
"97 184 CURVE SMOOTH",
"135 59 OFFCURVE",
"224 -22 OFFCURVE",
"430 -22 CURVE SMOOTH"
);
}
);
width = 1670;
},
{
anchors = (
{
name = bottom;
position = "{522, 0}";
},
{
name = top;
position = "{522, 1167}";
}
);
layerId = "4C364951-5780-4BC6-AB35-57CC8C56127C";
paths = (
{
closed = 1;
nodes = (
"159 -17 OFFCURVE",
"159 20 OFFCURVE",
"159 173 CURVE SMOOTH",
"159 220 OFFCURVE",
"166 544 OFFCURVE",
"166 558 CURVE SMOOTH",
"166 581 OFFCURVE",
"171 585 OFFCURVE",
"180 585 CURVE SMOOTH",
"186 585 OFFCURVE",
"196 580 OFFCURVE",
"215 563 CURVE SMOOTH",
"294 490 OFFCURVE",
"314 464 OFFCURVE",
"617 170 CURVE SMOOTH",
"760 32 OFFCURVE",
"822 -6 OFFCURVE",
"855 -6 CURVE SMOOTH",
"869 -6 OFFCURVE",
"873 -2 OFFCURVE",
"873 8 CURVE SMOOTH",
"873 23 OFFCURVE",
"819 88 OFFCURVE",
"668 226 CURVE SMOOTH",
"625 265 OFFCURVE",
"341 523 OFFCURVE",
"287 572 CURVE SMOOTH",
"268 589 OFFCURVE",
"260 603 OFFCURVE",
"260 613 CURVE SMOOTH",
"260 623 OFFCURVE",
"268 634 OFFCURVE",
"293 650 CURVE SMOOTH",
"378 706 OFFCURVE",
"586 844 OFFCURVE",
"724 944 CURVE SMOOTH",
"847 1033 OFFCURVE",
"919 1102 OFFCURVE",
"919 1128 CURVE SMOOTH",
"919 1140 OFFCURVE",
"914 1142 OFFCURVE",
"903 1142 CURVE SMOOTH",
"883 1142 OFFCURVE",
"797 1076 OFFCURVE",
"679 985 CURVE SMOOTH",
"517 861 OFFCURVE",
"358 761 OFFCURVE",
"272 707 CURVE SMOOTH",
"240 687 OFFCURVE",
"213 674 OFFCURVE",
"192 674 CURVE SMOOTH",
"173 674 OFFCURVE",
"172 689 OFFCURVE",
"172 724 CURVE SMOOTH",
"172 802 OFFCURVE",
"246 1194 OFFCURVE",
"246 1229 CURVE SMOOTH",
"246 1244 OFFCURVE",
"240 1258 OFFCURVE",
"227 1258 CURVE SMOOTH",
"204 1258 OFFCURVE",
"191 1237 OFFCURVE",
"179 1188 CURVE SMOOTH",
"135 1004 OFFCURVE",
"112 817 OFFCURVE",
"101 624 CURVE SMOOTH",
"92 474 OFFCURVE",
"90 320 OFFCURVE",
"90 159 CURVE SMOOTH",
"90 28 OFFCURVE",
"97 -17 OFFCURVE",
"122 -17 CURVE SMOOTH"
);
}
);
width = 967;
}
);
leftKerningGroup = H;
leftMetricsKey = H;
rightKerningGroup = K;
unicode = 004B;
},
{
color = 6;
glyphname = L;
lastChange = "2021-04-22 10:35:34 +0000";
layers = (
{
anchors = (
{
name = bottom;
position = "{621, 0}";
},
{
name = center;
position = "{755, 583}";
},
{
name = top;
position = "{669, 1167}";
},
{
name = topright;
position = "{1515, 1167}";
}
);
layerId = "307B7D8E-54CC-4996-A0B0-7E3456408354";
paths = (
{
closed = 1;
nodes = (
"368 -83 OFFCURVE",
"462 -84 OFFCURVE",
"560 -84 CURVE SMOOTH",
"689 -84 OFFCURVE",
"830 -66 OFFCURVE",
"923 -38 CURVE SMOOTH",
"1118 21 OFFCURVE",
"1299 150 OFFCURVE",
"1299 343 CURVE SMOOTH",
"1299 376 OFFCURVE",
"1290 399 OFFCURVE",
"1273 417 CURVE SMOOTH",
"1248 444 OFFCURVE",
"1202 461 OFFCURVE",
"1173 469 CURVE SMOOTH",
"1112 486 OFFCURVE",
"1002 506 OFFCURVE",
"883 520 CURVE SMOOTH",
"820 527 OFFCURVE",
"790 571 OFFCURVE",
"790 636 CURVE SMOOTH",
"790 692 OFFCURVE",
"861 967 OFFCURVE",
"861 1065 CURVE SMOOTH",
"861 1158 OFFCURVE",
"817 1215 OFFCURVE",
"679 1215 CURVE SMOOTH",
"485 1215 OFFCURVE",
"335 1060 OFFCURVE",
"227 833 CURVE SMOOTH",
"145 660 OFFCURVE",
"38 377 OFFCURVE",
"38 209 CURVE SMOOTH",
"38 55 OFFCURVE",
"114 -38 OFFCURVE",
"306 -72 CURVE SMOOTH"
);
}
);
width = 1355;
},
{
anchors = (
{
name = bottom;
position = "{339, 0}";
},
{
name = center;
position = "{279, 583}";
},
{
name = top;
position = "{336, 1167}";
},
{
name = topright;
position = "{1232, 1167}";
}
);
layerId = "AE979D1C-FDDA-49FD-8CD9-3E2A42843A18";
paths = (
{
closed = 1;
nodes = (
"186 -22 OFFCURVE",
"294 -30 OFFCURVE",
"343 -30 CURVE SMOOTH",
"442 -30 OFFCURVE",
"552 -20 OFFCURVE",
"641 -5 CURVE SMOOTH",
"764 16 OFFCURVE",
"799 29 OFFCURVE",
"799 56 CURVE SMOOTH",
"799 69 OFFCURVE",
"791 71 OFFCURVE",
"779 71 CURVE SMOOTH",
"756 71 OFFCURVE",
"707 61 OFFCURVE",
"596 47 CURVE SMOOTH",
"547 41 OFFCURVE",
"468 34 OFFCURVE",
"390 34 CURVE SMOOTH",
"186 34 OFFCURVE",
"118 65 OFFCURVE",
"118 183 CURVE SMOOTH",
"118 365 OFFCURVE",
"366 1030 OFFCURVE",
"366 1196 CURVE SMOOTH",
"366 1209 OFFCURVE",
"362 1215 OFFCURVE",
"353 1215 CURVE SMOOTH",
"326 1215 OFFCURVE",
"311 1187 OFFCURVE",
"266 1039 CURVE SMOOTH",
"190 790 OFFCURVE",
"47 321 OFFCURVE",
"47 156 CURVE SMOOTH",
"47 68 OFFCURVE",
"84 19 OFFCURVE",
"149 -7 CURVE SMOOTH"
);
}
);
width = 924;
},
{
anchors = (
{
name = bottom;
position = "{549, 0}";
},
{
name = center;
position = "{199, 583}";
},
{
name = top;
position = "{-2, 1167}";
},
{
name = topright;
position = "{860, 1167}";
}
);
layerId = "A5079BDB-9783-4F5E-864F-267B8C6F09C1";
paths = (
{
closed = 1;
nodes = (
"395 -25 OFFCURVE",
"493 -30 OFFCURVE",
"542 -30 CURVE SMOOTH",
"641 -30 OFFCURVE",
"745 -20 OFFCURVE",
"828 -5 CURVE SMOOTH",
"932 14 OFFCURVE",
"969 25 OFFCURVE",
"969 51 CURVE SMOOTH",
"969 65 OFFCURVE",
"959 71 OFFCURVE",
"943 71 CURVE SMOOTH",
"920 71 OFFCURVE",
"874 60 OFFCURVE",
"769 47 CURVE SMOOTH",
"722 41 OFFCURVE",
"647 34 OFFCURVE",
"569 34 CURVE SMOOTH",
"265 34 OFFCURVE",
"231 103 OFFCURVE",
"157 423 CURVE SMOOTH",
"105 649 OFFCURVE",
"56 1007 OFFCURVE",
"23 1149 CURVE SMOOTH",
"13 1192 OFFCURVE",
"3 1215 OFFCURVE",
"-14 1215 CURVE SMOOTH",
"-28 1215 OFFCURVE",
"-35 1207 OFFCURVE",
"-35 1178 CURVE SMOOTH",
"-35 1093 OFFCURVE",
"65 527 OFFCURVE",
"101 371 CURVE SMOOTH",
"150 157 OFFCURVE",
"212 25 OFFCURVE",
"340 -10 CURVE SMOOTH"
);
}
);
width = 942;
},
{
anchors = (
{
name = bottom;
position = "{828, 0}";
},
{
name = center;
position = "{671, 583}";
},
{
name = top;
position = "{317, 1167}";
},
{
name = topright;
position = "{1140, 1167}";
}
);
layerId = "AE80B40C-E5A8-4B5C-A94B-22B98FE5A19F";
paths = (
{
closed = 1;
nodes = (
"600 -83 OFFCURVE",
"694 -84 OFFCURVE",
"792 -84 CURVE SMOOTH",
"921 -84 OFFCURVE",
"1054 -66 OFFCURVE",
"1133 -38 CURVE SMOOTH",
"1252 4 OFFCURVE",
"1361 80 OFFCURVE",
"1361 215 CURVE SMOOTH",
"1361 287 OFFCURVE",
"1334 373 OFFCURVE",
"1273 417 CURVE SMOOTH",
"1236 444 OFFCURVE",
"1182 461 OFFCURVE",
"1149 469 CURVE SMOOTH",
"1080 486 OFFCURVE",
"962 506 OFFCURVE",
"837 520 CURVE SMOOTH",
"764 528 OFFCURVE",
"710 579 OFFCURVE",
"681 655 CURVE SMOOTH",
"652 732 OFFCURVE",
"630 823 OFFCURVE",
"607 919 CURVE SMOOTH",
"565 1095 OFFCURVE",
"512 1215 OFFCURVE",
"311 1215 CURVE SMOOTH",
"111 1215 OFFCURVE",
"35 1050 OFFCURVE",
"35 812 CURVE SMOOTH",
"35 686 OFFCURVE",
"51 498 OFFCURVE",
"80 373 CURVE SMOOTH",
"138 120 OFFCURVE",
"260 -28 OFFCURVE",
"532 -72 CURVE SMOOTH"
);
}
);
width = 1380;
},
{
anchors = (
{
name = bottom;
position = "{716, 0}";
},
{
name = center;
position = "{716, 583}";
},
{
name = top;
position = "{493, 1167}";
},
{
name = topright;
position = "{1341, 1167}";
}
);
layerId = "6282282A-FA3F-4DEE-9DB6-5D5B2A6C152F";
paths = (
{
closed = 1;
nodes = (
"484 -83 OFFCURVE",
"578 -84 OFFCURVE",
"676 -84 CURVE SMOOTH",
"805 -84 OFFCURVE",
"942 -66 OFFCURVE",
"1028 -38 CURVE SMOOTH",
"1175 10 OFFCURVE",
"1322 104 OFFCURVE",
"1322 282 CURVE SMOOTH",
"1322 350 OFFCURVE",
"1305 389 OFFCURVE",
"1273 417 CURVE SMOOTH",
"1242 444 OFFCURVE",
"1192 461 OFFCURVE",
"1161 469 CURVE SMOOTH",
"1096 486 OFFCURVE",
"982 506 OFFCURVE",
"860 520 CURVE SMOOTH",
"789 528 OFFCURVE",
"748 579 OFFCURVE",
"736 655 CURVE SMOOTH",
"724 731 OFFCURVE",
"723 823 OFFCURVE",
"723 919 CURVE SMOOTH",
"723 1095 OFFCURVE",
"696 1215 OFFCURVE",
"495 1215 CURVE SMOOTH",
"301 1215 OFFCURVE",
"186 1060 OFFCURVE",
"131 833 CURVE SMOOTH",
"100 707 OFFCURVE",
"70 505 OFFCURVE",
"70 373 CURVE SMOOTH",
"70 120 OFFCURVE",
"157 -28 OFFCURVE",
"419 -72 CURVE SMOOTH"
);
}
);
width = 1375;
},
{
anchors = (
{
name = bottom;
position = "{435, 0}";
},
{
name = center;
position = "{242, 583}";
},
{
name = top;
position = "{169, 1167}";
},
{
name = topright;
position = "{1060, 1167}";
}
);
layerId = "4C364951-5780-4BC6-AB35-57CC8C56127C";
paths = (
{
closed = 1;
nodes = (
"292 -25 OFFCURVE",
"389 -30 OFFCURVE",
"438 -30 CURVE SMOOTH",
"537 -30 OFFCURVE",
"644 -20 OFFCURVE",
"730 -5 CURVE SMOOTH",
"838 14 OFFCURVE",
"884 25 OFFCURVE",
"884 51 CURVE SMOOTH",
"884 65 OFFCURVE",
"879 71 OFFCURVE",
"863 71 CURVE SMOOTH",
"840 71 OFFCURVE",
"791 60 OFFCURVE",
"683 47 CURVE SMOOTH",
"635 41 OFFCURVE",
"558 34 OFFCURVE",
"480 34 CURVE SMOOTH",
"176 34 OFFCURVE",
"158 103 OFFCURVE",
"158 423 CURVE SMOOTH",
"158 649 OFFCURVE",
"191 1007 OFFCURVE",
"191 1149 CURVE SMOOTH",
"191 1192 OFFCURVE",
"187 1215 OFFCURVE",
"170 1215 CURVE SMOOTH",
"143 1215 OFFCURVE",
"135 1187 OFFCURVE",
"124 1039 CURVE SMOOTH",
"116 931 OFFCURVE",
"90 554 OFFCURVE",
"90 371 CURVE SMOOTH",
"90 157 OFFCURVE",
"121 25 OFFCURVE",
"241 -10 CURVE SMOOTH"
);
}
);
width = 935;
}
);
leftKerningGroup = H;
leftMetricsKey = H;
rightKerningGroup = L;
unicode = 004C;
},
{
color = 3;
glyphname = Lslash;
lastChange = "2021-04-22 10:35:34 +0000";
layers = (
{
components = (
{
name = L;
}
);
layerId = "307B7D8E-54CC-4996-A0B0-7E3456408354";
paths = (
{
closed = 1;
nodes = (
"78 237 OFFCURVE",
"183 293 OFFCURVE",
"328 371 CURVE SMOOTH",
"522 475 OFFCURVE",
"777 653 OFFCURVE",
"966 807 CURVE SMOOTH",
"1009 842 OFFCURVE",
"1066 890 OFFCURVE",
"1066 963 CURVE SMOOTH",
"1066 991 OFFCURVE",
"1038 1027 OFFCURVE",
"975 1027 CURVE SMOOTH",
"894 1027 OFFCURVE",
"811 991 OFFCURVE",
"697 934 CURVE SMOOTH",
"566 869 OFFCURVE",
"264 685 OFFCURVE",
"113 582 CURVE SMOOTH",
"-3 503 OFFCURVE",
"-132 412 OFFCURVE",
"-132 320 CURVE SMOOTH",
"-132 238 OFFCURVE",
"-70 237 OFFCURVE",
"-13 237 CURVE SMOOTH"
);
}
);
width = 1355;
},
{
components = (
{
name = L;
}
);
layerId = "AE979D1C-FDDA-49FD-8CD9-3E2A42843A18";
paths = (
{
closed = 1;
nodes = (
"-109 300 OFFCURVE",
"-102 298 OFFCURVE",
"-96 298 CURVE SMOOTH",
"-83 298 OFFCURVE",
"-10 358 OFFCURVE",
"44 407 CURVE SMOOTH",
"186 536 OFFCURVE",
"455 787 OFFCURVE",
"496 830 CURVE SMOOTH",
"510 845 OFFCURVE",
"517 856 OFFCURVE",
"517 870 CURVE SMOOTH",
"517 881 OFFCURVE",
"512 885 OFFCURVE",
"502 885 CURVE SMOOTH",
"490 885 OFFCURVE",
"474 877 OFFCURVE",
"448 853 CURVE SMOOTH",
"332 746 OFFCURVE",
"191 619 OFFCURVE",
"33 474 CURVE SMOOTH",
"-58 391 OFFCURVE",
"-109 339 OFFCURVE",
"-109 312 CURVE SMOOTH"
);
}
);
width = 924;
},
{
components = (
{
name = L;
}
);
layerId = "A5079BDB-9783-4F5E-864F-267B8C6F09C1";
paths = (
{
closed = 1;
nodes = (
"-12 304 OFFCURVE",
"-5 298 OFFCURVE",
"5 298 CURVE SMOOTH",
"22 298 OFFCURVE",
"63 361 OFFCURVE",
"93 410 CURVE SMOOTH",
"172 538 OFFCURVE",
"315 789 OFFCURVE",
"335 832 CURVE SMOOTH",
"340 842 OFFCURVE",
"341 849 OFFCURVE",
"341 856 CURVE SMOOTH",
"341 871 OFFCURVE",
"331 885 OFFCURVE",
"319 885 CURVE SMOOTH",
"307 885 OFFCURVE",
"301 877 OFFCURVE",
"287 853 CURVE SMOOTH",
"224 746 OFFCURVE",
"148 618 OFFCURVE",
"60 474 CURVE SMOOTH",
"10 392 OFFCURVE",
"-12 348 OFFCURVE",
"-12 316 CURVE SMOOTH"
);
}
);
width = 942;
},
{
components = (
{
name = L;
transform = "{1, 0, 0, 1, 99, 0}";
}
);
layerId = "AE80B40C-E5A8-4B5C-A94B-22B98FE5A19F";
paths = (
{
closed = 1;
nodes = (
"240 237 OFFCURVE",
"353 293 OFFCURVE",
"458 371 CURVE SMOOTH",
"599 476 OFFCURVE",
"812 667 OFFCURVE",
"928 817 CURVE SMOOTH",
"955 852 OFFCURVE",
"960 900 OFFCURVE",
"960 925 CURVE SMOOTH",
"960 1013 OFFCURVE",
"918 1037 OFFCURVE",
"855 1037 CURVE SMOOTH",
"774 1037 OFFCURVE",
"681 1001 OFFCURVE",
"597 944 CURVE SMOOTH",
"499 878 OFFCURVE",
"283 667 OFFCURVE",
"167 582 CURVE SMOOTH",
"60 504 OFFCURVE",
"16 441 OFFCURVE",
"16 371 CURVE SMOOTH",
"16 263 OFFCURVE",
"92 237 OFFCURVE",
"149 237 CURVE SMOOTH"
);
}
);
width = 1479;
},
{
components = (
{
name = L;
transform = "{1, 0, 0, 1, 108, 0}";
}
);
layerId = "6282282A-FA3F-4DEE-9DB6-5D5B2A6C152F";
paths = (
{
closed = 1;
nodes = (
"200 287 OFFCURVE",
"418 368 OFFCURVE",
"543 444 CURVE SMOOTH",
"712 547 OFFCURVE",
"888 655 OFFCURVE",
"1040 807 CURVE SMOOTH",
"1075 842 OFFCURVE",
"1106 889 OFFCURVE",
"1106 943 CURVE SMOOTH",
"1106 996 OFFCURVE",
"1084 1027 OFFCURVE",
"1021 1027 CURVE SMOOTH",
"940 1027 OFFCURVE",
"831 985 OFFCURVE",
"729 934 CURVE SMOOTH",
"615 877 OFFCURVE",
"322 724 OFFCURVE",
"193 625 CURVE SMOOTH",
"97 551 OFFCURVE",
"0 471 OFFCURVE",
"0 384 CURVE SMOOTH",
"0 325 OFFCURVE",
"52 287 OFFCURVE",
"109 287 CURVE SMOOTH"
);
}
);
width = 1483;
},
{
components = (
{
name = L;
transform = "{1, 0, 0, 1, 74, 0}";
}
);
layerId = "4C364951-5780-4BC6-AB35-57CC8C56127C";
paths = (
{
closed = 1;
nodes = (
"30 298 OFFCURVE",
"87 361 OFFCURVE",
"129 410 CURVE SMOOTH",
"240 538 OFFCURVE",
"446 789 OFFCURVE",
"476 832 CURVE SMOOTH",
"486 847 OFFCURVE",
"489 857 OFFCURVE",
"489 865 CURVE SMOOTH",
"489 876 OFFCURVE",
"483 885 OFFCURVE",
"473 885 CURVE SMOOTH",
"461 885 OFFCURVE",
"453 877 OFFCURVE",
"433 853 CURVE SMOOTH",
"342 747 OFFCURVE",
"235 618 OFFCURVE",
"112 474 CURVE SMOOTH",
"42 391 OFFCURVE",
"0 336 OFFCURVE",
"0 316 CURVE SMOOTH",
"0 304 OFFCURVE",
"3 298 OFFCURVE",
"13 298 CURVE SMOOTH"
);
}
);
width = 1009;
}
);
leftKerningGroup = H;
rightKerningGroup = L;
unicode = 0141;
},
{
color = 6;
glyphname = M;
lastChange = "2021-04-22 10:35:34 +0000";
layers = (
{
anchors = (
{
name = bottom;
position = "{976, 0}";
},
{
name = top;
position = "{1266, 1167}";
}
);
layerId = "307B7D8E-54CC-4996-A0B0-7E3456408354";
paths = (
{
closed = 1;
nodes = (
"383 -48 OFFCURVE",
"465 -18 OFFCURVE",
"518 38 CURVE SMOOTH",
"559 82 OFFCURVE",
"576 114 OFFCURVE",
"593 188 CURVE SMOOTH",
"609 257 OFFCURVE",
"619 294 OFFCURVE",
"632 329 CURVE SMOOTH",
"657 395 OFFCURVE",
"680 436 OFFCURVE",
"710 436 CURVE SMOOTH",
"739 436 OFFCURVE",
"745 415 OFFCURVE",
"748 365 CURVE SMOOTH",
"751 305 OFFCURVE",
"763 206 OFFCURVE",
"783 160 CURVE SMOOTH",
"809 100 OFFCURVE",
"852 47 OFFCURVE",
"958 47 CURVE SMOOTH",
"1067 47 OFFCURVE",
"1132 87 OFFCURVE",
"1181 155 CURVE SMOOTH",
"1216 204 OFFCURVE",
"1249 264 OFFCURVE",
"1264 292 CURVE SMOOTH",
"1294 348 OFFCURVE",
"1325 392 OFFCURVE",
"1368 392 CURVE SMOOTH",
"1403 392 OFFCURVE",
"1414 362 OFFCURVE",
"1416 318 CURVE SMOOTH",
"1417 287 OFFCURVE",
"1418 230 OFFCURVE",
"1420 190 CURVE SMOOTH",
"1422 151 OFFCURVE",
"1428 97 OFFCURVE",
"1436 70 CURVE SMOOTH",
"1449 25 OFFCURVE",
"1486 -15 OFFCURVE",
"1579 -15 CURVE SMOOTH",
"1732 -15 OFFCURVE",
"1833 38 OFFCURVE",
"1912 163 CURVE SMOOTH",
"1998 298 OFFCURVE",
"2077 569 OFFCURVE",
"2077 738 CURVE SMOOTH",
"2077 827 OFFCURVE",
"2061 912 OFFCURVE",
"2027 983 CURVE SMOOTH",
"1971 1102 OFFCURVE",
"1807 1180 OFFCURVE",
"1660 1180 CURVE SMOOTH",
"1525 1180 OFFCURVE",
"1449 1164 OFFCURVE",
"1379 1119 CURVE SMOOTH",
"1319 1080 OFFCURVE",
"1260 1006 OFFCURVE",
"1225 936 CURVE SMOOTH",
"1197 879 OFFCURVE",
"1174 847 OFFCURVE",
"1143 847 CURVE SMOOTH",
"1112 847 OFFCURVE",
"1105 885 OFFCURVE",
"1100 927 CURVE SMOOTH",
"1088 1029 OFFCURVE",
"1043 1087 OFFCURVE",
"977 1123 CURVE SMOOTH",
"922 1153 OFFCURVE",
"840 1173 OFFCURVE",
"747 1173 CURVE SMOOTH",
"587 1173 OFFCURVE",
"431 1135 OFFCURVE",
"288 957 CURVE SMOOTH",
"155 792 OFFCURVE",
"62 493 OFFCURVE",
"62 264 CURVE SMOOTH",
"62 148 OFFCURVE",
"80 60 OFFCURVE",
"131 8 CURVE SMOOTH",
"167 -29 OFFCURVE",
"219 -48 OFFCURVE",
"293 -48 CURVE SMOOTH"
);
}
);
width = 2094;
},
{
anchors = (
{
name = bottom;
position = "{594, 0}";
},
{
name = top;
position = "{863, 1167}";
}
);
layerId = "AE979D1C-FDDA-49FD-8CD9-3E2A42843A18";
paths = (
{
closed = 1;
nodes = (
"61 -48 OFFCURVE",
"71 -15 OFFCURVE",
"82 32 CURVE SMOOTH",
"98 98 OFFCURVE",
"136 291 OFFCURVE",
"185 490 CURVE SMOOTH",
"235 691 OFFCURVE",
"289 896 OFFCURVE",
"323 980 CURVE SMOOTH",
"369 1094 OFFCURVE",
"402 1137 OFFCURVE",
"479 1137 CURVE SMOOTH",
"528 1137 OFFCURVE",
"562 1097 OFFCURVE",
"562 1013 CURVE SMOOTH",
"562 885 OFFCURVE",
"532 477 OFFCURVE",
"532 405 CURVE SMOOTH",
"532 315 OFFCURVE",
"549 258 OFFCURVE",
"616 258 CURVE SMOOTH",
"684 258 OFFCURVE",
"740 320 OFFCURVE",
"781 445 CURVE SMOOTH",
"837 616 OFFCURVE",
"940 897 OFFCURVE",
"991 1008 CURVE SMOOTH",
"1030 1093 OFFCURVE",
"1083 1130 OFFCURVE",
"1132 1130 CURVE SMOOTH",
"1200 1130 OFFCURVE",
"1219 1085 OFFCURVE",
"1219 992 CURVE SMOOTH",
"1219 912 OFFCURVE",
"1183 699 OFFCURVE",
"1135 472 CURVE SMOOTH",
"1094 279 OFFCURVE",
"1036 44 OFFCURVE",
"1036 13 CURVE SMOOTH",
"1036 -7 OFFCURVE",
"1044 -15 OFFCURVE",
"1058 -15 CURVE SMOOTH",
"1087 -15 OFFCURVE",
"1099 7 OFFCURVE",
"1110 56 CURVE SMOOTH",
"1139 191 OFFCURVE",
"1174 337 OFFCURVE",
"1203 476 CURVE SMOOTH",
"1251 705 OFFCURVE",
"1287 912 OFFCURVE",
"1287 1008 CURVE SMOOTH",
"1287 1108 OFFCURVE",
"1243 1193 OFFCURVE",
"1144 1193 CURVE SMOOTH",
"1058 1193 OFFCURVE",
"981 1135 OFFCURVE",
"936 1040 CURVE SMOOTH",
"867 894 OFFCURVE",
"776 630 OFFCURVE",
"720 461 CURVE SMOOTH",
"700 401 OFFCURVE",
"670 335 OFFCURVE",
"634 335 CURVE SMOOTH",
"606 335 OFFCURVE",
"598 369 OFFCURVE",
"598 418 CURVE SMOOTH",
"598 485 OFFCURVE",
"635 860 OFFCURVE",
"635 1024 CURVE SMOOTH",
"635 1137 OFFCURVE",
"593 1197 OFFCURVE",
"495 1197 CURVE SMOOTH",
"395 1197 OFFCURVE",
"306 1135 OFFCURVE",
"258 1005 CURVE SMOOTH",
"232 935 OFFCURVE",
"166 713 OFFCURVE",
"110 487 CURVE SMOOTH",
"54 260 OFFCURVE",
"-4 24 OFFCURVE",
"-4 -13 CURVE SMOOTH",
"-4 -35 OFFCURVE",
"4 -48 OFFCURVE",
"26 -48 CURVE SMOOTH"
);
}
);
width = 1283;
},
{
anchors = (
{
name = bottom;
position = "{802, 0}";
},
{
name = top;
position = "{489, 1167}";
}
);
layerId = "A5079BDB-9783-4F5E-864F-267B8C6F09C1";
paths = (
{
closed = 1;
nodes = (
"261 -48 OFFCURVE",
"268 -37 OFFCURVE",
"268 -19 CURVE SMOOTH",
"268 -1 OFFCURVE",
"204 272 OFFCURVE",
"152 490 CURVE SMOOTH",
"111 660 OFFCURVE",
"60 938 OFFCURVE",
"60 1028 CURVE SMOOTH",
"60 1107 OFFCURVE",
"81 1137 OFFCURVE",
"146 1137 CURVE SMOOTH",
"194 1137 OFFCURVE",
"246 1099 OFFCURVE",
"283 1020 CURVE SMOOTH",
"320 941 OFFCURVE",
"439 633 OFFCURVE",
"494 497 CURVE SMOOTH",
"551 355 OFFCURVE",
"596 258 OFFCURVE",
"684 258 CURVE SMOOTH",
"739 258 OFFCURVE",
"768 299 OFFCURVE",
"768 380 CURVE SMOOTH",
"768 433 OFFCURVE",
"713 870 OFFCURVE",
"713 1011 CURVE SMOOTH",
"713 1094 OFFCURVE",
"750 1130 OFFCURVE",
"798 1130 CURVE SMOOTH",
"866 1130 OFFCURVE",
"898 1085 OFFCURVE",
"950 992 CURVE SMOOTH",
"994 913 OFFCURVE",
"1049 699 OFFCURVE",
"1106 472 CURVE SMOOTH",
"1143 324 OFFCURVE",
"1183 161 OFFCURVE",
"1211 45 CURVE SMOOTH",
"1222 1 OFFCURVE",
"1237 -15 OFFCURVE",
"1257 -15 CURVE SMOOTH",
"1276 -15 OFFCURVE",
"1283 -6 OFFCURVE",
"1283 14 CURVE SMOOTH",
"1283 51 OFFCURVE",
"1220 302 OFFCURVE",
"1176 476 CURVE SMOOTH",
"1113 725 OFFCURVE",
"1048 948 OFFCURVE",
"1003 1030 CURVE SMOOTH",
"943 1139 OFFCURVE",
"865 1193 OFFCURVE",
"785 1193 CURVE SMOOTH",
"699 1193 OFFCURVE",
"649 1135 OFFCURVE",
"649 1040 CURVE SMOOTH",
"649 845 OFFCURVE",
"703 482 OFFCURVE",
"703 404 CURVE SMOOTH",
"703 366 OFFCURVE",
"695 335 OFFCURVE",
"671 335 CURVE SMOOTH",
"627 335 OFFCURVE",
"594 419 OFFCURVE",
"557 518 CURVE SMOOTH",
"507 651 OFFCURVE",
"408 912 OFFCURVE",
"350 1033 CURVE SMOOTH",
"299 1140 OFFCURVE",
"230 1197 OFFCURVE",
"134 1197 CURVE SMOOTH",
"42 1197 OFFCURVE",
"-14 1145 OFFCURVE",
"-14 1035 CURVE SMOOTH",
"-14 949 OFFCURVE",
"42 649 OFFCURVE",
"77 487 CURVE SMOOTH",
"110 334 OFFCURVE",
"145 179 OFFCURVE",
"171 68 CURVE SMOOTH",
"187 -1 OFFCURVE",
"199 -48 OFFCURVE",
"241 -48 CURVE SMOOTH"
);
}
);
width = 1285;
},
{
anchors = (
{
name = bottom;
position = "{1152, 0}";
},
{
name = top;
position = "{839, 1167}";
}
);
layerId = "AE80B40C-E5A8-4B5C-A94B-22B98FE5A19F";
paths = (
{
closed = 1;
nodes = (
"591 -48 OFFCURVE",
"659 -18 OFFCURVE",
"686 38 CURVE SMOOTH",
"697 62 OFFCURVE",
"703 82 OFFCURVE",
"703 107 CURVE SMOOTH",
"703 167 OFFCURVE",
"664 279 OFFCURVE",
"664 374 CURVE SMOOTH",
"664 413 OFFCURVE",
"672 436 OFFCURVE",
"694 436 CURVE SMOOTH",
"723 436 OFFCURVE",
"737 415 OFFCURVE",
"764 365 CURVE SMOOTH",
"808 284 OFFCURVE",
"862 190 OFFCURVE",
"889 160 CURVE SMOOTH",
"959 82 OFFCURVE",
"1009 47 OFFCURVE",
"1125 47 CURVE SMOOTH",
"1234 47 OFFCURVE",
"1278 87 OFFCURVE",
"1295 155 CURVE SMOOTH",
"1307 204 OFFCURVE",
"1313 264 OFFCURVE",
"1314 292 CURVE SMOOTH",
"1316 349 OFFCURVE",
"1329 392 OFFCURVE",
"1372 392 CURVE SMOOTH",
"1407 392 OFFCURVE",
"1433 362 OFFCURVE",
"1454 318 CURVE SMOOTH",
"1469 287 OFFCURVE",
"1500 230 OFFCURVE",
"1518 190 CURVE SMOOTH",
"1536 151 OFFCURVE",
"1566 97 OFFCURVE",
"1586 70 CURVE SMOOTH",
"1619 26 OFFCURVE",
"1688 -15 OFFCURVE",
"1781 -15 CURVE SMOOTH",
"1896 -15 OFFCURVE",
"1961 18 OFFCURVE",
"1995 87 CURVE SMOOTH",
"2018 134 OFFCURVE",
"2028 198 OFFCURVE",
"2028 279 CURVE SMOOTH",
"2028 499 OFFCURVE",
"1934 795 OFFCURVE",
"1759 983 CURVE SMOOTH",
"1648 1102 OFFCURVE",
"1487 1180 OFFCURVE",
"1330 1180 CURVE SMOOTH",
"1195 1180 OFFCURVE",
"1140 1162 OFFCURVE",
"1087 1119 CURVE SMOOTH",
"1041 1081 OFFCURVE",
"1016 1006 OFFCURVE",
"1009 936 CURVE SMOOTH",
"1003 881 OFFCURVE",
"988 847 OFFCURVE",
"957 847 CURVE SMOOTH",
"926 847 OFFCURVE",
"901 885 OFFCURVE",
"878 927 CURVE SMOOTH",
"822 1030 OFFCURVE",
"747 1087 OFFCURVE",
"663 1123 CURVE SMOOTH",
"594 1153 OFFCURVE",
"504 1173 OFFCURVE",
"411 1173 CURVE SMOOTH",
"251 1173 OFFCURVE",
"93 1135 OFFCURVE",
"32 957 CURVE SMOOTH",
"16 910 OFFCURVE",
"9 845 OFFCURVE",
"9 776 CURVE SMOOTH",
"9 635 OFFCURVE",
"84 288 OFFCURVE",
"211 115 CURVE SMOOTH",
"294 2 OFFCURVE",
"366 -48 OFFCURVE",
"501 -48 CURVE SMOOTH"
);
}
);
width = 2091;
},
{
anchors = (
{
name = bottom;
position = "{1068, 0}";
},
{
name = top;
position = "{1068, 1167}";
}
);
layerId = "6282282A-FA3F-4DEE-9DB6-5D5B2A6C152F";
paths = (
{
closed = 1;
nodes = (
"492 -48 OFFCURVE",
"567 -18 OFFCURVE",
"607 38 CURVE SMOOTH",
"638 82 OFFCURVE",
"647 114 OFFCURVE",
"647 188 CURVE SMOOTH",
"647 257 OFFCURVE",
"649 294 OFFCURVE",
"654 329 CURVE SMOOTH",
"663 395 OFFCURVE",
"677 436 OFFCURVE",
"707 436 CURVE SMOOTH",
"736 436 OFFCURVE",
"745 415 OFFCURVE",
"761 365 CURVE SMOOTH",
"787 285 OFFCURVE",
"818 190 OFFCURVE",
"838 160 CURVE SMOOTH",
"890 82 OFFCURVE",
"932 47 OFFCURVE",
"1048 47 CURVE SMOOTH",
"1157 47 OFFCURVE",
"1210 87 OFFCURVE",
"1243 155 CURVE SMOOTH",
"1267 204 OFFCURVE",
"1286 264 OFFCURVE",
"1294 292 CURVE SMOOTH",
"1310 349 OFFCURVE",
"1332 392 OFFCURVE",
"1375 392 CURVE SMOOTH",
"1410 392 OFFCURVE",
"1429 362 OFFCURVE",
"1440 318 CURVE SMOOTH",
"1448 287 OFFCURVE",
"1465 230 OFFCURVE",
"1474 190 CURVE SMOOTH",
"1483 151 OFFCURVE",
"1501 97 OFFCURVE",
"1514 70 CURVE SMOOTH",
"1536 25 OFFCURVE",
"1587 -15 OFFCURVE",
"1680 -15 CURVE SMOOTH",
"1833 -15 OFFCURVE",
"1922 38 OFFCURVE",
"1972 163 CURVE SMOOTH",
"2018 277 OFFCURVE",
"2025 422 OFFCURVE",
"2025 563 CURVE SMOOTH",
"2025 714 OFFCURVE",
"1980 866 OFFCURVE",
"1898 983 CURVE SMOOTH",
"1815 1102 OFFCURVE",
"1692 1180 OFFCURVE",
"1515 1180 CURVE SMOOTH",
"1380 1180 OFFCURVE",
"1318 1161 OFFCURVE",
"1258 1116 CURVE SMOOTH",
"1207 1077 OFFCURVE",
"1166 1028 OFFCURVE",
"1137 946 CURVE SMOOTH",
"1118 891 OFFCURVE",
"1099 847 OFFCURVE",
"1058 847 CURVE SMOOTH",
"1027 847 OFFCURVE",
"1008 885 OFFCURVE",
"994 927 CURVE SMOOTH",
"960 1029 OFFCURVE",
"910 1087 OFFCURVE",
"845 1123 CURVE SMOOTH",
"785 1156 OFFCURVE",
"697 1173 OFFCURVE",
"604 1173 CURVE SMOOTH",
"444 1173 OFFCURVE",
"267 1135 OFFCURVE",
"165 957 CURVE SMOOTH",
"104 851 OFFCURVE",
"70 659 OFFCURVE",
"70 526 CURVE SMOOTH",
"70 375 OFFCURVE",
"95 224 OFFCURVE",
"150 115 CURVE SMOOTH",
"207 2 OFFCURVE",
"267 -48 OFFCURVE",
"402 -48 CURVE SMOOTH"
);
}
);
width = 2095;
},
{
anchors = (
{
name = bottom;
position = "{690, 0}";
},
{
name = top;
position = "{690, 1167}";
}
);
layerId = "4C364951-5780-4BC6-AB35-57CC8C56127C";
paths = (
{
closed = 1;
nodes = (
"168 -48 OFFCURVE",
"170 -15 OFFCURVE",
"170 32 CURVE SMOOTH",
"170 98 OFFCURVE",
"168 291 OFFCURVE",
"168 490 CURVE SMOOTH",
"168 689 OFFCURVE",
"178 896 OFFCURVE",
"192 980 CURVE SMOOTH",
"211 1095 OFFCURVE",
"235 1137 OFFCURVE",
"312 1137 CURVE SMOOTH",
"360 1137 OFFCURVE",
"403 1099 OFFCURVE",
"422 1020 CURVE SMOOTH",
"441 941 OFFCURVE",
"494 633 OFFCURVE",
"517 497 CURVE SMOOTH",
"541 355 OFFCURVE",
"564 258 OFFCURVE",
"652 258 CURVE SMOOTH",
"720 258 OFFCURVE",
"757 320 OFFCURVE",
"769 445 CURVE SMOOTH",
"786 616 OFFCURVE",
"824 897 OFFCURVE",
"849 1008 CURVE SMOOTH",
"868 1093 OFFCURVE",
"913 1130 OFFCURVE",
"962 1130 CURVE SMOOTH",
"1030 1130 OFFCURVE",
"1057 1085 OFFCURVE",
"1086 992 CURVE SMOOTH",
"1111 912 OFFCURVE",
"1117 699 OFFCURVE",
"1122 472 CURVE SMOOTH",
"1125 324 OFFCURVE",
"1125 171 OFFCURVE",
"1125 45 CURVE SMOOTH",
"1125 1 OFFCURVE",
"1137 -15 OFFCURVE",
"1157 -15 CURVE SMOOTH",
"1186 -15 OFFCURVE",
"1193 7 OFFCURVE",
"1193 56 CURVE SMOOTH",
"1193 191 OFFCURVE",
"1192 337 OFFCURVE",
"1189 476 CURVE SMOOTH",
"1183 725 OFFCURVE",
"1170 948 OFFCURVE",
"1144 1030 CURVE SMOOTH",
"1109 1139 OFFCURVE",
"1044 1193 OFFCURVE",
"964 1193 CURVE SMOOTH",
"878 1193 OFFCURVE",
"815 1135 OFFCURVE",
"792 1040 CURVE SMOOTH",
"757 893 OFFCURVE",
"727 630 OFFCURVE",
"709 461 CURVE SMOOTH",
"703 401 OFFCURVE",
"688 335 OFFCURVE",
"652 335 CURVE SMOOTH",
"608 335 OFFCURVE",
"594 419 OFFCURVE",
"580 518 CURVE SMOOTH",
"561 651 OFFCURVE",
"521 912 OFFCURVE",
"492 1033 CURVE SMOOTH",
"466 1140 OFFCURVE",
"409 1197 OFFCURVE",
"314 1197 CURVE SMOOTH",
"214 1197 OFFCURVE",
"141 1135 OFFCURVE",
"122 1005 CURVE SMOOTH",
"112 935 OFFCURVE",
"97 713 OFFCURVE",
"93 487 CURVE SMOOTH",
"90 334 OFFCURVE",
"90 179 OFFCURVE",
"90 68 CURVE SMOOTH",
"90 -1 OFFCURVE",
"91 -48 OFFCURVE",
"133 -48 CURVE SMOOTH"
);
}
);
width = 1283;
}
);
leftKerningGroup = H;
leftMetricsKey = H;
rightKerningGroup = H;
rightMetricsKey = H;
unicode = 004D;
},
{
color = 6;
glyphname = N;
lastChange = "2021-04-22 10:35:34 +0000";
layers = (
{
anchors = (
{
name = bottom;
position = "{827, 0}";
},
{
name = top;
position = "{1082, 1183}";
}
);
layerId = "307B7D8E-54CC-4996-A0B0-7E3456408354";
paths = (
{
closed = 1;
nodes = (
"394 -48 OFFCURVE",
"469 -19 OFFCURVE",
"522 30 CURVE SMOOTH",
"556 62 OFFCURVE",
"581 117 OFFCURVE",
"595 186 CURVE SMOOTH",
"613 275 OFFCURVE",
"643 347 OFFCURVE",
"688 347 CURVE SMOOTH",
"736 347 OFFCURVE",
"757 328 OFFCURVE",
"842 207 CURVE SMOOTH",
"934 75 OFFCURVE",
"1046 -26 OFFCURVE",
"1185 -26 CURVE SMOOTH",
"1360 -26 OFFCURVE",
"1474 46 OFFCURVE",
"1576 209 CURVE SMOOTH",
"1690 391 OFFCURVE",
"1815 735 OFFCURVE",
"1815 924 CURVE SMOOTH",
"1815 1068 OFFCURVE",
"1748 1151 OFFCURVE",
"1584 1151 CURVE SMOOTH",
"1447 1151 OFFCURVE",
"1362 1108 OFFCURVE",
"1296 1004 CURVE SMOOTH",
"1261 949 OFFCURVE",
"1229 865 OFFCURVE",
"1207 836 CURVE SMOOTH",
"1187 809 OFFCURVE",
"1173 803 OFFCURVE",
"1141 803 CURVE SMOOTH",
"1087 803 OFFCURVE",
"1016 888 OFFCURVE",
"944 975 CURVE SMOOTH",
"832 1109 OFFCURVE",
"778 1167 OFFCURVE",
"608 1167 CURVE SMOOTH",
"318 1167 OFFCURVE",
"174 865 OFFCURVE",
"80 458 CURVE SMOOTH",
"61 377 OFFCURVE",
"48 296 OFFCURVE",
"48 225 CURVE SMOOTH",
"48 47 OFFCURVE",
"123 -48 OFFCURVE",
"290 -48 CURVE SMOOTH"
);
}
);
width = 1785;
},
{
anchors = (
{
name = bottom;
position = "{561, 0}";
},
{
name = top;
position = "{776, 1167}";
}
);
layerId = "AE979D1C-FDDA-49FD-8CD9-3E2A42843A18";
paths = (
{
closed = 1;
nodes = (
"98 -48 OFFCURVE",
"110 -34 OFFCURVE",
"128 46 CURVE SMOOTH",
"173 244 OFFCURVE",
"214 661 OFFCURVE",
"274 915 CURVE SMOOTH",
"296 1008 OFFCURVE",
"318 1081 OFFCURVE",
"341 1081 CURVE SMOOTH",
"368 1081 OFFCURVE",
"475 834 OFFCURVE",
"587 556 CURVE SMOOTH",
"721 223 OFFCURVE",
"825 -18 OFFCURVE",
"925 -18 CURVE SMOOTH",
"1021 -18 OFFCURVE",
"1076 165 OFFCURVE",
"1111 314 CURVE SMOOTH",
"1136 421 OFFCURVE",
"1257 989 OFFCURVE",
"1257 1105 CURVE SMOOTH",
"1257 1149 OFFCURVE",
"1251 1167 OFFCURVE",
"1233 1167 CURVE SMOOTH",
"1211 1167 OFFCURVE",
"1206 1152 OFFCURVE",
"1191 1085 CURVE SMOOTH",
"1179 1032 OFFCURVE",
"1064 401 OFFCURVE",
"1031 267 CURVE SMOOTH",
"998 133 OFFCURVE",
"966 56 OFFCURVE",
"928 56 CURVE SMOOTH",
"882 56 OFFCURVE",
"793 217 OFFCURVE",
"641 605 CURVE SMOOTH",
"483 1009 OFFCURVE",
"412 1171 OFFCURVE",
"337 1171 CURVE SMOOTH",
"254 1171 OFFCURVE",
"223 1012 OFFCURVE",
"178 775 CURVE SMOOTH",
"130 522 OFFCURVE",
"49 66 OFFCURVE",
"49 1 CURVE SMOOTH",
"49 -31 OFFCURVE",
"56 -48 OFFCURVE",
"72 -48 CURVE SMOOTH"
);
}
);
width = 1225;
},
{
anchors = (
{
name = bottom;
position = "{748, 0}";
},
{
name = top;
position = "{381, 1167}";
}
);
layerId = "A5079BDB-9783-4F5E-864F-267B8C6F09C1";
paths = (
{
closed = 1;
nodes = (
"300 -48 OFFCURVE",
"308 -43 OFFCURVE",
"308 -23 CURVE SMOOTH",
"308 68 OFFCURVE",
"21 935 OFFCURVE",
"21 1037 CURVE SMOOTH",
"21 1059 OFFCURVE",
"21 1078 OFFCURVE",
"36 1078 CURVE SMOOTH",
"63 1078 OFFCURVE",
"275 836 OFFCURVE",
"513 556 CURVE SMOOTH",
"797 222 OFFCURVE",
"1003 -18 OFFCURVE",
"1108 -18 CURVE SMOOTH",
"1180 -18 OFFCURVE",
"1192 31 OFFCURVE",
"1192 102 CURVE SMOOTH",
"1192 232 OFFCURVE",
"1005 896 OFFCURVE",
"971 1009 CURVE SMOOTH",
"939 1116 OFFCURVE",
"923 1167 OFFCURVE",
"891 1167 CURVE SMOOTH",
"878 1167 OFFCURVE",
"871 1162 OFFCURVE",
"871 1143 CURVE SMOOTH",
"871 1059 OFFCURVE",
"1119 257 OFFCURVE",
"1119 128 CURVE SMOOTH",
"1119 84 OFFCURVE",
"1112 53 OFFCURVE",
"1093 53 CURVE SMOOTH",
"1047 53 OFFCURVE",
"893 217 OFFCURVE",
"561 605 CURVE SMOOTH",
"216 1009 OFFCURVE",
"76 1171 OFFCURVE",
"-1 1171 CURVE SMOOTH",
"-38 1171 OFFCURVE",
"-59 1144 OFFCURVE",
"-59 1100 CURVE SMOOTH",
"-59 983 OFFCURVE",
"162 222 OFFCURVE",
"221 46 CURVE SMOOTH",
"241 -14 OFFCURVE",
"262 -48 OFFCURVE",
"285 -48 CURVE SMOOTH"
);
}
);
width = 1222;
},
{
anchors = (
{
name = bottom;
position = "{1016, 0}";
},
{
name = top;
position = "{683, 1183}";
}
);
layerId = "AE80B40C-E5A8-4B5C-A94B-22B98FE5A19F";
paths = (
{
closed = 1;
nodes = (
"618 -48 OFFCURVE",
"717 -13 OFFCURVE",
"717 93 CURVE SMOOTH",
"717 161 OFFCURVE",
"685 236 OFFCURVE",
"685 302 CURVE SMOOTH",
"685 337 OFFCURVE",
"702 347 OFFCURVE",
"723 347 CURVE SMOOTH",
"761 347 OFFCURVE",
"804 332 OFFCURVE",
"941 207 CURVE SMOOTH",
"1088 73 OFFCURVE",
"1249 -27 OFFCURVE",
"1389 -27 CURVE SMOOTH",
"1551 -27 OFFCURVE",
"1608 90 OFFCURVE",
"1639 224 CURVE SMOOTH",
"1663 327 OFFCURVE",
"1676 400 OFFCURVE",
"1676 591 CURVE SMOOTH",
"1676 833 OFFCURVE",
"1593 1151 OFFCURVE",
"1297 1151 CURVE SMOOTH",
"1120 1151 OFFCURVE",
"1038 1098 OFFCURVE",
"1038 943 CURVE SMOOTH",
"1038 905 OFFCURVE",
"1035 868 OFFCURVE",
"1025 844 CURVE SMOOTH",
"1015 819 OFFCURVE",
"998 803 OFFCURVE",
"966 803 CURVE SMOOTH",
"922 803 OFFCURVE",
"811 888 OFFCURVE",
"699 975 CURVE SMOOTH",
"526 1110 OFFCURVE",
"445 1167 OFFCURVE",
"275 1167 CURVE SMOOTH",
"88 1167 OFFCURVE",
"9 1041 OFFCURVE",
"9 843 CURVE SMOOTH",
"9 596 OFFCURVE",
"104 193 OFFCURVE",
"246 53 CURVE SMOOTH",
"310 -10 OFFCURVE",
"387 -48 OFFCURVE",
"497 -48 CURVE SMOOTH"
);
}
);
width = 1813;
},
{
anchors = (
{
name = bottom;
position = "{908, 0}";
},
{
name = top;
position = "{892, 1183}";
}
);
layerId = "6282282A-FA3F-4DEE-9DB6-5D5B2A6C152F";
paths = (
{
closed = 1;
nodes = (
"491 -48 OFFCURVE",
"570 -19 OFFCURVE",
"611 30 CURVE SMOOTH",
"638 62 OFFCURVE",
"648 117 OFFCURVE",
"648 186 CURVE SMOOTH",
"648 315 OFFCURVE",
"669 347 OFFCURVE",
"714 347 CURVE SMOOTH",
"752 347 OFFCURVE",
"777 328 OFFCURVE",
"890 207 CURVE SMOOTH",
"1013 75 OFFCURVE",
"1148 -27 OFFCURVE",
"1287 -27 CURVE SMOOTH",
"1463 -27 OFFCURVE",
"1560 46 OFFCURVE",
"1624 209 CURVE SMOOTH",
"1686 368 OFFCURVE",
"1715 586 OFFCURVE",
"1715 755 CURVE SMOOTH",
"1715 1002 OFFCURVE",
"1644 1151 OFFCURVE",
"1424 1151 CURVE SMOOTH",
"1287 1151 OFFCURVE",
"1212 1108 OFFCURVE",
"1170 1004 CURVE SMOOTH",
"1148 949 OFFCURVE",
"1123 865 OFFCURVE",
"1110 836 CURVE SMOOTH",
"1098 809 OFFCURVE",
"1084 803 OFFCURVE",
"1052 803 CURVE SMOOTH",
"998 803 OFFCURVE",
"907 888 OFFCURVE",
"815 975 CURVE SMOOTH",
"672 1109 OFFCURVE",
"605 1167 OFFCURVE",
"435 1167 CURVE SMOOTH",
"145 1167 OFFCURVE",
"70 914 OFFCURVE",
"70 507 CURVE SMOOTH",
"70 350 OFFCURVE",
"83 149 OFFCURVE",
"159 53 CURVE SMOOTH",
"209 -10 OFFCURVE",
"277 -48 OFFCURVE",
"387 -48 CURVE SMOOTH"
);
}
);
width = 1785;
},
{
anchors = (
{
name = bottom;
position = "{656, 0}";
},
{
name = top;
position = "{603, 1167}";
}
);
layerId = "4C364951-5780-4BC6-AB35-57CC8C56127C";
paths = (
{
closed = 1;
nodes = (
"205 -48 OFFCURVE",
"213 -34 OFFCURVE",
"213 46 CURVE SMOOTH",
"213 244 OFFCURVE",
"158 711 OFFCURVE",
"158 965 CURVE SMOOTH",
"158 1058 OFFCURVE",
"162 1081 OFFCURVE",
"185 1081 CURVE SMOOTH",
"215 1081 OFFCURVE",
"374 834 OFFCURVE",
"550 556 CURVE SMOOTH",
"761 223 OFFCURVE",
"915 -18 OFFCURVE",
"1015 -18 CURVE SMOOTH",
"1111 -18 OFFCURVE",
"1140 62 OFFCURVE",
"1140 211 CURVE SMOOTH",
"1140 342 OFFCURVE",
"1110 986 OFFCURVE",
"1103 1080 CURVE SMOOTH",
"1098 1153 OFFCURVE",
"1085 1167 OFFCURVE",
"1066 1167 CURVE SMOOTH",
"1044 1167 OFFCURVE",
"1036 1152 OFFCURVE",
"1036 1085 CURVE SMOOTH",
"1036 1032 OFFCURVE",
"1069 388 OFFCURVE",
"1069 247 CURVE SMOOTH",
"1069 84 OFFCURVE",
"1051 60 OFFCURVE",
"1013 60 CURVE SMOOTH",
"967 60 OFFCURVE",
"843 217 OFFCURVE",
"601 605 CURVE SMOOTH",
"349 1009 OFFCURVE",
"247 1171 OFFCURVE",
"177 1171 CURVE SMOOTH",
"103 1171 OFFCURVE",
"90 1109 OFFCURVE",
"90 981 CURVE SMOOTH",
"90 859 OFFCURVE",
"126 147 OFFCURVE",
"137 46 CURVE SMOOTH",
"144 -14 OFFCURVE",
"156 -48 OFFCURVE",
"179 -48 CURVE SMOOTH"
);
}
);
width = 1230;
}
);
leftKerningGroup = H;
leftMetricsKey = H;
rightKerningGroup = H;
rightMetricsKey = H;
unicode = 004E;
},
{
color = 3;
glyphname = Eng;
lastChange = "2021-04-22 10:35:34 +0000";
layers = (
{
components = (
{
name = N;
}
);
layerId = "307B7D8E-54CC-4996-A0B0-7E3456408354";
paths = (
{
closed = 1;
nodes = (
"1148 -471 OFFCURVE",
"1447 0 OFFCURVE",
"1576 209 CURVE",
"992 99 LINE",
"992 49 OFFCURVE",
"959 -30 OFFCURVE",
"917 -70 CURVE SMOOTH",
"890 -96 OFFCURVE",
"858 -110 OFFCURVE",
"794 -119 CURVE SMOOTH",
"738 -127 OFFCURVE",
"667 -140 OFFCURVE",
"613 -150 CURVE SMOOTH",
"547 -162 OFFCURVE",
"449 -212 OFFCURVE",
"449 -320 CURVE SMOOTH",
"449 -450 OFFCURVE",
"575 -471 OFFCURVE",
"738 -471 CURVE SMOOTH"
);
}
);
width = 1785;
},
{
components = (
{
name = N;
}
);
layerId = "AE979D1C-FDDA-49FD-8CD9-3E2A42843A18";
paths = (
{
closed = 1;
nodes = (
"884 -365 OFFCURVE",
"994 -152 OFFCURVE",
"1111 314 CURVE",
"941 26 LINE",
"917 -68 OFFCURVE",
"887 -131 OFFCURVE",
"840 -184 CURVE SMOOTH",
"773 -259 OFFCURVE",
"711 -307 OFFCURVE",
"638 -307 CURVE SMOOTH",
"614 -307 OFFCURVE",
"552 -292 OFFCURVE",
"517 -292 CURVE SMOOTH",
"495 -292 OFFCURVE",
"471 -295 OFFCURVE",
"471 -322 CURVE SMOOTH",
"471 -351 OFFCURVE",
"547 -365 OFFCURVE",
"597 -365 CURVE SMOOTH"
);
}
);
width = 1225;
},
{
components = (
{
name = N;
}
);
layerId = "A5079BDB-9783-4F5E-864F-267B8C6F09C1";
paths = (
{
closed = 1;
nodes = (
"1127 -365 OFFCURVE",
"1192 -175 OFFCURVE",
"1192 102 CURVE",
"1106 26 LINE",
"1106 -68 OFFCURVE",
"1089 -154 OFFCURVE",
"1068 -207 CURVE SMOOTH",
"1039 -282 OFFCURVE",
"1011 -307 OFFCURVE",
"948 -307 CURVE SMOOTH",
"924 -307 OFFCURVE",
"872 -292 OFFCURVE",
"837 -292 CURVE SMOOTH",
"815 -292 OFFCURVE",
"805 -300 OFFCURVE",
"805 -322 CURVE SMOOTH",
"805 -351 OFFCURVE",
"903 -365 OFFCURVE",
"953 -365 CURVE SMOOTH"
);
}
);
width = 1222;
},
{
components = (
{
name = N;
}
);
layerId = "AE80B40C-E5A8-4B5C-A94B-22B98FE5A19F";
paths = (
{
closed = 1;
nodes = (
"1392 -471 OFFCURVE",
"1544 -132 OFFCURVE",
"1639 224 CURVE",
"1142 63 LINE",
"1142 42 OFFCURVE",
"1131 -28 OFFCURVE",
"1113 -70 CURVE SMOOTH",
"1102 -96 OFFCURVE",
"1088 -122 OFFCURVE",
"1031 -129 CURVE SMOOTH",
"979 -135 OFFCURVE",
"922 -136 OFFCURVE",
"872 -146 CURVE SMOOTH",
"812 -158 OFFCURVE",
"751 -194 OFFCURVE",
"751 -321 CURVE SMOOTH",
"751 -456 OFFCURVE",
"885 -471 OFFCURVE",
"1048 -471 CURVE SMOOTH"
);
}
);
width = 1813;
},
{
components = (
{
name = N;
}
);
layerId = "6282282A-FA3F-4DEE-9DB6-5D5B2A6C152F";
paths = (
{
closed = 1;
nodes = (
"1275 -471 OFFCURVE",
"1547 0 OFFCURVE",
"1624 209 CURVE",
"1063 63 LINE",
"1063 42 OFFCURVE",
"1059 -27 OFFCURVE",
"1031 -70 CURVE SMOOTH",
"1014 -96 OFFCURVE",
"997 -122 OFFCURVE",
"936 -131 CURVE SMOOTH",
"882 -139 OFFCURVE",
"814 -140 OFFCURVE",
"762 -150 CURVE SMOOTH",
"699 -162 OFFCURVE",
"650 -202 OFFCURVE",
"650 -277 CURVE SMOOTH",
"650 -403 OFFCURVE",
"691 -471 OFFCURVE",
"854 -471 CURVE SMOOTH"
);
}
);
width = 1785;
},
{
components = (
{
name = N;
}
);
layerId = "4C364951-5780-4BC6-AB35-57CC8C56127C";
paths = (
{
closed = 1;
nodes = (
"1047 -365 OFFCURVE",
"1140 -216 OFFCURVE",
"1140 211 CURVE",
"1048 41 LINE",
"1048 -53 OFFCURVE",
"1012 -154 OFFCURVE",
"978 -207 CURVE SMOOTH",
"930 -282 OFFCURVE",
"852 -307 OFFCURVE",
"779 -307 CURVE SMOOTH",
"755 -307 OFFCURVE",
"706 -292 OFFCURVE",
"671 -292 CURVE SMOOTH",
"649 -292 OFFCURVE",
"633 -305 OFFCURVE",
"633 -322 CURVE SMOOTH",
"633 -351 OFFCURVE",
"710 -365 OFFCURVE",
"760 -365 CURVE SMOOTH"
);
}
);
width = 1230;
}
);
leftKerningGroup = H;
leftMetricsKey = H;
rightKerningGroup = H;
rightMetricsKey = H;
unicode = 014A;
},
{
color = 6;
glyphname = O;
lastChange = "2021-04-22 10:35:34 +0000";
layers = (
{
anchors = (
{
name = bottom;
position = "{726, -40}";
},
{
name = center;
position = "{938, 583}";
},
{
name = ogonek;
position = "{1160, 66}";
},
{
name = top;
position = "{1066, 1228}";
},
{
name = topleft;
position = "{266, 1167}";
},
{
name = topright;
position = "{1518, 970}";
}
);
layerId = "307B7D8E-54CC-4996-A0B0-7E3456408354";
paths = (
{
closed = 1;
nodes = (
"1187 -108 OFFCURVE",
"1687 208 OFFCURVE",
"1687 685 CURVE SMOOTH",
"1687 993 OFFCURVE",
"1407 1193 OFFCURVE",
"1038 1193 CURVE SMOOTH",
"523 1193 OFFCURVE",
"61 868 OFFCURVE",
"61 379 CURVE SMOOTH",
"61 71 OFFCURVE",
"328 -108 OFFCURVE",
"681 -108 CURVE SMOOTH"
);
},
{
closed = 1;
nodes = (
"788 476 OFFCURVE",
"753 529 OFFCURVE",
"753 592 CURVE SMOOTH",
"753 701 OFFCURVE",
"842 768 OFFCURVE",
"953 768 CURVE SMOOTH",
"1032 768 OFFCURVE",
"1082 713 OFFCURVE",
"1082 646 CURVE SMOOTH",
"1082 550 OFFCURVE",
"998 476 OFFCURVE",
"883 476 CURVE SMOOTH"
);
}
);
width = 1692;
},
{
anchors = (
{
name = bottom;
position = "{643, -58}";
},
{
name = center;
position = "{824, 583}";
},
{
name = ogonek;
position = "{1020, 0}";
},
{
name = top;
position = "{940, 1162}";
},
{
name = topleft;
position = "{152, 1167}";
},
{
name = topright;
position = "{1418, 963}";
}
);
layerId = "AE979D1C-FDDA-49FD-8CD9-3E2A42843A18";
paths = (
{
closed = 1;
nodes = (
"1131 -102 OFFCURVE",
"1490 195 OFFCURVE",
"1490 691 CURVE SMOOTH",
"1490 987 OFFCURVE",
"1286 1193 OFFCURVE",
"936 1193 CURVE SMOOTH",
"475 1193 OFFCURVE",
"91 883 OFFCURVE",
"91 414 CURVE SMOOTH",
"91 106 OFFCURVE",
"289 -102 OFFCURVE",
"618 -102 CURVE SMOOTH"
);
},
{
closed = 1;
nodes = (
"356 -33 OFFCURVE",
"171 134 OFFCURVE",
"171 420 CURVE SMOOTH",
"171 838 OFFCURVE",
"516 1132 OFFCURVE",
"935 1132 CURVE SMOOTH",
"1219 1132 OFFCURVE",
"1418 976 OFFCURVE",
"1418 694 CURVE SMOOTH",
"1418 238 OFFCURVE",
"1108 -33 OFFCURVE",
"628 -33 CURVE SMOOTH"
);
}
);
width = 1521;
},
{
anchors = (
{
name = bottom;
position = "{815, -58}";
},
{
name = center;
position = "{746, 583}";
},
{
name = ogonek;
position = "{1188, 0}";
},
{
name = top;
position = "{575, 1162}";
},
{
name = topleft;
position = "{-217, 1167}";
},
{
name = topright;
position = "{1178, 963}";
}
);
layerId = "A5079BDB-9783-4F5E-864F-267B8C6F09C1";
paths = (
{
closed = 1;
nodes = (
"1221 -102 OFFCURVE",
"1437 84 OFFCURVE",
"1437 391 CURVE SMOOTH",
"1437 863 OFFCURVE",
"1079 1193 OFFCURVE",
"593 1193 CURVE SMOOTH",
"341 1193 OFFCURVE",
"26 1060 OFFCURVE",
"26 700 CURVE SMOOTH",
"26 261 OFFCURVE",
"381 -102 OFFCURVE",
"829 -102 CURVE SMOOTH"
);
},
{
closed = 1;
nodes = (
"422 -33 OFFCURVE",
"104 299 OFFCURVE",
"104 696 CURVE SMOOTH",
"104 968 OFFCURVE",
"314 1132 OFFCURVE",
"610 1132 CURVE SMOOTH",
"1038 1132 OFFCURVE",
"1364 819 OFFCURVE",
"1364 397 CURVE SMOOTH",
"1364 165 OFFCURVE",
"1225 -33 OFFCURVE",
"821 -33 CURVE SMOOTH"
);
}
);
width = 1524;
},
{
anchors = (
{
name = bottom;
position = "{852, -43}";
},
{
name = center;
position = "{841, 583}";
},
{
name = ogonek;
position = "{1238, 53}";
},
{
name = top;
position = "{646, 1228}";
},
{
name = topleft;
position = "{-123, 1167}";
},
{
name = topright;
position = "{1327, 970}";
}
);
layerId = "AE80B40C-E5A8-4B5C-A94B-22B98FE5A19F";
paths = (
{
closed = 1;
nodes = (
"1263 -108 OFFCURVE",
"1611 107 OFFCURVE",
"1611 456 CURVE SMOOTH",
"1611 891 OFFCURVE",
"1179 1193 OFFCURVE",
"715 1193 CURVE SMOOTH",
"313 1193 OFFCURVE",
"20 991 OFFCURVE",
"20 636 CURVE SMOOTH",
"20 189 OFFCURVE",
"390 -108 OFFCURVE",
"858 -108 CURVE SMOOTH"
);
},
{
closed = 1;
nodes = (
"750 476 OFFCURVE",
"651 537 OFFCURVE",
"651 634 CURVE SMOOTH",
"651 716 OFFCURVE",
"713 768 OFFCURVE",
"795 768 CURVE SMOOTH",
"901 768 OFFCURVE",
"985 694 OFFCURVE",
"985 593 CURVE SMOOTH",
"985 535 OFFCURVE",
"946 476 OFFCURVE",
"835 476 CURVE SMOOTH"
);
}
);
width = 1687;
},
{
anchors = (
{
name = bottom;
position = "{786, -51}";
},
{
name = center;
position = "{889, 583}";
},
{
name = ogonek;
position = "{1145, 50}";
},
{
name = top;
position = "{867, 1228}";
},
{
name = topleft;
position = "{82, 1167}";
},
{
name = topright;
position = "{1427, 970}";
}
);
layerId = "6282282A-FA3F-4DEE-9DB6-5D5B2A6C152F";
paths = (
{
closed = 1;
nodes = (
"1189 -108 OFFCURVE",
"1632 162 OFFCURVE",
"1632 587 CURVE SMOOTH",
"1632 970 OFFCURVE",
"1279 1193 OFFCURVE",
"872 1193 CURVE SMOOTH",
"409 1193 OFFCURVE",
"50 925 OFFCURVE",
"50 465 CURVE SMOOTH",
"50 95 OFFCURVE",
"350 -108 OFFCURVE",
"735 -108 CURVE SMOOTH"
);
},
{
closed = 1;
nodes = (
"762 476 OFFCURVE",
"700 563 OFFCURVE",
"700 634 CURVE SMOOTH",
"700 715 OFFCURVE",
"783 768 OFFCURVE",
"865 768 CURVE SMOOTH",
"956 768 OFFCURVE",
"1026 695 OFFCURVE",
"1026 616 CURVE SMOOTH",
"1026 553 OFFCURVE",
"975 476 OFFCURVE",
"847 476 CURVE SMOOTH"
);
}
);
width = 1682;
},
{
anchors = (
{
name = bottom;
position = "{732, -58}";
},
{
name = center;
position = "{783, 583}";
},
{
name = ogonek;
position = "{1086, 0}";
},
{
name = top;
position = "{767, 1162}";
},
{
name = topleft;
position = "{-23, 1167}";
},
{
name = topright;
position = "{1277, 963}";
}
);
layerId = "4C364951-5780-4BC6-AB35-57CC8C56127C";
paths = (
{
closed = 1;
nodes = (
"1157 -102 OFFCURVE",
"1445 117 OFFCURVE",
"1445 542 CURVE SMOOTH",
"1445 925 OFFCURVE",
"1173 1193 OFFCURVE",
"767 1193 CURVE SMOOTH",
"488 1193 OFFCURVE",
"70 1038 OFFCURVE",
"70 578 CURVE SMOOTH",
"70 175 OFFCURVE",
"320 -102 OFFCURVE",
"705 -102 CURVE SMOOTH"
);
},
{
closed = 1;
nodes = (
"388 -33 OFFCURVE",
"150 195 OFFCURVE",
"150 598 CURVE SMOOTH",
"150 927 OFFCURVE",
"440 1132 OFFCURVE",
"770 1132 CURVE SMOOTH",
"1103 1132 OFFCURVE",
"1372 927 OFFCURVE",
"1372 537 CURVE SMOOTH",
"1372 220 OFFCURVE",
"1195 -33 OFFCURVE",
"712 -33 CURVE SMOOTH"
);
}
);
width = 1515;
}
);
leftKerningGroup = O;
rightKerningGroup = O;
unicode = 004F;
},
{
color = 3;
glyphname = Ohorn;
lastChange = "2021-04-22 10:35:34 +0000";
layers = (
{
anchors = (
{
name = bottom;
position = "{780, 0}";
},
{
name = top;
position = "{767, 1193}";
}
);
components = (
{
name = horncomb;
transform = "{1, 0, 0, 1, 1011, 130}";
}
);
layerId = "4C364951-5780-4BC6-AB35-57CC8C56127C";
paths = (
{
closed = 1;
nodes = (
"1157 -102 OFFCURVE",
"1445 117 OFFCURVE",
"1445 542 CURVE SMOOTH",
"1445 925 OFFCURVE",
"1173 1193 OFFCURVE",
"767 1193 CURVE SMOOTH",
"488 1193 OFFCURVE",
"70 1038 OFFCURVE",
"70 578 CURVE SMOOTH",
"70 175 OFFCURVE",
"320 -102 OFFCURVE",
"705 -102 CURVE SMOOTH"
);
},
{
closed = 1;
nodes = (
"388 -33 OFFCURVE",
"150 195 OFFCURVE",
"150 598 CURVE SMOOTH",
"150 927 OFFCURVE",
"440 1132 OFFCURVE",
"770 1132 CURVE SMOOTH",
"1103 1132 OFFCURVE",
"1372 927 OFFCURVE",
"1372 537 CURVE SMOOTH",
"1372 220 OFFCURVE",
"1195 -33 OFFCURVE",
"712 -33 CURVE SMOOTH"
);
}
);
width = 1559;
},
{
anchors = (
{
name = bottom;
position = "{917, 0}";
},
{
name = top;
position = "{872, 1193}";
}
);
components = (
{
name = horncomb;
transform = "{1, 0, 0, 1, 1122, 137}";
}
);
layerId = "6282282A-FA3F-4DEE-9DB6-5D5B2A6C152F";
paths = (
{
closed = 1;
nodes = (
"1189 -108 OFFCURVE",
"1632 162 OFFCURVE",
"1632 587 CURVE SMOOTH",
"1632 970 OFFCURVE",
"1279 1193 OFFCURVE",
"872 1193 CURVE SMOOTH",
"409 1193 OFFCURVE",
"50 925 OFFCURVE",
"50 465 CURVE SMOOTH",
"50 95 OFFCURVE",
"350 -108 OFFCURVE",
"735 -108 CURVE SMOOTH"
);
},
{
closed = 1;
nodes = (
"762 476 OFFCURVE",
"700 563 OFFCURVE",
"700 634 CURVE SMOOTH",
"700 715 OFFCURVE",
"783 768 OFFCURVE",
"865 768 CURVE SMOOTH",
"956 768 OFFCURVE",
"1026 695 OFFCURVE",
"1026 616 CURVE SMOOTH",
"1026 553 OFFCURVE",
"975 476 OFFCURVE",
"847 476 CURVE SMOOTH"
);
}
);
width = 1833;
},
{
anchors = (
{
name = bottom;
position = "{893, 0}";
},
{
name = top;
position = "{593, 1193}";
}
);
components = (
{
name = horncomb;
transform = "{1, 0, 0, 1, 1034, 130}";
}
);
layerId = "A5079BDB-9783-4F5E-864F-267B8C6F09C1";
paths = (
{
closed = 1;
nodes = (
"1221 -102 OFFCURVE",
"1437 84 OFFCURVE",
"1437 391 CURVE SMOOTH",
"1437 863 OFFCURVE",
"1079 1193 OFFCURVE",
"593 1193 CURVE SMOOTH",
"341 1193 OFFCURVE",
"26 1060 OFFCURVE",
"26 700 CURVE SMOOTH",
"26 261 OFFCURVE",
"381 -102 OFFCURVE",
"829 -102 CURVE SMOOTH"
);
},
{
closed = 1;
nodes = (
"422 -33 OFFCURVE",
"104 299 OFFCURVE",
"104 696 CURVE SMOOTH",
"104 968 OFFCURVE",
"314 1132 OFFCURVE",
"610 1132 CURVE SMOOTH",
"1038 1132 OFFCURVE",
"1364 819 OFFCURVE",
"1364 397 CURVE SMOOTH",
"1364 165 OFFCURVE",
"1225 -33 OFFCURVE",
"821 -33 CURVE SMOOTH"
);
}
);
width = 1594;
},
{
anchors = (
{
name = bottom;
position = "{1031, 0}";
},
{
name = top;
position = "{677, 1193}";
}
);
components = (
{
name = horncomb;
transform = "{1, 0, 0, 1, 1152, 137}";
}
);
layerId = "AE80B40C-E5A8-4B5C-A94B-22B98FE5A19F";
paths = (
{
closed = 1;
nodes = (
"1263 -108 OFFCURVE",
"1611 107 OFFCURVE",
"1611 456 CURVE SMOOTH",
"1611 891 OFFCURVE",
"1179 1193 OFFCURVE",
"715 1193 CURVE SMOOTH",
"313 1193 OFFCURVE",
"20 991 OFFCURVE",
"20 636 CURVE SMOOTH",
"20 189 OFFCURVE",
"390 -108 OFFCURVE",
"858 -108 CURVE SMOOTH"
);
},
{
closed = 1;
nodes = (
"750 476 OFFCURVE",
"651 537 OFFCURVE",
"651 634 CURVE SMOOTH",
"651 716 OFFCURVE",
"713 768 OFFCURVE",
"795 768 CURVE SMOOTH",
"901 768 OFFCURVE",
"985 694 OFFCURVE",
"985 593 CURVE SMOOTH",
"985 535 OFFCURVE",
"946 476 OFFCURVE",
"835 476 CURVE SMOOTH"
);
}
);
width = 1869;
},
{
anchors = (
{
name = bottom;
position = "{678, 0}";
},
{
name = top;
position = "{966, 1193}";
}
);
components = (
{
name = horncomb;
transform = "{1, 0, 0, 1, 1052, 130}";
}
);
layerId = "AE979D1C-FDDA-49FD-8CD9-3E2A42843A18";
paths = (
{
closed = 1;
nodes = (
"1131 -102 OFFCURVE",
"1490 195 OFFCURVE",
"1490 691 CURVE SMOOTH",
"1490 987 OFFCURVE",
"1286 1193 OFFCURVE",
"936 1193 CURVE SMOOTH",
"475 1193 OFFCURVE",
"91 883 OFFCURVE",
"91 414 CURVE SMOOTH",
"91 106 OFFCURVE",
"289 -102 OFFCURVE",
"618 -102 CURVE SMOOTH"
);
},
{
closed = 1;
nodes = (
"356 -33 OFFCURVE",
"171 134 OFFCURVE",
"171 420 CURVE SMOOTH",
"171 838 OFFCURVE",
"516 1132 OFFCURVE",
"935 1132 CURVE SMOOTH",
"1219 1132 OFFCURVE",
"1418 976 OFFCURVE",
"1418 694 CURVE SMOOTH",
"1418 238 OFFCURVE",
"1108 -33 OFFCURVE",
"628 -33 CURVE SMOOTH"
);
}
);
width = 1547;
},
{
anchors = (
{
name = bottom;
position = "{750, 0}";
},
{
name = top;
position = "{1064, 1193}";
}
);
components = (
{
name = horncomb;
transform = "{1, 0, 0, 1, 1170, 137}";
}
);
layerId = "307B7D8E-54CC-4996-A0B0-7E3456408354";
paths = (
{
closed = 1;
nodes = (
"1187 -108 OFFCURVE",
"1687 208 OFFCURVE",
"1687 685 CURVE SMOOTH",
"1687 993 OFFCURVE",
"1407 1193 OFFCURVE",
"1038 1193 CURVE SMOOTH",
"523 1193 OFFCURVE",
"61 868 OFFCURVE",
"61 379 CURVE SMOOTH",
"61 71 OFFCURVE",
"328 -108 OFFCURVE",
"681 -108 CURVE SMOOTH"
);
},
{
closed = 1;
nodes = (
"788 476 OFFCURVE",
"753 529 OFFCURVE",
"753 592 CURVE SMOOTH",
"753 701 OFFCURVE",
"842 768 OFFCURVE",
"953 768 CURVE SMOOTH",
"1032 768 OFFCURVE",
"1082 713 OFFCURVE",
"1082 646 CURVE SMOOTH",
"1082 550 OFFCURVE",
"998 476 OFFCURVE",
"883 476 CURVE SMOOTH"
);
}
);
width = 1692;
}
);
leftKerningGroup = O;
rightKerningGroup = O;
unicode = 01A0;
},
{
color = 3;
glyphname = Oogonek;
lastChange = "2021-04-22 10:35:34 +0000";
layers = (
{
anchors = (
{
name = bottom;
position = "{732, -58}";
},
{
name = center;
position = "{783, 583}";
},
{
name = ogonek;
position = "{1086, 0}";
},
{
name = top;
position = "{767, 1162}";
},
{
name = topleft;
position = "{-23, 1167}";
},
{
name = topright;
position = "{1277, 963}";
}
);
components = (
{
name = ogonekcomb;
transform = "{1, 0, 0, 1, 855, 0}";
}
);
layerId = "4C364951-5780-4BC6-AB35-57CC8C56127C";
paths = (
{
closed = 1;
nodes = (
"1157 -102 OFFCURVE",
"1445 117 OFFCURVE",
"1445 542 CURVE SMOOTH",
"1445 925 OFFCURVE",
"1173 1193 OFFCURVE",
"767 1193 CURVE SMOOTH",
"488 1193 OFFCURVE",
"70 1038 OFFCURVE",
"70 578 CURVE SMOOTH",
"70 175 OFFCURVE",
"320 -102 OFFCURVE",
"705 -102 CURVE SMOOTH"
);
},
{
closed = 1;
nodes = (
"388 -33 OFFCURVE",
"150 195 OFFCURVE",
"150 598 CURVE SMOOTH",
"150 927 OFFCURVE",
"440 1132 OFFCURVE",
"770 1132 CURVE SMOOTH",
"1103 1132 OFFCURVE",
"1372 927 OFFCURVE",
"1372 537 CURVE SMOOTH",
"1372 220 OFFCURVE",
"1195 -33 OFFCURVE",
"712 -33 CURVE SMOOTH"
);
}
);
width = 1515;
},
{
anchors = (
{
name = bottom;
position = "{786, -51}";
},
{
name = center;
position = "{889, 583}";
},
{
name = ogonek;
position = "{1145, 50}";
},
{
name = top;
position = "{867, 1228}";
},
{
name = topleft;
position = "{82, 1167}";
},
{
name = topright;
position = "{1427, 970}";
}
);
components = (
{
name = ogonekcomb;
transform = "{1, 0, 0, 1, 917, 50}";
}
);
layerId = "6282282A-FA3F-4DEE-9DB6-5D5B2A6C152F";
paths = (
{
closed = 1;
nodes = (
"1189 -108 OFFCURVE",
"1632 162 OFFCURVE",
"1632 587 CURVE SMOOTH",
"1632 970 OFFCURVE",
"1279 1193 OFFCURVE",
"872 1193 CURVE SMOOTH",
"409 1193 OFFCURVE",
"50 925 OFFCURVE",
"50 465 CURVE SMOOTH",
"50 95 OFFCURVE",
"350 -108 OFFCURVE",
"735 -108 CURVE SMOOTH"
);
},
{
closed = 1;
nodes = (
"762 476 OFFCURVE",
"700 563 OFFCURVE",
"700 634 CURVE SMOOTH",
"700 715 OFFCURVE",
"783 768 OFFCURVE",
"865 768 CURVE SMOOTH",
"956 768 OFFCURVE",
"1026 695 OFFCURVE",
"1026 616 CURVE SMOOTH",
"1026 553 OFFCURVE",
"975 476 OFFCURVE",
"847 476 CURVE SMOOTH"
);
}
);
width = 1682;
},
{
anchors = (
{
name = bottom;
position = "{815, -58}";
},
{
name = center;
position = "{746, 583}";
},
{
name = ogonek;
position = "{1188, 0}";
},
{
name = top;
position = "{575, 1162}";
},
{
name = topleft;
position = "{-217, 1167}";
},
{
name = topright;
position = "{1178, 963}";
}
);
components = (
{
name = ogonekcomb;
transform = "{1, 0, 0, 1, 846, 0}";
}
);
layerId = "A5079BDB-9783-4F5E-864F-267B8C6F09C1";
paths = (
{
closed = 1;
nodes = (
"1221 -102 OFFCURVE",
"1437 84 OFFCURVE",
"1437 391 CURVE SMOOTH",
"1437 863 OFFCURVE",
"1079 1193 OFFCURVE",
"593 1193 CURVE SMOOTH",
"341 1193 OFFCURVE",
"26 1060 OFFCURVE",
"26 700 CURVE SMOOTH",
"26 261 OFFCURVE",
"381 -102 OFFCURVE",
"829 -102 CURVE SMOOTH"
);
},
{
closed = 1;
nodes = (
"422 -33 OFFCURVE",
"104 299 OFFCURVE",
"104 696 CURVE SMOOTH",
"104 968 OFFCURVE",
"314 1132 OFFCURVE",
"610 1132 CURVE SMOOTH",
"1038 1132 OFFCURVE",
"1364 819 OFFCURVE",
"1364 397 CURVE SMOOTH",
"1364 165 OFFCURVE",
"1225 -33 OFFCURVE",
"821 -33 CURVE SMOOTH"
);
}
);
width = 1524;
},
{
anchors = (
{
name = bottom;
position = "{852, -43}";
},
{
name = center;
position = "{841, 583}";
},
{
name = ogonek;
position = "{1238, 53}";
},
{
name = top;
position = "{646, 1228}";
},
{
name = topleft;
position = "{-123, 1167}";
},
{
name = topright;
position = "{1327, 970}";
}
);
components = (
{
name = ogonekcomb;
transform = "{1, 0, 0, 1, 858, 53}";
}
);
layerId = "AE80B40C-E5A8-4B5C-A94B-22B98FE5A19F";
paths = (
{
closed = 1;
nodes = (
"1263 -108 OFFCURVE",
"1611 107 OFFCURVE",
"1611 456 CURVE SMOOTH",
"1611 891 OFFCURVE",
"1179 1193 OFFCURVE",
"715 1193 CURVE SMOOTH",
"313 1193 OFFCURVE",
"20 991 OFFCURVE",
"20 636 CURVE SMOOTH",
"20 189 OFFCURVE",
"390 -108 OFFCURVE",
"858 -108 CURVE SMOOTH"
);
},
{
closed = 1;
nodes = (
"750 476 OFFCURVE",
"651 537 OFFCURVE",
"651 634 CURVE SMOOTH",
"651 716 OFFCURVE",
"713 768 OFFCURVE",
"795 768 CURVE SMOOTH",
"901 768 OFFCURVE",
"985 694 OFFCURVE",
"985 593 CURVE SMOOTH",
"985 535 OFFCURVE",
"946 476 OFFCURVE",
"835 476 CURVE SMOOTH"
);
}
);
width = 1687;
},
{
anchors = (
{
name = bottom;
position = "{643, -58}";
},
{
name = center;
position = "{824, 583}";
},
{
name = ogonek;
position = "{1020, 0}";
},
{
name = top;
position = "{940, 1162}";
},
{
name = topleft;
position = "{152, 1167}";
},
{
name = topright;
position = "{1418, 963}";
}
);
components = (
{
name = ogonekcomb;
transform = "{1, 0, 0, 1, 913, 0}";
}
);
layerId = "AE979D1C-FDDA-49FD-8CD9-3E2A42843A18";
paths = (
{
closed = 1;
nodes = (
"1131 -102 OFFCURVE",
"1490 195 OFFCURVE",
"1490 691 CURVE SMOOTH",
"1490 987 OFFCURVE",
"1286 1193 OFFCURVE",
"936 1193 CURVE SMOOTH",
"475 1193 OFFCURVE",
"91 883 OFFCURVE",
"91 414 CURVE SMOOTH",
"91 106 OFFCURVE",
"289 -102 OFFCURVE",
"618 -102 CURVE SMOOTH"
);
},
{
closed = 1;
nodes = (
"356 -33 OFFCURVE",
"171 134 OFFCURVE",
"171 420 CURVE SMOOTH",
"171 838 OFFCURVE",
"516 1132 OFFCURVE",
"935 1132 CURVE SMOOTH",
"1219 1132 OFFCURVE",
"1418 976 OFFCURVE",
"1418 694 CURVE SMOOTH",
"1418 238 OFFCURVE",
"1108 -33 OFFCURVE",
"628 -33 CURVE SMOOTH"
);
}
);
width = 1521;
},
{
anchors = (
{
name = bottom;
position = "{726, -40}";
},
{
name = center;
position = "{938, 583}";
},
{
name = ogonek;
position = "{1160, 66}";
},
{
name = top;
position = "{1066, 1228}";
},
{
name = topleft;
position = "{266, 1167}";
},
{
name = topright;
position = "{1518, 970}";
}
);
components = (
{
name = ogonekcomb;
transform = "{1, 0, 0, 1, 1022, 66}";
}
);
layerId = "307B7D8E-54CC-4996-A0B0-7E3456408354";
paths = (
{
closed = 1;
nodes = (
"1187 -108 OFFCURVE",
"1687 208 OFFCURVE",
"1687 685 CURVE SMOOTH",
"1687 993 OFFCURVE",
"1407 1193 OFFCURVE",
"1038 1193 CURVE SMOOTH",
"523 1193 OFFCURVE",
"61 868 OFFCURVE",
"61 379 CURVE SMOOTH",
"61 71 OFFCURVE",
"328 -108 OFFCURVE",
"681 -108 CURVE SMOOTH"
);
},
{
closed = 1;
nodes = (
"788 476 OFFCURVE",
"753 529 OFFCURVE",
"753 592 CURVE SMOOTH",
"753 701 OFFCURVE",
"842 768 OFFCURVE",
"953 768 CURVE SMOOTH",
"1032 768 OFFCURVE",
"1082 713 OFFCURVE",
"1082 646 CURVE SMOOTH",
"1082 550 OFFCURVE",
"998 476 OFFCURVE",
"883 476 CURVE SMOOTH"
);
}
);
width = 1692;
}
);
leftKerningGroup = O;
rightKerningGroup = O;
unicode = 01EA;
},
